<svg viewBox="-213.86249999999995 123.42168674698792 1877.2375000000002 1471.566265060241" fill="none" xmlns="http://www.w3.org/2000/svg" xmlns:xlink="http://www.w3.org/1999/xlink" overflow="visible" width="1877.2375000000002px" height="1471.566265060241px"><g id="Master/Compositions/Doctor Prescription"><g id="Background Elements Medicine" transform="translate(473 214) scale(1 1)"><g id="Background Elements Medicine/Diagnosis"><g id="Wooden Clipboard"><rect id="Board" x="286" y="155" width="884" height="1207" rx="15" fill="black"/><g id="Paper"><path id="Rectangle Copy 38" d="M325 208H1129V1193C1129 1248.23 1084.23 1293 1029 1293H325V208Z" fill="white"/><g id="Writing"><rect id="Rectangle Copy 11" x="394.229" y="333.797" width="667.115" height="17.2971" fill="black"/><rect id="Rectangle Copy 42" x="394.229" y="717.478" width="667.115" height="17.2971" fill="black"/><rect id="Rectangle Copy 39" x="394.229" y="429.717" width="667.115" height="17.2971" fill="black"/><rect id="Rectangle Copy 43" x="394.229" y="813.399" width="667.115" height="17.2971" fill="black"/><rect id="Rectangle Copy 40" x="394.229" y="525.638" width="667.115" height="17.2971" fill="black"/><rect id="Rectangle Copy 44" x="394.229" y="909.319" width="667.115" height="17.2971" fill="black"/><rect id="Rectangle Copy 41" x="394.229" y="621.558" width="667.115" height="17.2971" fill="black"/><rect id="Rectangle Copy 45" x="394.229" y="1005.24" width="667.115" height="17.2971" fill="black"/><rect id="Rectangle Copy 46" x="748.241" y="1145.19" width="313.104" height="17.2971" fill="black"/></g></g><path id="Path" fill-rule="evenodd" clip-rule="evenodd" d="M727.5 0C770.428 0 805.229 34.7858 805.229 77.6962C805.229 97.2197 798.025 115.061 786.129 128.71L823 128.709C878.228 128.709 923 173.48 923 228.709V248H532V228.709C532 173.48 576.772 128.709 632 128.709L668.871 128.71C656.975 115.061 649.771 97.2197 649.771 77.6962C649.771 34.7858 684.572 0 727.5 0Z" fill="black"/></g><g id="Group-Copy"><g id="Medicine-1"><g id="Rectangle"><path id="Vector" d="M628.5 1014H405.5V1072H628.5V1014Z" fill="white"/></g><g id="Rectangle-Copy-5"><path id="Vector_2" d="M631.5 1011H402.5V1075H631.5V1011ZM625.5 1017V1069H408.5V1017H625.5Z" fill="black"/></g><g id="Rectangle_2"><path id="Vector_3" d="M611 1049.5H422C398.804 1049.5 380 1068.3 380 1091.5V1319.5C380 1342.7 398.804 1361.5 422 1361.5H611C634.196 1361.5 653 1342.7 653 1319.5V1091.5C653 1068.3 634.196 1049.5 611 1049.5Z" fill="white"/><path id="Vector_4" d="M611 1363H422C410.466 1362.99 399.408 1358.4 391.253 1350.25C383.097 1342.09 378.511 1331.03 378.5 1319.5V1091.5C378.511 1079.97 383.097 1068.91 391.253 1060.75C399.408 1052.6 410.466 1048.01 422 1048H611C622.534 1048.01 633.592 1052.6 641.747 1060.75C649.903 1068.91 654.489 1079.97 654.5 1091.5V1319.5C654.489 1331.03 649.903 1342.09 641.747 1350.25C633.592 1358.4 622.534 1362.99 611 1363ZM422 1051C411.263 1051.01 400.969 1055.28 393.377 1062.88C385.784 1070.47 381.513 1080.76 381.5 1091.5V1319.5C381.513 1330.24 385.784 1340.53 393.377 1348.12C400.969 1355.72 411.263 1359.99 422 1360H611C621.737 1359.99 632.031 1355.72 639.623 1348.12C647.216 1340.53 651.487 1330.24 651.5 1319.5V1091.5C651.487 1080.76 647.216 1070.47 639.623 1062.88C632.031 1055.28 621.737 1051.01 611 1051H422Z" fill="black"/></g><g id="Rectangle-Copy-6"><path id="Vector_5" d="M612.5 1048C623.639 1048 634.322 1052.42 642.198 1060.3C650.075 1068.18 654.5 1078.86 654.5 1090V1321C654.5 1332.14 650.075 1342.82 642.198 1350.7C634.322 1358.58 623.639 1363 612.5 1363H420.5C414.984 1363 409.523 1361.91 404.427 1359.8C399.332 1357.69 394.702 1354.6 390.802 1350.7C386.901 1346.8 383.808 1342.17 381.697 1337.07C379.586 1331.98 378.5 1326.52 378.5 1321V1090C378.5 1078.86 382.925 1068.18 390.802 1060.3C398.678 1052.42 409.361 1048 420.5 1048H612.5ZM612.5 1054H420.5C411.055 1054 401.988 1057.71 395.254 1064.33C388.52 1070.95 384.657 1079.96 384.5 1089.4V1321C384.499 1330.44 388.209 1339.51 394.831 1346.25C401.453 1352.98 410.457 1356.84 419.9 1357H612.5C621.945 1357 631.012 1353.29 637.746 1346.67C644.48 1340.05 648.343 1331.04 648.5 1321.6V1090C648.501 1080.56 644.791 1071.49 638.169 1064.75C631.547 1058.02 622.543 1054.16 613.1 1054H612.5Z" fill="black"/></g><g id="Rectangle_3"><path id="Vector_6" d="M654.5 944H378.5V1031H654.5V944Z" fill="white"/></g><g id="Rectangle-Copy-4"><path id="Vector_7" d="M657.5 941H375.5V1034H657.5V941ZM651.5 947V1028H381.5V947H651.5Z" fill="black"/></g><g id="Rectangle_4"><path id="Vector_8" d="M652.5 1132H381.5V1299H652.5V1132Z" fill="white"/></g><g id="Rectangle-Copy"><path id="Vector_9" d="M655.5 1129H378.5V1302H655.5V1129ZM649.5 1135V1296H384.5V1135H649.5Z" fill="black"/></g><g id="Rectangle-Copy-2"><path id="Vector_10" d="M654 1130.5H380V1300.5H654V1130.5ZM651 1133.5V1297.5H383V1133.5H651Z" fill="black"/></g></g><g id="Pill"><g id="Rectangle_5"><path id="Vector_11" fill-rule="evenodd" clip-rule="evenodd" d="M666.5 1276H745.5C757.036 1276 768.099 1280.59 776.256 1288.74C784.413 1296.9 788.997 1307.96 789 1319.5V1319.5C788.997 1331.04 784.413 1342.1 776.256 1350.26C768.099 1358.41 757.036 1363 745.5 1363H666.5C654.964 1363 643.901 1358.41 635.744 1350.26C627.587 1342.1 623.003 1331.04 623 1319.5V1319.5C623.003 1307.96 627.587 1296.9 635.744 1288.74C643.901 1280.59 654.964 1276 666.5 1276V1276Z" fill="white"/><path id="Vector_12" d="M745.5 1366H666.5C654.167 1366 642.34 1361.1 633.62 1352.38C624.899 1343.66 620 1331.83 620 1319.5C620 1307.17 624.899 1295.34 633.62 1286.62C642.34 1277.9 654.167 1273 666.5 1273H745.5C757.833 1273 769.66 1277.9 778.38 1286.62C787.101 1295.34 792 1307.17 792 1319.5C792 1331.83 787.101 1343.66 778.38 1352.38C769.66 1361.1 757.833 1366 745.5 1366V1366ZM666.5 1279C655.759 1279 645.457 1283.27 637.862 1290.86C630.267 1298.46 626 1308.76 626 1319.5C626 1330.24 630.267 1340.54 637.862 1348.14C645.457 1355.73 655.759 1360 666.5 1360H745.5C756.241 1360 766.543 1355.73 774.138 1348.14C781.733 1340.54 786 1330.24 786 1319.5C786 1308.76 781.733 1298.46 774.138 1290.86C766.543 1283.27 756.241 1279 745.5 1279H666.5Z" fill="black"/></g><g id="Rectangle-Copy-7"><path id="Vector_13" fill-rule="evenodd" clip-rule="evenodd" d="M666.5 1276H745.5C757.036 1276 768.099 1280.59 776.256 1288.74C784.413 1296.9 788.997 1307.96 789 1319.5V1319.5C788.997 1331.04 784.413 1342.1 776.256 1350.26C768.099 1358.41 757.036 1363 745.5 1363H666.5C654.964 1363 643.901 1358.41 635.744 1350.26C627.587 1342.1 623.003 1331.04 623 1319.5V1319.5C623.003 1307.96 627.587 1296.9 635.744 1288.74C643.901 1280.59 654.964 1276 666.5 1276V1276Z" fill="white"/><path id="Vector_14" d="M745.5 1366H666.5C654.167 1366 642.34 1361.1 633.62 1352.38C624.899 1343.66 620 1331.83 620 1319.5C620 1307.17 624.899 1295.34 633.62 1286.62C642.34 1277.9 654.167 1273 666.5 1273H745.5C757.833 1273 769.66 1277.9 778.38 1286.62C787.101 1295.34 792 1307.17 792 1319.5C792 1331.83 787.101 1343.66 778.38 1352.38C769.66 1361.1 757.833 1366 745.5 1366V1366ZM666.5 1279C655.759 1279 645.457 1283.27 637.862 1290.86C630.267 1298.46 626 1308.76 626 1319.5C626 1330.24 630.267 1340.54 637.862 1348.14C645.457 1355.73 655.759 1360 666.5 1360H745.5C756.241 1360 766.543 1355.73 774.138 1348.14C781.733 1340.54 786 1330.24 786 1319.5C786 1308.76 781.733 1298.46 774.138 1290.86C766.543 1283.27 756.241 1279 745.5 1279H666.5Z" fill="black"/></g><g id="Rectangle-Copy-9"><path id="Vector_15" d="M745.5 1273H666.5C654.167 1273 642.34 1277.9 633.62 1286.62C624.899 1295.34 620 1307.17 620 1319.5C620 1331.83 624.899 1343.66 633.62 1352.38C642.34 1361.1 654.167 1366 666.5 1366H745.5C757.833 1366 769.66 1361.1 778.38 1352.38C787.101 1343.66 792 1331.83 792 1319.5C792 1307.17 787.101 1295.34 778.38 1286.62C769.66 1277.9 757.833 1273 745.5 1273ZM666.5 1279H745.5C756.241 1279 766.543 1283.27 774.138 1290.86C781.733 1298.46 786 1308.76 786 1319.5C786 1330.24 781.733 1340.54 774.138 1348.14C766.543 1355.73 756.241 1360 745.5 1360H666.5C655.759 1360 645.457 1355.73 637.862 1348.14C630.267 1340.54 626 1330.24 626 1319.5C626 1308.76 630.267 1298.46 637.862 1290.86C645.457 1283.27 655.759 1279 666.5 1279V1279Z" fill="black"/></g><g id="Combined-Shape"><path id="Vector_16" fill-rule="evenodd" clip-rule="evenodd" d="M706 1276V1363H666.5C654.963 1363 643.899 1358.42 635.741 1350.26C627.583 1342.1 623 1331.04 623 1319.5C623 1307.96 627.583 1296.9 635.741 1288.74C643.899 1280.58 654.963 1276 666.5 1276H706Z" fill="black"/></g></g><g id="Pill-2"><g id="Rectangle_6"><path id="Vector_17" fill-rule="evenodd" clip-rule="evenodd" d="M548.5 1276H627.5C639.036 1276 650.099 1280.59 658.256 1288.74C666.413 1296.9 670.997 1307.96 671 1319.5V1319.5C670.997 1331.04 666.413 1342.1 658.256 1350.26C650.099 1358.41 639.036 1363 627.5 1363H548.5C536.964 1363 525.901 1358.41 517.744 1350.26C509.587 1342.1 505.003 1331.04 505 1319.5V1319.5C505.003 1307.96 509.587 1296.9 517.744 1288.74C525.901 1280.59 536.964 1276 548.5 1276V1276Z" fill="white"/><path id="Vector_18" d="M627.5 1366H548.5C536.167 1366 524.34 1361.1 515.62 1352.38C506.899 1343.66 502 1331.83 502 1319.5C502 1307.17 506.899 1295.34 515.62 1286.62C524.34 1277.9 536.167 1273 548.5 1273H627.5C639.833 1273 651.66 1277.9 660.38 1286.62C669.101 1295.34 674 1307.17 674 1319.5C674 1331.83 669.101 1343.66 660.38 1352.38C651.66 1361.1 639.833 1366 627.5 1366V1366ZM548.5 1279C537.759 1279 527.457 1283.27 519.862 1290.86C512.267 1298.46 508 1308.76 508 1319.5C508 1330.24 512.267 1340.54 519.862 1348.14C527.457 1355.73 537.759 1360 548.5 1360H627.5C638.241 1360 648.543 1355.73 656.138 1348.14C663.733 1340.54 668 1330.24 668 1319.5C668 1308.76 663.733 1298.46 656.138 1290.86C648.543 1283.27 638.241 1279 627.5 1279H548.5Z" fill="black"/></g><g id="Rectangle-Copy-8"><path id="Vector_19" fill-rule="evenodd" clip-rule="evenodd" d="M548.5 1276H627.5C639.036 1276 650.099 1280.59 658.256 1288.74C666.413 1296.9 670.997 1307.96 671 1319.5V1319.5C670.997 1331.04 666.413 1342.1 658.256 1350.26C650.099 1358.41 639.036 1363 627.5 1363H548.5C536.964 1363 525.901 1358.41 517.744 1350.26C509.587 1342.1 505.003 1331.04 505 1319.5V1319.5C505.003 1307.96 509.587 1296.9 517.744 1288.74C525.901 1280.59 536.964 1276 548.5 1276V1276Z" fill="white"/><path id="Vector_20" d="M627.5 1366H548.5C536.167 1366 524.34 1361.1 515.62 1352.38C506.899 1343.66 502 1331.83 502 1319.5C502 1307.17 506.899 1295.34 515.62 1286.62C524.34 1277.9 536.167 1273 548.5 1273H627.5C639.833 1273 651.66 1277.9 660.38 1286.62C669.101 1295.34 674 1307.17 674 1319.5C674 1331.83 669.101 1343.66 660.38 1352.38C651.66 1361.1 639.833 1366 627.5 1366V1366ZM548.5 1279C537.759 1279 527.457 1283.27 519.862 1290.86C512.267 1298.46 508 1308.76 508 1319.5C508 1330.24 512.267 1340.54 519.862 1348.14C527.457 1355.73 537.759 1360 548.5 1360H627.5C638.241 1360 648.543 1355.73 656.138 1348.14C663.733 1340.54 668 1330.24 668 1319.5C668 1308.76 663.733 1298.46 656.138 1290.86C648.543 1283.27 638.241 1279 627.5 1279H548.5Z" fill="black"/></g><g id="Rectangle-Copy-10"><path id="Vector_21" d="M627.5 1273H548.5C536.167 1273 524.34 1277.9 515.62 1286.62C506.899 1295.34 502 1307.17 502 1319.5C502 1331.83 506.899 1343.66 515.62 1352.38C524.34 1361.1 536.167 1366 548.5 1366H627.5C639.833 1366 651.66 1361.1 660.38 1352.38C669.101 1343.66 674 1331.83 674 1319.5C674 1307.17 669.101 1295.34 660.38 1286.62C651.66 1277.9 639.833 1273 627.5 1273ZM548.5 1279H627.5C638.241 1279 648.543 1283.27 656.138 1290.86C663.733 1298.46 668 1308.76 668 1319.5C668 1330.24 663.733 1340.54 656.138 1348.14C648.543 1355.73 638.241 1360 627.5 1360H548.5C537.759 1360 527.457 1355.73 519.862 1348.14C512.267 1340.54 508 1330.24 508 1319.5C508 1308.76 512.267 1298.46 519.862 1290.86C527.457 1283.27 537.759 1279 548.5 1279V1279Z" fill="black"/></g><g id="Combined-Shape_2"><path id="Vector_22" fill-rule="evenodd" clip-rule="evenodd" d="M588 1276V1363H548.5C536.963 1363 525.899 1358.42 517.741 1350.26C509.583 1342.1 505 1331.04 505 1319.5C505 1307.96 509.583 1296.9 517.741 1288.74C525.899 1280.58 536.963 1276 548.5 1276H588Z" fill="black"/></g></g><g id="Pill-3"><g id="Rectangle_7"><path id="Vector_23" fill-rule="evenodd" clip-rule="evenodd" d="M281.5 1276H202.5C190.964 1276 179.901 1280.59 171.744 1288.74C163.587 1296.9 159.003 1307.96 159 1319.5V1319.5C159.003 1331.04 163.587 1342.1 171.744 1350.26C179.901 1358.41 190.964 1363 202.5 1363H281.5C293.036 1363 304.099 1358.41 312.256 1350.26C320.413 1342.1 324.997 1331.04 325 1319.5V1319.5C324.997 1307.96 320.413 1296.9 312.256 1288.74C304.099 1280.59 293.036 1276 281.5 1276V1276Z" fill="white"/><path id="Vector_24" d="M281.5 1366H202.5C190.167 1366 178.34 1361.1 169.62 1352.38C160.899 1343.66 156 1331.83 156 1319.5C156 1307.17 160.899 1295.34 169.62 1286.62C178.34 1277.9 190.167 1273 202.5 1273H281.5C293.833 1273 305.66 1277.9 314.38 1286.62C323.101 1295.34 328 1307.17 328 1319.5C328 1331.83 323.101 1343.66 314.38 1352.38C305.66 1361.1 293.833 1366 281.5 1366V1366ZM202.5 1279C191.759 1279 181.457 1283.27 173.862 1290.86C166.267 1298.46 162 1308.76 162 1319.5C162 1330.24 166.267 1340.54 173.862 1348.14C181.457 1355.73 191.759 1360 202.5 1360H281.5C292.241 1360 302.543 1355.73 310.138 1348.14C317.733 1340.54 322 1330.24 322 1319.5C322 1308.76 317.733 1298.46 310.138 1290.86C302.543 1283.27 292.241 1279 281.5 1279H202.5Z" fill="black"/></g><g id="Rectangle-Copy-11"><path id="Vector_25" d="M202.5 1273H281.5C293.833 1273 305.66 1277.9 314.38 1286.62C323.101 1295.34 328 1307.17 328 1319.5C328 1331.83 323.101 1343.66 314.38 1352.38C305.66 1361.1 293.833 1366 281.5 1366H202.5C190.167 1366 178.34 1361.1 169.62 1352.38C160.899 1343.66 156 1331.83 156 1319.5C156 1307.17 160.899 1295.34 169.62 1286.62C178.34 1277.9 190.167 1273 202.5 1273V1273ZM281.5 1279H202.5C191.759 1279 181.457 1283.27 173.862 1290.86C166.267 1298.46 162 1308.76 162 1319.5C162 1330.24 166.267 1340.54 173.862 1348.14C181.457 1355.73 191.759 1360 202.5 1360H281.5C292.241 1360 302.543 1355.73 310.138 1348.14C317.733 1340.54 322 1330.24 322 1319.5C322 1308.76 317.733 1298.46 310.138 1290.86C302.543 1283.27 292.241 1279 281.5 1279V1279Z" fill="black"/></g><g id="Combined-Shape_3"><path id="Vector_26" fill-rule="evenodd" clip-rule="evenodd" d="M242 1276V1363H281.5C293.037 1363 304.101 1358.42 312.259 1350.26C320.417 1342.1 325 1331.04 325 1319.5C325 1307.96 320.417 1296.9 312.259 1288.74C304.101 1280.58 293.037 1276 281.5 1276H242Z" fill="black"/></g></g><g id="Medicine-2"><g id="Rectangle-Copy-62"><path id="Vector_27" d="M407.5 1069H313.5V1118H407.5V1069Z" fill="white"/><path id="Vector_28" d="M410.5 1121H310.5V1066H410.5V1121ZM316.5 1115H404.5V1072H316.5V1115Z" fill="black"/></g><g id="Rectangle-Copy-64"><path id="Vector_29" d="M407.5 1069H313.5V1118H407.5V1069Z" fill="white"/></g><g id="Rectangle-Copy-65"><path id="Vector_30" d="M410.5 1066H310.5V1121H410.5V1066ZM404.5 1072V1115H316.5V1072H404.5Z" fill="black"/></g><g id="Rectangle-Copy-63"><path id="Vector_31" d="M390 1098.5H331C307.804 1098.5 289 1117.3 289 1140.5V1319.5C289 1342.7 307.804 1361.5 331 1361.5H390C413.196 1361.5 432 1342.7 432 1319.5V1140.5C432 1117.3 413.196 1098.5 390 1098.5Z" fill="white"/><path id="Vector_32" d="M390 1363H331C319.466 1362.99 308.408 1358.4 300.253 1350.25C292.097 1342.09 287.511 1331.03 287.5 1319.5V1140.5C287.511 1128.97 292.097 1117.91 300.253 1109.75C308.408 1101.6 319.466 1097.01 331 1097H390C401.534 1097.01 412.592 1101.6 420.747 1109.75C428.903 1117.91 433.489 1128.97 433.5 1140.5V1319.5C433.489 1331.03 428.903 1342.09 420.747 1350.25C412.592 1358.4 401.534 1362.99 390 1363V1363ZM331 1100C320.263 1100.01 309.969 1104.28 302.377 1111.88C294.784 1119.47 290.513 1129.76 290.5 1140.5V1319.5C290.513 1330.24 294.784 1340.53 302.377 1348.12C309.969 1355.72 320.263 1359.99 331 1360H390C400.737 1359.99 411.031 1355.72 418.623 1348.12C426.216 1340.53 430.487 1330.24 430.5 1319.5V1140.5C430.487 1129.76 426.216 1119.47 418.623 1111.88C411.031 1104.28 400.737 1100.01 390 1100H331Z" fill="black"/></g><g id="Rectangle-Copy-71"><path id="Vector_33" d="M391.5 1097C402.639 1097 413.322 1101.42 421.198 1109.3C429.075 1117.18 433.5 1127.86 433.5 1139V1321C433.5 1326.52 432.414 1331.98 430.303 1337.07C428.192 1342.17 425.099 1346.8 421.198 1350.7C417.298 1354.6 412.668 1357.69 407.573 1359.8C402.477 1361.91 397.016 1363 391.5 1363H329.5C323.984 1363 318.523 1361.91 313.427 1359.8C308.332 1357.69 303.702 1354.6 299.802 1350.7C295.901 1346.8 292.808 1342.17 290.697 1337.07C288.586 1331.98 287.5 1326.52 287.5 1321V1139C287.5 1127.86 291.925 1117.18 299.802 1109.3C307.678 1101.42 318.361 1097 329.5 1097H391.5ZM391.5 1103H329.5C320.055 1103 310.988 1106.71 304.254 1113.33C297.52 1119.95 293.657 1128.96 293.5 1138.4V1321C293.499 1330.44 297.209 1339.51 303.831 1346.25C310.453 1352.98 319.457 1356.84 328.9 1357H391.5C400.945 1357 410.012 1353.29 416.746 1346.67C423.48 1340.05 427.343 1331.04 427.5 1321.6V1139C427.501 1129.56 423.791 1120.49 417.169 1113.75C410.547 1107.02 401.543 1103.16 392.1 1103H391.5Z" fill="black"/></g><g id="Rectangle-Copy-66"><path id="Vector_34" d="M433.5 1042H287.5V1082H433.5V1042Z" fill="white"/><path id="Vector_35" d="M436.5 1085H284.5V1039H436.5V1085ZM290.5 1079H430.5V1045H290.5V1079Z" fill="black"/></g><g id="Rectangle-Copy-70"><path id="Vector_36" d="M436.5 1039H284.5V1085H436.5V1039ZM430.5 1045V1079H290.5V1045H430.5Z" fill="black"/></g><g id="Rectangle-Copy-67"><path id="Vector_37" d="M431.5 1168H289.5V1310H431.5V1168Z" fill="white"/></g><g id="Rectangle-Copy-72"><path id="Vector_38" d="M434.5 1165H286.5V1313H434.5V1165ZM428.5 1171V1307H292.5V1171H428.5Z" fill="black"/></g><g id="Rectangle-Copy-69"><path id="Vector_39" d="M433 1166.5H288V1311.5H433V1166.5ZM430 1169.5V1308.5H291V1169.5H430Z" fill="black"/></g></g></g></g></g><g id="Master/Character/Standing" transform="translate(-84 0) scale(1 1)"><g id="Master/Character/Standing"><g id="Lower Body" transform="translate(-104 695) scale(1 1)"><g id="Lower Body/Dotted Shorts"><g id="blue"><g id="leg"><path id="Fill 1" fill-rule="evenodd" clip-rule="evenodd" d="M732.281 787.602H819.978V272.84H732.281V787.602Z" fill="white"/><path id="Fill 2" fill-rule="evenodd" clip-rule="evenodd" d="M730.281 789.602H821.978V270.858H730.281V789.602ZM734.281 785.602H817.978V274.82H734.281V785.602Z" fill="black"/><g id="shoe"><path id="Fill 3" fill-rule="evenodd" clip-rule="evenodd" d="M788.433 879.336C789.452 854.272 751.743 854.284 752.767 879.336H732.281V671.982H820.015C819.978 697.788 820.042 804.086 820.015 831.936C819.992 833.08 821.056 834.041 822.19 833.935C843.281 833.062 872.886 849.28 871.646 879.336H788.433Z" fill="white"/><path id="Fill 5" fill-rule="evenodd" clip-rule="evenodd" d="M822.015 670.002V831.935C825.489 831.951 873.594 832.642 873.674 881.336H786.148C790.041 856.318 751.154 856.333 755.052 881.336H730.281V670.002H822.015ZM818.015 673.964H734.281V877.336H750.742C751.727 852.366 789.478 852.38 790.459 877.336H869.554C869.895 849.625 841.233 835.066 822.188 835.936C819.983 836.064 817.971 834.152 818.015 831.935C818.016 804.874 818.015 699.032 818.015 673.964V673.964Z" fill="black"/><path id="Fill 7" fill-rule="evenodd" clip-rule="evenodd" d="M732.205 861.25H867.328V857.25H732.205V861.25Z" fill="black"/><path id="Fill 9" fill-rule="evenodd" clip-rule="evenodd" d="M821.969 801.354C809.635 801.298 803.183 791.691 803.184 782.231C803.185 772.769 809.638 763.162 821.969 763.108L821.987 767.108C811.817 767.152 807.184 774.979 807.184 782.231C807.183 789.482 811.815 797.308 821.988 797.354L821.969 801.354Z" fill="black"/><path id="Fill 10" fill-rule="evenodd" clip-rule="evenodd" d="M732.205 861.25H867.328V857.25H732.205V861.25Z" fill="black"/></g></g><g id="pants"><path id="Fill 11" fill-rule="evenodd" clip-rule="evenodd" d="M869.391 313.456H692.014L712.014 135.561C712.014 97.9903 742.767 67.5323 780.703 67.5323C818.638 67.5323 849.391 97.9903 849.391 135.561L869.391 313.456Z" fill="#ff2a67"/><g id="Group 4"><path id="Fill 12" fill-rule="evenodd" clip-rule="evenodd" d="M763.652 113.566C757.621 114.234 756.693 104.83 762.754 104.336C768.784 103.669 769.713 113.073 763.652 113.566" fill="black"/><path id="Fill 13" fill-rule="evenodd" clip-rule="evenodd" d="M828.029 113.566C821.998 114.234 821.07 104.83 827.131 104.336C833.161 103.669 834.09 113.073 828.029 113.566" fill="black"/><path id="Fill 14" fill-rule="evenodd" clip-rule="evenodd" d="M734.275 156.131C728.244 156.798 727.316 147.395 733.376 146.901C739.407 146.234 740.336 155.638 734.275 156.131" fill="black"/><path id="Fill 15" fill-rule="evenodd" clip-rule="evenodd" d="M798.652 156.131C792.621 156.798 791.693 147.395 797.754 146.901C803.784 146.234 804.713 155.638 798.652 156.131" fill="black"/><path id="Fill 16" fill-rule="evenodd" clip-rule="evenodd" d="M763.652 198.697C757.621 199.365 756.693 189.961 762.754 189.467C768.785 188.799 769.713 198.204 763.652 198.697" fill="black"/><path id="Fill 17" fill-rule="evenodd" clip-rule="evenodd" d="M828.029 198.697C821.998 199.365 821.07 189.961 827.131 189.467C833.161 188.799 834.09 198.204 828.029 198.697" fill="black"/><path id="Fill 18" fill-rule="evenodd" clip-rule="evenodd" d="M734.275 241.262C728.244 241.93 727.316 232.526 733.376 232.032C739.407 231.365 740.336 240.769 734.275 241.262" fill="black"/><path id="Fill 19" fill-rule="evenodd" clip-rule="evenodd" d="M798.652 241.262C792.621 241.93 791.693 232.526 797.754 232.032C803.785 231.365 804.713 240.769 798.652 241.262" fill="black"/><path id="Fill 20" fill-rule="evenodd" clip-rule="evenodd" d="M763.652 283.827C757.621 284.495 756.693 275.091 762.754 274.597C768.785 273.93 769.713 283.334 763.652 283.827" fill="black"/><path id="Fill 21" fill-rule="evenodd" clip-rule="evenodd" d="M828.029 283.827C821.998 284.495 821.07 275.091 827.131 274.597C833.161 273.93 834.09 283.334 828.029 283.827" fill="black"/></g></g></g><g id="black"><g id="leg_2"><path id="Fill 23" fill-rule="evenodd" clip-rule="evenodd" d="M607.697 787.602H695.394V272.84H607.697V787.602Z" fill="white"/><path id="Fill 24" fill-rule="evenodd" clip-rule="evenodd" d="M605.697 789.602H697.394V270.858H605.697V789.602ZM609.697 785.602H693.394V274.82H609.697V785.602Z" fill="black"/><g id="shoe_2"><path id="Fill 26" fill-rule="evenodd" clip-rule="evenodd" d="M639.241 879.336C638.222 854.272 675.931 854.284 674.907 879.336H695.393V671.982H607.659C607.696 697.788 607.632 804.086 607.659 831.936C607.682 833.08 606.618 834.041 605.484 833.935C584.393 833.062 554.788 849.28 556.028 879.336H639.241Z" fill="white"/><path id="Fill 27" fill-rule="evenodd" clip-rule="evenodd" d="M605.659 670.002V831.935C602.185 831.951 554.081 832.642 554 881.336H641.526C637.634 856.318 676.52 856.333 672.622 881.336H697.393V670.002H605.659ZM609.659 673.964H693.393V877.336H676.932C675.947 852.366 638.196 852.38 637.215 877.336H558.12C557.779 849.625 586.442 835.065 605.486 835.936C607.692 836.064 609.704 834.152 609.659 831.935C609.659 804.874 609.659 699.032 609.659 673.964V673.964Z" fill="black"/><path id="Fill 28" fill-rule="evenodd" clip-rule="evenodd" d="M560.348 861.25H695.471V857.25H560.348V861.25Z" fill="black"/><path id="Fill 29" fill-rule="evenodd" clip-rule="evenodd" d="M605.706 801.354L605.688 797.354C615.861 797.308 620.492 789.482 620.491 782.231C620.49 774.979 615.857 767.152 605.689 767.108L605.706 763.108C618.038 763.162 624.491 772.769 624.492 782.231C624.493 791.691 618.04 801.298 605.706 801.354" fill="black"/></g></g><g id="pants_2"><path id="Fill 22" fill-rule="evenodd" clip-rule="evenodd" d="M576.957 111.038C577.415 -37.0221 842.538 -37.0071 842.969 111.046C842.512 259.098 577.389 259.083 576.957 111.038" fill="black"/><path id="Fill 25" fill-rule="evenodd" clip-rule="evenodd" d="M558.283 312.456H735.66L715.66 134.561C715.66 96.9903 684.907 66.5323 646.971 66.5323C609.036 66.5323 578.283 96.9903 578.283 134.561L558.283 312.456Z" fill="black"/></g></g></g></g><g id="Upper Body" transform="translate(-53 129) scale(1 1)"><g id="Upper Body/Holding Document"><g id="left"><g id="Group 2"><path id="Fill 1" fill-rule="evenodd" clip-rule="evenodd" d="M1067.19 244.801C956.308 253.648 975.118 222.591 974.214 336.867L1068.63 338.303C1069.09 306.792 1068.47 275.69 1067.19 244.801" fill="white"/><path id="Fill 3" fill-rule="evenodd" clip-rule="evenodd" d="M976.224 334.897L1066.66 336.272C1067.03 308.343 1066.57 279.081 1065.27 246.956C1042.57 248.692 1025.24 248.762 1012.49 248.813C994.42 248.886 984.464 248.926 979.977 253.532C974.998 258.641 975.264 270.705 975.794 294.74C976.03 305.465 976.322 318.711 976.224 334.897M1068.63 340.303C1068.62 340.303 1068.61 340.303 1068.6 340.302L974.18 338.866C973.081 338.85 972.202 337.949 972.21 336.851C972.345 319.819 972.04 305.962 971.795 294.828C971.223 268.89 970.962 257.052 977.112 250.74C982.77 244.933 992.698 244.893 1012.48 244.813C1025.55 244.76 1043.45 244.688 1067.03 242.807C1067.57 242.763 1068.1 242.943 1068.51 243.303C1068.92 243.664 1069.16 244.174 1069.18 244.718C1070.59 278.504 1071.06 309.126 1070.63 338.332C1070.62 338.863 1070.4 339.368 1070.02 339.738C1069.65 340.1 1069.15 340.303 1068.63 340.303" fill="black"/><path id="Fill 5" fill-rule="evenodd" clip-rule="evenodd" d="M996.664 253.417C996.088 238.756 995.36 224.094 994.523 209.433C993.333 191.028 969.95 192.484 970.957 210.806C971.988 228.607 972.825 246.392 973.417 264.14" fill="white"/><path id="Fill 7" fill-rule="evenodd" clip-rule="evenodd" d="M973.416 266.141C972.342 266.141 971.454 265.289 971.418 264.208C970.853 247.244 970.026 229.317 968.96 210.922C968.392 200.579 974.99 194.758 981.802 194.351C990.795 193.821 996.013 201.467 996.52 209.305C997.414 224.978 998.114 239.377 998.663 253.339C998.706 254.443 997.846 255.373 996.743 255.416C995.631 255.457 994.709 254.6 994.666 253.496C994.119 239.558 993.419 225.182 992.527 209.548C992.004 201.455 986.722 198.068 982.041 198.344C977.353 198.624 972.51 202.61 972.954 210.697C974.021 229.118 974.849 247.079 975.416 264.074C975.453 265.178 974.588 266.103 973.484 266.14C973.461 266.141 973.438 266.141 973.416 266.141" fill="black"/><path id="Fill 9" fill-rule="evenodd" clip-rule="evenodd" d="M996.665 253.417C996.089 238.756 995.361 224.094 994.524 209.433C994.05 201.654 998.933 195.007 1005.44 194.586C1011.94 194.165 1017.61 200.197 1018.09 208.061C1018.94 222.864 1019.67 237.679 1020.25 252.51" fill="white"/><path id="Fill 11" fill-rule="evenodd" clip-rule="evenodd" d="M996.663 255.417C995.595 255.417 994.708 254.573 994.666 253.495C994.119 239.557 993.419 225.181 992.527 209.547C991.987 200.692 997.72 193.082 1005.31 192.59C1008.58 192.379 1011.83 193.541 1014.47 195.865C1017.75 198.756 1019.8 203.157 1020.09 207.939C1020.99 223.77 1021.7 238.321 1022.25 252.432C1022.3 253.536 1021.44 254.465 1020.33 254.509C1019.23 254.542 1018.3 253.693 1018.26 252.589C1017.7 238.502 1017 223.974 1016.09 208.175C1015.87 204.454 1014.31 201.058 1011.82 198.866C1009.97 197.227 1007.8 196.437 1005.57 196.582C1000.17 196.931 996.113 202.642 996.52 209.311C997.414 224.977 998.115 239.376 998.663 253.339C998.706 254.442 997.847 255.372 996.743 255.416C996.716 255.417 996.689 255.417 996.663 255.417" fill="black"/><path id="Fill 13" fill-rule="evenodd" clip-rule="evenodd" d="M1020.25 252.511C1019.67 237.679 1018.94 222.865 1018.09 208.062C1017.61 200.211 1022.49 193.506 1029 193.084C1035.5 192.663 1041.17 198.754 1041.66 206.689C1042.51 221.634 1043.25 236.602 1043.84 251.604" fill="white"/><path id="Fill 15" fill-rule="evenodd" clip-rule="evenodd" d="M1020.25 254.511C1019.18 254.511 1018.3 253.667 1018.26 252.589C1017.7 238.502 1017 223.975 1016.09 208.176C1015.55 199.249 1021.28 191.581 1028.87 191.088C1032.12 190.879 1035.36 192.039 1037.99 194.356C1041.29 197.271 1043.36 201.722 1043.65 206.568C1044.57 222.566 1045.28 237.269 1045.84 251.526C1045.88 252.63 1045.03 253.559 1043.92 253.603C1042.81 253.642 1041.89 252.786 1041.84 251.683C1041.29 237.45 1040.57 222.77 1039.66 206.803C1039.43 203.019 1037.86 199.573 1035.34 197.356C1033.49 195.724 1031.34 194.939 1029.13 195.08C1023.73 195.43 1019.68 201.199 1020.09 207.94C1020.99 223.771 1021.7 238.322 1022.25 252.433C1022.3 253.536 1021.44 254.466 1020.33 254.51C1020.31 254.511 1020.28 254.511 1020.25 254.511" fill="black"/><path id="Fill 17" fill-rule="evenodd" clip-rule="evenodd" d="M984.485 335.062C954.696 336.602 946.727 324.227 948.767 296.084C946.983 276.52 949.005 256.444 973.318 254.314C976.892 261.242 980.497 268.209 983.999 275.204" fill="white"/><path id="Fill 19" fill-rule="evenodd" clip-rule="evenodd" d="M974.213 336.867C963.771 336.708 950.378 336.349 950.378 336.349C950.788 325.312 950.797 307.514 950.594 296.057C948.933 277.616 950.488 256.156 973.076 254.325C973.318 261.379 973.591 268.438 973.76 275.482" fill="white"/><path id="Fill 21" fill-rule="evenodd" clip-rule="evenodd" d="M974.214 338.867C974.204 338.867 974.193 338.867 974.183 338.867C963.849 338.709 950.459 338.352 950.325 338.349C949.791 338.335 949.285 338.107 948.92 337.718C948.554 337.328 948.36 336.809 948.38 336.275C948.787 325.321 948.795 307.455 948.596 296.165C947.633 285.425 947.288 270.094 955.247 260.646C959.375 255.744 965.32 252.947 972.915 252.331C973.459 252.286 973.999 252.468 974.407 252.831C974.815 253.195 975.056 253.71 975.075 254.256L975.244 259.086C975.433 264.445 975.629 269.987 975.76 275.434C975.786 276.538 974.912 277.455 973.808 277.481C972.702 277.505 971.787 276.634 971.761 275.53C971.631 270.106 971.435 264.575 971.246 259.227L971.153 256.553C965.61 257.364 961.394 259.557 958.306 263.222C951.292 271.549 951.683 285.847 952.587 295.878C952.591 295.926 952.593 295.974 952.594 296.022C952.783 306.694 952.788 323.277 952.445 334.402C956.583 334.508 966.317 334.746 974.244 334.867C975.348 334.884 976.23 335.793 976.213 336.898C976.196 337.992 975.304 338.867 974.214 338.867" fill="black"/><path id="Fill 23" fill-rule="evenodd" clip-rule="evenodd" d="M973.836 278.297C973.643 270.374 973.365 262.438 973.083 254.502C972.265 236.307 948.857 237.336 949.493 255.407C950.162 272.955 950.598 290.444 950.727 307.825" fill="white"/><path id="Fill 25" fill-rule="evenodd" clip-rule="evenodd" d="M950.726 309.825C949.628 309.825 948.735 308.939 948.726 307.84C948.605 291.341 948.19 273.725 947.494 255.483C947.134 245.254 953.852 239.629 960.675 239.356C969.67 238.991 974.732 246.657 975.08 254.412C975.382 262.885 975.647 270.512 975.835 278.249C975.862 279.353 974.989 280.27 973.884 280.297C972.773 280.313 971.863 279.45 971.836 278.346C971.648 270.631 971.384 263.015 971.084 254.573C970.725 246.602 965.517 243.159 960.835 243.353C956.138 243.541 951.211 247.371 951.491 255.336C952.189 273.614 952.604 291.27 952.726 307.81C952.734 308.915 951.846 309.817 950.741 309.825H950.726Z" fill="black"/><path id="Fill 27" fill-rule="evenodd" clip-rule="evenodd" d="M1043.84 251.604C1045.46 237.979 1034.35 204.345 1053.18 201.749C1072.53 202.306 1064.78 237.175 1067.43 250.698" fill="white"/><path id="Fill 29" fill-rule="evenodd" clip-rule="evenodd" d="M1043.84 253.604C1043.77 253.604 1043.69 253.599 1043.61 253.59C1042.51 253.459 1041.73 252.465 1041.86 251.368C1042.29 247.706 1041.72 242.246 1041.12 236.466C1039.52 221.061 1037.53 201.888 1052.91 199.768C1053.02 199.753 1053.13 199.747 1053.24 199.75C1069.22 200.21 1069 219.966 1068.82 235.839C1068.76 241.469 1068.7 246.787 1069.39 250.312C1069.61 251.396 1068.9 252.448 1067.82 252.66C1066.73 252.871 1065.68 252.166 1065.47 251.083C1064.7 247.154 1064.76 241.636 1064.82 235.795C1065.02 217.924 1064.29 204.208 1053.29 203.754C1042.76 205.343 1043.3 218.73 1045.1 236.053C1045.73 242.061 1046.32 247.735 1045.83 251.84C1045.71 252.856 1044.84 253.604 1043.84 253.604" fill="black"/></g><g id="Group"><path id="Fill 63" fill-rule="evenodd" clip-rule="evenodd" d="M968.477 295.511H1080.73V111H968.477V295.511Z" fill="white"/><path id="Fill 64" fill-rule="evenodd" clip-rule="evenodd" d="M970.477 293.511H1078.73V113H970.477V293.511ZM966.477 297.511H1082.73V109H966.477V297.511Z" fill="black"/><path id="Fill 66" fill-rule="evenodd" clip-rule="evenodd" d="M988.32 144.861H1060.89V140.861H988.32V144.861Z" fill="black"/><path id="Fill 68" fill-rule="evenodd" clip-rule="evenodd" d="M988.32 161.869H1060.89V157.869H988.32V161.869Z" fill="black"/><path id="Fill 70" fill-rule="evenodd" clip-rule="evenodd" d="M988.32 178.877H1060.89V174.877H988.32V178.877Z" fill="black"/><path id="Fill 72" fill-rule="evenodd" clip-rule="evenodd" d="M988.32 195.885H1060.89V191.885H988.32V195.885Z" fill="black"/><path id="Fill 74" fill-rule="evenodd" clip-rule="evenodd" d="M988.32 212.893H1060.89V208.893H988.32V212.893Z" fill="black"/><path id="Fill 76" fill-rule="evenodd" clip-rule="evenodd" d="M988.32 229.901H1060.89V225.901H988.32V229.901Z" fill="black"/><path id="Fill 78" fill-rule="evenodd" clip-rule="evenodd" d="M988.32 246.909H1060.89V242.909H988.32V246.909Z" fill="black"/><path id="Fill 80" fill-rule="evenodd" clip-rule="evenodd" d="M988.32 263.916H1060.89V259.916H988.32V263.916Z" fill="black"/></g><path id="Fill 31" fill-rule="evenodd" clip-rule="evenodd" d="M938.279 334.436C937.172 380.431 935.798 425.721 922.937 468.879C891.883 443.895 832.597 346.529 757.178 346.183C681.76 345.838 716.927 442.624 728.458 459.118C747.748 486.614 767.825 512.788 791.032 537.916C831.164 581.352 886.156 625.853 949.079 617.739C1072.34 597.116 1076.15 434.417 1079.22 336.348L938.279 334.436Z" fill="black"/></g><g id="torso"><path id="Fill 33" fill-rule="evenodd" clip-rule="evenodd" d="M809.85 691.074H514.111C504.448 691.074 496.277 683.92 495 674.341L510.307 406.597C506.03 374.515 520.989 346.009 553.354 346.009H756.779C798.71 346.32 831.762 383.845 828.304 425.569L828.395 670.717C829.415 681.64 820.821 691.074 809.85 691.074Z" fill="#ff2a67"/><path id="Fill 35" fill-rule="evenodd" clip-rule="evenodd" d="M741.335 346.008C717.12 244.035 537.081 316.125 653.996 401.242C656.094 402.948 659.142 402.782 661.056 400.869L674.921 387.003L688.741 373.183C695.359 379.614 708.968 392.829 715.63 399.304C725.825 409.815 742.156 358.983 741.335 346.008" fill="#ff2a67"/><path id="Fill 37" fill-rule="evenodd" clip-rule="evenodd" d="M683.697 408.17L669.496 393.97L689.252 374.214L709.007 393.97L694.767 408.21L708.637 450.278L741.337 346.008H615.234L678.196 450.999C678.213 450.925 683.664 408.234 683.697 408.17" fill="#ff2a67"/><path id="Fill 39" fill-rule="evenodd" clip-rule="evenodd" d="M711.383 577.757L694.766 408.21L709.007 393.97L689.251 374.215L669.496 393.97L683.696 408.17C683.675 408.152 660.951 578.464 660.941 578.478C690.532 614.533 684.489 620.622 711.383 577.757" fill="black"/><path id="Fill 41" fill-rule="evenodd" clip-rule="evenodd" d="M658.323 403.351C656.558 403.351 654.459 402.709 652.034 401.431C636.906 393.459 611.333 361.749 613.75 345.784C613.874 344.965 614.639 344.402 615.457 344.525C616.277 344.649 616.84 345.414 616.716 346.233C615.75 352.613 620.288 363.372 628.856 375.013C636.632 385.578 646.509 395.128 653.432 398.777C655.263 399.741 658.555 401.154 660.033 399.774C663.811 395.99 669.771 390.031 675.503 384.301L687.681 372.122C688.261 371.542 689.2 371.535 689.788 372.107L716.677 398.228C717.677 399.258 718.581 399.466 719.734 398.956C728.404 395.119 740.568 357.625 739.839 346.103C739.787 345.276 740.414 344.564 741.241 344.511C742.068 344.461 742.781 345.087 742.833 345.913C743.573 357.605 731.372 397.087 720.948 401.7C718.655 402.715 716.384 402.235 714.555 400.348L688.758 375.289L677.624 386.423C671.893 392.152 665.933 398.111 662.118 401.931C661.103 402.879 659.836 403.351 658.323 403.351" fill="black"/><path id="Fill 43" fill-rule="evenodd" clip-rule="evenodd" d="M723.898 443.312C724.245 452.654 723.987 461.008 723.758 468.425C723.255 484.729 722.891 496.51 729.708 503.077C736.305 509.433 749.668 511.425 774.389 509.738L774.466 509.735C780.928 509.624 785.785 507.738 789.314 503.969C797.807 494.898 796.919 476.724 796.136 460.69C795.824 454.292 795.527 448.211 795.897 443.312H723.898ZM759.621 513.299C743.218 513.299 733.334 510.736 727.627 505.238C719.851 497.747 720.232 485.409 720.76 468.333C721 460.556 721.272 451.742 720.837 441.878L720.768 440.312H799.23L799.036 441.985C798.466 446.891 798.79 453.522 799.133 460.543C799.945 477.173 800.865 496.021 791.504 506.019C787.455 510.344 781.753 512.603 774.556 512.733C769.061 513.108 764.097 513.299 759.621 513.299V513.299Z" fill="black"/><path id="Fill 45" fill-rule="evenodd" clip-rule="evenodd" d="M686.66 691.073H689.66V608.967H686.66V691.073Z" fill="black"/></g><g id="right"><g id="Group 3"><path id="Fill 47" fill-rule="evenodd" clip-rule="evenodd" d="M817.426 613.911C768.445 514.042 804.244 520.123 697.633 561.281L730.998 649.617C760.474 638.468 789.17 626.456 817.426 613.911" fill="white"/><path id="Fill 48" fill-rule="evenodd" clip-rule="evenodd" d="M700.205 562.429L732.162 647.036C758.278 637.115 785.326 625.939 814.719 612.923C804.76 592.445 798.328 576.361 793.594 564.521C786.884 547.74 783.187 538.496 777.255 536.015C770.674 533.264 759.552 537.944 737.396 547.269C727.507 551.431 715.295 556.571 700.205 562.429M730.998 651.616C730.717 651.616 730.437 651.557 730.175 651.439C729.692 651.22 729.315 650.819 729.127 650.323L695.762 561.987C695.374 560.959 695.888 559.81 696.913 559.414C712.803 553.28 725.579 547.903 735.844 543.583C759.755 533.519 770.668 528.927 778.798 532.325C786.278 535.452 789.964 544.671 797.308 563.036C802.161 575.173 808.808 591.796 819.222 613.03C819.462 613.518 819.492 614.082 819.306 614.593C819.121 615.104 818.735 615.518 818.238 615.738C787.337 629.458 759.032 641.151 731.706 651.487C731.478 651.573 731.238 651.616 730.998 651.616" fill="black"/><path id="Fill 49" fill-rule="evenodd" clip-rule="evenodd" d="M783.494 551.491C796.917 545.568 810.285 539.501 823.613 533.335C840.293 525.464 830.343 504.252 813.674 511.922C797.498 519.424 781.266 526.739 764.977 533.812" fill="white"/><path id="Fill 50" fill-rule="evenodd" clip-rule="evenodd" d="M783.495 553.492C782.727 553.492 781.994 553.047 781.664 552.299C781.218 551.288 781.676 550.108 782.686 549.662C795.441 544.033 808.554 538.099 822.773 531.52C830.107 528.059 831.32 521.903 829.339 517.651C827.355 513.394 821.868 510.354 814.51 513.739C797.781 521.498 781.382 528.869 765.774 535.647C764.761 536.086 763.583 535.623 763.143 534.609C762.703 533.596 763.167 532.418 764.181 531.978C779.758 525.213 796.127 517.855 812.833 510.108C822.243 505.779 830.082 509.776 832.964 515.961C836.769 524.127 831.57 531.792 824.467 535.144C810.211 541.74 797.078 547.683 784.301 553.321C784.039 553.437 783.765 553.492 783.495 553.492" fill="black"/><path id="Fill 51" fill-rule="evenodd" clip-rule="evenodd" d="M783.496 551.491C796.919 545.568 810.287 539.501 823.615 533.335C830.675 530.035 838.652 532.133 841.434 538.029C844.217 543.924 840.69 551.412 833.553 554.748C820.096 560.974 806.588 567.104 793.009 573.096" fill="white"/><path id="Fill 52" fill-rule="evenodd" clip-rule="evenodd" d="M793.011 575.097C792.243 575.097 791.51 574.652 791.18 573.904C790.734 572.893 791.192 571.713 792.202 571.267C805.09 565.58 818.342 559.583 832.714 552.934C836.09 551.355 838.676 548.66 839.802 545.541C840.643 543.21 840.582 540.908 839.627 538.883C837.319 533.993 830.516 532.317 824.463 535.147C810.214 541.74 797.081 547.683 784.304 553.321C783.294 553.767 782.113 553.309 781.667 552.299C781.221 551.288 781.679 550.108 782.689 549.662C795.444 544.033 808.556 538.099 822.776 531.52C830.813 527.763 839.998 530.299 843.244 537.176C844.643 540.14 844.757 543.594 843.564 546.899C842.081 551.011 838.741 554.532 834.4 556.561C820 563.223 806.727 569.23 793.817 574.926C793.555 575.042 793.281 575.097 793.011 575.097" fill="black"/><path id="Fill 53" fill-rule="evenodd" clip-rule="evenodd" d="M793.008 573.096C806.587 567.104 820.095 560.974 833.551 554.748C840.677 551.418 848.706 553.492 851.489 559.387C854.271 565.281 850.692 572.795 843.489 576.161C829.904 582.447 816.257 588.64 802.521 594.701" fill="white"/><path id="Fill 54" fill-rule="evenodd" clip-rule="evenodd" d="M802.522 596.702C801.754 596.702 801.021 596.257 800.691 595.509C800.245 594.498 800.703 593.318 801.714 592.872C814.75 587.119 828.141 581.059 842.649 574.346C846.084 572.741 848.71 570.01 849.848 566.858C850.686 564.536 850.628 562.248 849.681 560.241C847.372 555.352 840.517 553.701 834.399 556.56C819.998 563.223 806.725 569.229 793.816 574.926C792.805 575.371 791.624 574.914 791.178 573.903C790.733 572.893 791.19 571.712 792.201 571.266C805.089 565.579 818.34 559.582 832.712 552.933C840.814 549.147 850.052 551.657 853.298 558.533C854.689 561.481 854.8 564.919 853.611 568.215C852.115 572.361 848.734 575.918 844.336 577.973C829.798 584.7 816.387 590.769 803.328 596.531C803.066 596.647 802.792 596.702 802.522 596.702" fill="black"/><path id="Fill 55" fill-rule="evenodd" clip-rule="evenodd" d="M703.089 570.171C690.709 543.033 699.289 531.072 726.212 522.627C743.752 513.778 763.165 508.28 774.082 530.108C768.951 535.978 763.797 541.892 758.579 547.719" fill="white"/><path id="Fill 56" fill-rule="evenodd" clip-rule="evenodd" d="M697.633 561.281C693.944 551.511 689.355 538.924 689.355 538.924C699.753 535.248 716.339 528.717 726.906 524.317C743.439 515.995 763.979 509.552 773.981 529.886C767.509 532.705 761.044 535.553 754.556 538.299" fill="white"/><path id="Fill 57" fill-rule="evenodd" clip-rule="evenodd" d="M697.634 563.281C696.826 563.281 696.065 562.788 695.763 561.987C692.112 552.318 687.522 539.735 687.476 539.609C687.293 539.107 687.319 538.553 687.546 538.071C687.774 537.588 688.185 537.216 688.689 537.038C699.269 533.297 715.826 526.762 726.072 522.497C735.705 517.654 749.834 511.698 761.551 515.629C767.628 517.667 772.414 522.167 775.776 529.003C776.018 529.494 776.048 530.062 775.86 530.574C775.671 531.088 775.281 531.501 774.78 531.72L770.354 533.651C765.438 535.797 760.355 538.017 755.336 540.14C754.319 540.571 753.145 540.095 752.715 539.078C752.284 538.061 752.76 536.887 753.777 536.457C758.775 534.342 763.848 532.127 768.753 529.985L771.203 528.916C768.412 524.06 764.824 520.946 760.279 519.421C752.42 516.785 742.101 518.908 727.806 526.103C727.763 526.124 727.72 526.144 727.675 526.162C717.979 530.2 702.596 536.284 691.926 540.129C693.348 544.016 696.704 553.157 699.505 560.574C699.895 561.607 699.374 562.761 698.34 563.152C698.108 563.239 697.869 563.281 697.634 563.281" fill="black"/><path id="Fill 58" fill-rule="evenodd" clip-rule="evenodd" d="M751.967 539.405C759.264 536.314 766.543 533.139 773.821 529.959C790.442 522.511 780.88 501.12 764.309 508.353C748.235 515.425 732.13 522.258 716.012 528.765" fill="white"/><path id="Fill 59" fill-rule="evenodd" clip-rule="evenodd" d="M751.968 541.405C751.189 541.405 750.448 540.947 750.125 540.185C749.695 539.167 750.17 537.994 751.187 537.563C758.306 534.548 765.286 531.505 773.02 528.125C780.301 524.863 781.585 518.759 779.688 514.471C777.787 510.172 772.413 506.997 765.109 510.186C748.364 517.552 732.096 524.428 716.761 530.619C715.737 531.033 714.572 530.538 714.158 529.514C713.744 528.489 714.239 527.324 715.264 526.91C730.56 520.734 746.791 513.875 763.503 506.522C772.884 502.427 780.585 506.608 783.346 512.853C786.988 521.087 781.722 528.609 774.638 531.783C766.877 535.175 759.885 538.223 752.747 541.246C752.493 541.354 752.228 541.405 751.968 541.405" fill="black"/><path id="Fill 60" fill-rule="evenodd" clip-rule="evenodd" d="M802.52 594.702C815.787 591.199 842.984 568.507 852.317 585.063C859.072 603.049 823.548 608.986 812.033 616.307" fill="white"/><path id="Fill 61" fill-rule="evenodd" clip-rule="evenodd" d="M812.034 618.307C811.373 618.307 810.725 617.979 810.344 617.38C809.752 616.448 810.027 615.212 810.959 614.619C814.269 612.515 819.36 610.558 824.749 608.486C841.617 602.002 854.231 596.216 850.498 585.91C845.155 576.69 832.899 582.113 817.445 590.157C812.087 592.946 807.027 595.58 803.03 596.635C801.962 596.917 800.868 596.28 800.586 595.212C800.304 594.144 800.941 593.049 802.009 592.767C805.575 591.826 810.444 589.292 815.598 586.609C829.337 579.458 846.436 570.558 854.059 584.08C854.109 584.17 854.153 584.263 854.189 584.359C859.799 599.298 841.161 606.463 826.185 612.219C820.987 614.218 816.077 616.105 813.105 617.995C812.773 618.206 812.401 618.307 812.034 618.307" fill="black"/></g><path id="Fill 62" fill-rule="evenodd" clip-rule="evenodd" d="M736.71 658.748L686.689 526.968C643.507 542.844 600.88 558.21 556.016 562.112C563.561 537.016 575.837 513.876 589.194 490.669C596.062 478.891 603.454 467.106 611.177 455.425C631.017 424.84 620.395 384.238 591.703 361.553V361.553C560.707 336.949 515.539 344.35 493.618 377.656C475.136 405.703 458.173 433.992 443.332 464.811C423.608 506.27 406.544 554.309 413.639 600.874C420.085 651.723 462.571 691.924 512.615 699.93C588.958 712.595 666.71 683.889 736.71 658.748" fill="black"/></g></g></g><g id="Hairstyle" transform="translate(569 275) scale(1 1)"><g id="Hairstyle/Snapback Hat"><g id="head"><g id="hair"><path id="Fill 3" fill-rule="evenodd" clip-rule="evenodd" d="M65.3799 91.2204C65.3799 113.914 52.4049 132.311 36.3999 132.311C20.3939 132.311 7.41992 113.914 7.41992 91.2204C7.41992 68.5264 20.3939 50.1294 36.3999 50.1294C52.4049 50.1294 65.3799 68.5264 65.3799 91.2204" fill="black"/><path id="Fill 5" fill-rule="evenodd" clip-rule="evenodd" d="M129.533 91.2619C129.533 113.979 115.987 132.394 99.2756 132.394C82.5656 132.394 69.0186 113.979 69.0186 91.2619C69.0186 68.5449 82.5656 50.1299 99.2756 50.1299C115.987 50.1299 129.533 68.5449 129.533 91.2619" fill="black"/></g><g id="neck"><path id="Fill 12" fill-rule="evenodd" clip-rule="evenodd" d="M65.9789 206.665V206.665C47.0219 206.665 29.5449 192.127 29.5449 174.77L45.6549 115.107C45.6549 97.75 41.0219 83.679 59.9789 83.679H79.9789C98.9359 83.679 94.3029 97.75 94.3029 115.107V175.237C94.3029 192.594 84.9359 206.665 65.9789 206.665" fill="white"/><path id="Fill 14" fill-rule="evenodd" clip-rule="evenodd" d="M31.5459 175.03C31.7189 190.847 47.7349 204.665 65.9789 204.665V204.665C85.3879 204.665 92.3029 189.464 92.3029 175.237V115.107C92.3029 112.06 92.4409 109.163 92.5749 106.362C92.9419 98.655 93.2599 92 90.0789 88.665C88.1639 86.656 84.8599 85.679 79.9789 85.679H59.9789C55.0969 85.679 51.7929 86.656 49.8779 88.665C46.6979 92 47.0149 98.655 47.3829 106.362C47.5159 109.163 47.6549 112.06 47.6549 115.107V115.373L31.5459 175.03ZM65.9789 208.665C45.5039 208.665 27.5449 192.826 27.5449 174.77V174.505L43.6539 114.843C43.6469 111.985 43.5149 109.224 43.3869 106.552C42.9759 97.928 42.6209 90.48 46.9829 85.905C49.6939 83.061 53.9449 81.679 59.9789 81.679H79.9789C86.0129 81.679 90.2639 83.061 92.9739 85.905C97.3369 90.48 96.9809 97.928 96.5699 106.552C96.4389 109.307 96.3029 112.155 96.3029 115.107V175.237C96.3029 195.544 84.3999 208.665 65.9789 208.665V208.665Z" fill="black"/></g><g id="head_2"><path id="Fill 7" fill-rule="evenodd" clip-rule="evenodd" d="M132.315 107.17C132.315 115.583 125.495 122.403 117.082 122.403C108.669 122.403 101.849 115.583 101.849 107.17C101.849 98.7569 108.669 91.9369 117.082 91.9369C125.495 91.9369 132.315 98.7569 132.315 107.17" fill="white"/><path id="Fill 9" fill-rule="evenodd" clip-rule="evenodd" d="M117.082 93.937C109.785 93.937 103.849 99.873 103.849 107.17C103.849 114.467 109.785 120.403 117.082 120.403C124.379 120.403 130.315 114.467 130.315 107.17C130.315 99.873 124.379 93.937 117.082 93.937M117.082 124.403C107.58 124.403 99.8486 116.672 99.8486 107.17C99.8486 97.668 107.58 89.937 117.082 89.937C126.584 89.937 134.315 97.668 134.315 107.17C134.315 116.672 126.584 124.403 117.082 124.403" fill="black"/><path id="Fill 16" fill-rule="evenodd" clip-rule="evenodd" d="M77.5785 154.597C60.1105 154.597 44.3485 144.237 37.4215 128.205L36.7705 126.7C27.2095 104.569 37.4355 78.7849 59.5665 69.2229C65.0905 66.8369 70.9175 65.6269 76.8875 65.6269C94.3535 65.6269 110.116 75.9869 117.043 92.0189L117.693 93.5239C127.255 115.655 117.028 141.439 94.8975 151.001C89.3745 153.387 83.5475 154.597 77.5785 154.597" fill="white"/><path id="Fill 18" fill-rule="evenodd" clip-rule="evenodd" d="M76.8879 63.6269H76.8869C70.6429 63.6269 64.5479 64.8929 58.7729 67.3879C47.5619 72.2309 38.9079 81.1509 34.4059 92.5029C29.9029 103.856 30.0909 116.282 34.9349 127.493L35.5849 128.998C42.8279 145.764 59.3119 156.597 77.5779 156.597C83.8209 156.597 89.9149 155.332 95.6909 152.836C106.902 147.993 115.556 139.073 120.058 127.721C124.561 116.368 124.373 103.942 119.529 92.7309L118.879 91.2259C111.636 74.4599 95.1529 63.6269 76.8879 63.6269M76.8869 67.6269C93.0299 67.6269 108.398 77.0509 115.207 92.8129L115.857 94.3169C124.996 115.47 115.257 140.026 94.1049 149.165H94.1039C88.7129 151.494 83.0999 152.597 77.5779 152.597C61.4349 152.597 46.0659 143.173 39.2569 127.412L38.6069 125.907C29.4679 104.754 39.2069 80.1979 60.3599 71.0599V71.0599C65.7509 68.7299 71.3649 67.6269 76.8869 67.6269" fill="black"/><path id="Fill 20" fill-rule="evenodd" clip-rule="evenodd" d="M36.6256 122.403C28.2126 122.403 21.3926 115.583 21.3926 107.17C21.3926 98.7568 28.2126 91.9368 36.6256 91.9368C37.6776 91.9368 38.7036 92.0438 39.6956 92.2468" fill="white"/><path id="Fill 22" fill-rule="evenodd" clip-rule="evenodd" d="M36.6256 124.403C27.1236 124.403 19.3926 116.672 19.3926 107.17C19.3926 97.6678 27.1236 89.9368 36.6256 89.9368C37.7926 89.9368 38.9606 90.0548 40.0966 90.2868C41.1786 90.5088 41.8766 91.5648 41.6556 92.6478C41.4336 93.7288 40.3756 94.4258 39.2946 94.2058C38.4226 94.0278 37.5246 93.9368 36.6256 93.9368C29.3286 93.9368 23.3926 99.8728 23.3926 107.17C23.3926 114.467 29.3286 120.403 36.6256 120.403C37.7296 120.403 38.6256 121.299 38.6256 122.403C38.6256 123.507 37.7296 124.403 36.6256 124.403" fill="black"/></g></g><g id="hat"><path id="Fill 1" fill-rule="evenodd" clip-rule="evenodd" d="M33.937 78.6167H-47.651C-49.501 78.6167 -51 77.1177 -51 75.2677C-51 73.4187 -49.501 71.9187 -47.651 71.9187H33.937C35.786 71.9187 37.286 73.4187 37.286 75.2677C37.286 77.1177 35.786 78.6167 33.937 78.6167" fill="black"/><path id="Fill 24" fill-rule="evenodd" clip-rule="evenodd" d="M126.42 78.6167H13.5545C9.27945 78.6167 5.81445 75.1517 5.81445 70.8767V70.8767C5.81445 35.0467 34.8605 5.99969 70.6915 5.99969C105.744 5.99969 134.16 34.4157 134.16 69.4677V70.8767C134.16 75.1517 130.694 78.6167 126.42 78.6167" fill="black"/></g><circle id="Oval" cx="46" cy="82" r="14" fill="black"/><path id="Fill 9" fill-rule="evenodd" clip-rule="evenodd" d="M83.1474 123.992H90.7084C92.7934 123.992 94.3374 120.961 93.8714 117.782L90.6874 96.0426C89.9484 90.9976 85.4234 90.7156 84.4294 95.6516L80.0524 117.391C79.3944 120.662 80.9554 123.992 83.1474 123.992" fill="#ff2a67"/></g></g><g id="Face" transform="translate(589 365) scale(1 1)"><g id="Face/Beard"><path id="Shape" fill-rule="evenodd" clip-rule="evenodd" d="M98.064 -1C101.129 -1 103.626 1.4261 103.741 4.46306L103.745 4.681V29.803C103.745 30.2429 103.697 30.6715 103.605 31.0837L103.502 31.8657C102.208 41.1969 94.8052 79.0512 59.8721 79.0512C23.2145 79.0512 16.8734 38.9149 16.0936 32.4954C16.0319 32.2189 16 31.9302 16 31.634V4.681C16 1.543 18.543 -1 21.681 -1C24.818 -1 27.362 1.543 27.362 4.681L27.3621 27.2232C27.3621 32.3865 30.9111 39.6403 36.4787 46.1029C35.6908 40.0185 35.7974 33.4382 38.7065 29.3812C40.6075 26.7292 43.4885 25.3282 47.0365 25.3282C53.2005 25.3282 56.8958 26.7787 59.7845 28.1509L61.8563 29.1554C64.8933 30.5961 67.0955 31.1529 73.1571 28.373L73.5255 28.2022C80.4795 24.9442 84.7005 24.4522 87.6405 26.5602C91.4431 29.2855 91.0457 34.8129 90.2061 42.4468C92.322 37.6277 92.546 33.3852 92.4875 31.2559C92.436 30.9968 92.403 30.7309 92.3897 30.4598L92.383 30.187V4.681C92.383 1.543 94.927 -1 98.064 -1ZM76.4056 33.48L76.0715 33.6352C67.1705 37.8072 63.2465 36.5232 58.2755 34.0872L57.7853 33.8477C55.1601 32.571 52.3127 31.3282 47.0365 31.3282C44.9605 31.3282 44.1005 32.1552 43.5825 32.8762C40.936 36.5648 42.1116 45.8406 43.9674 53.2452C46.7978 55.4428 49.8637 57.3178 53.0606 58.6735L59.7194 52.0144C61.7544 49.9794 65.0554 49.9794 67.0904 52.0144L73.7251 58.6492C77.6606 56.6821 80.7795 54.4618 83.249 52.1482C83.4081 49.5593 83.6582 47.0838 83.9099 44.7841L84.3382 40.8816C84.7373 37.0489 85.0939 32.37 84.2155 31.4959L84.1321 31.4285C83.9783 31.3463 82.4489 30.6967 76.4056 33.48V33.48Z" fill="black"/></g></g><g id="Expression" transform="translate(617 356) scale(1 1)"><g id="Expression/Laughing"><path id="Path" fill-rule="evenodd" clip-rule="evenodd" d="M37.018 61.608C26.54 61.608 22.625 53.545 22.02 49.281C21.938 48.708 22.109 48.127 22.489 47.689C22.869 47.251 23.42 47 24 47H50.036C50.616 47 51.167 47.251 51.547 47.689C51.927 48.127 52.098 48.708 52.016 49.281L51.9612 49.6253C51.1995 53.9638 47.2203 61.608 37.018 61.608Z" fill="black"/><path id="Fill 7" fill-rule="evenodd" clip-rule="evenodd" d="M56.5038 22.9646C56.1028 22.9646 55.6978 22.8446 55.3458 22.5936L46.5388 16.3276C45.9988 15.9426 45.6838 15.3156 45.6988 14.6536C45.7128 13.9906 46.0558 13.3786 46.6118 13.0186L55.4188 7.32063C56.3468 6.72063 57.5848 6.98663 58.1848 7.91363C58.7848 8.84163 58.5188 10.0796 57.5918 10.6796L51.2588 14.7766L57.6648 19.3346C58.5648 19.9756 58.7758 21.2236 58.1348 22.1236C57.7448 22.6726 57.1288 22.9646 56.5038 22.9646" fill="black"/><path id="Fill 7_2" fill-rule="evenodd" clip-rule="evenodd" d="M18.7003 22.9646C19.1013 22.9646 19.5063 22.8446 19.8583 22.5936L28.6653 16.3276C29.2053 15.9426 29.5203 15.3156 29.5053 14.6536C29.4913 13.9906 29.1483 13.3786 28.5923 13.0186L19.7853 7.32063C18.8573 6.72063 17.6193 6.98663 17.0193 7.91363C16.4193 8.84163 16.6853 10.0796 17.6123 10.6796L23.9453 14.7766L17.5393 19.3346C16.6393 19.9756 16.4283 21.2236 17.0693 22.1236C17.4593 22.6726 18.0753 22.9646 18.7003 22.9646" fill="black"/></g></g><g id="Glasses" transform="translate(598 343) scale(105 93)"><g id="Glasses/No Items" stroke="none" stroke-width="1" fill="none" fill-rule="evenodd" fill-opacity="0"/></g></g></g></g></svg>