<svg viewBox="161.53846153846143 540 1121.7948717948716 1282.4999999999995" xmlns="http://www.w3.org/2000/svg" xmlns:xlink="http://www.w3.org/1999/xlink" overflow="visible" width="1121.7948717948716px" height="1282.4999999999995px"><defs><rect id="mastercharactersitting-path-1" x="0" y="0" width="1400" height="928"/><path d="M346,1 L403,44 C455.330837,60.5927043 498.49333,98.0479325 522.293031,147.519222 L574,255 L574,255 L617,159 L692,193 L637.210403,321.803615 C619.915873,362.46093 572.93662,381.40021 532.279305,364.10568 C517.498602,357.818366 504.952779,347.227337 496.274699,333.711035 L465,285 L465,285 C484.333333,388.333333 494.666667,454.666667 496,484 C497.333333,513.333333 487.666667,530 467,534 L122.243501,534 C67.0150256,534 22.2435006,489.228475 22.2435006,434 C22.2435006,427.344215 22.9079885,420.705057 24.2270788,414.181295 L66.6882657,204.183034 C82.3396526,126.776718 138.279412,63.6979364 213.259839,38.9060209 L216,38 L216,38 L271,0 L324.45715,50.637 L346,1 Z" id="mastercharactersitting-path-3"/></defs><g id="Master/Character/Sitting" stroke="none" stroke-width="1" fill="none" fill-rule="evenodd"><g id="Chair" transform="translate(100.000000, 800.000000) scale(1 1)"><g id="Chair/Puff" stroke="none" stroke-width="1" fill="none" fill-rule="evenodd"><g id="Puff-back" transform="translate(110.000000, 268.000000)"><path d="M842.826556,732 L392.737331,732 C285.80845,732 186.962486,675.085373 133.28147,582.607624 L59.413331,455.352966 C21.2360734,389.583963 9.46054762,311.7707 26.4682946,237.650519 L44.2293909,160.247222 C65.0750797,69.401196 151.593392,9.31139829 244,21.5 L297.331186,28.5344816 C366.674903,37.6810454 428.142684,77.7475419 464.5,137.5 C500.80569,197.167612 562.480755,236.878788 631.823974,245.236114 L735.788952,257.766095 C793.429161,264.712961 842.928989,302.009795 865.5,355.5 L900.200422,437.735246 C901.399499,440.576894 902.7294,443.361546 904.18586,446.080273 L932,498 C951.456846,534.319447 958.409837,576.036175 951.784375,616.702799 L947.5,643 C939.140041,694.31285 894.815954,732 842.826556,732 Z" id="Path-46" fill="#FFDD92"/><path d="M252.497047,74.8702541 L253.645954,75.0525017 L252.354046,82.9474983 C219.269502,77.5336638 195.135246,88.7168546 179.179918,116.897475 C194.913985,116.017487 212.296783,118.572466 231.289625,124.570824 L233.240869,125.197337 L230.759131,132.802663 C169.935919,112.955088 127.972227,129.547552 103.391253,183.001424 L102.651694,184.632522 L95.3483057,181.367478 C112.013788,144.089426 136.889556,122.891876 169.583538,117.886698 L169.422291,118.211146 C186.69702,83.6616885 214.682366,69.062237 252.497047,74.8702541 Z" id="Combined-Shape" fill="#000" fill-rule="nonzero"/></g><g id="Legs" transform="translate(380.000000, 500.000000)"><path d="M562,499 L693.907198,499 C704.952893,499 713.907198,490.045695 713.907198,479 C713.907198,471.336625 709.528281,464.347045 702.632668,461.003718 L616,419 L616,419 L532.050391,419 L532.018897,469.000006 C531.98957,485.568533 545.412564,499.008448 561.981103,499.018885 C561.987402,499.018889 561.993701,499.018891 562,499 Z" id="Fill-21" fill="#696089"/><path d="M376.9617,0.38808789 L88,1.10112883 L88,1.10112883 L88,64.7291844 C88,126.163668 137.888201,175.965099 199.429722,175.965099 L455.168735,175.965099 L522.228998,419 L637,419 L571.698343,152.747072 C549.714508,63.1128909 469.252131,0.160352329 376.9617,0.38808789 Z" id="Leg" fill="#A1D5E5"/><path d="M450.916506,23.3371424 L449.010949,22.3742128 C419.909718,7.66451889 387.749126,0 355.131914,0 L0,0 L0,64.8665368 C0,126.277202 49.8618915,176.059325 111.370958,176.059325 L366.975102,176.059325 L318.003064,419 L420.710475,419 L506.42045,158.506431 C523.594966,106.310313 500.012165,49.415187 450.916506,23.3371424" id="Leg" fill="#A1D5E5"/><path d="M475.899444,72.5120049 C500.518797,103.504674 507.734761,138.802468 497.489395,178.011257 L496.572106,181.495393 C486.663355,218.860558 469.589709,274.851804 445.344479,349.498461 L443.803666,354.237792 L436.196334,351.762208 L439.253532,342.34966 C463.406186,267.842725 480.240401,212.378997 489.749276,175.988743 C499.266786,139.565444 492.809654,107.149779 470.32166,78.3593239 L469.635299,77.4879951 L475.899444,72.5120049 Z" id="Path-11" fill="#000" fill-rule="nonzero"/><path d="M335.915076,499 L480.432115,499 C491.47781,499 500.432115,490.045695 500.432115,479 C500.432115,471.319535 496.033859,464.317522 489.114954,460.98311 L402,419 L402,419 L318.050391,419 L306.90264,461.365961 C302.686477,477.389087 312.257911,493.796273 328.281037,498.012436 C330.772751,498.66808 333.338547,499 335.915076,499 Z" id="Fill-21" fill="#696089"/></g><g id="Puff-Front" transform="translate(61.000000, 418.000000)"><path d="M741.664163,507.362616 L810.094984,538.670835 C822.281008,544.24614 827.640055,558.644543 822.06475,570.830568 C818.174008,579.334617 809.749842,584.834041 800.424488,584.996308 L800,585 L800,577 C806.3635,577 812.142507,573.288866 814.789982,567.502243 C818.480966,559.434804 815.022518,549.920801 807.06709,546.086705 L806.766658,545.945603 L738.335837,514.637384 L741.664163,507.362616 Z" id="Path-23" fill="#000" fill-rule="nonzero"/><path d="M672.826556,582 L188.770494,582 C108.386894,582 39.4813926,524.568404 25,445.5 L21.2336868,424.93593 C7.58566644,350.417739 22.6357692,273.495164 63.3617149,209.615381 L98.5,154.5 C156.474201,63.5658469 268.656666,23.4153674 371.165145,56.9122325 L451,83 L451,83 L557.086438,82.5088591 C622.378875,82.2065793 680.193882,124.626388 699.5,187 L729.158085,282.818429 C731.04834,288.925405 733.519848,294.83705 736.538677,300.472198 L762,348 C781.456846,384.319447 788.409837,426.036175 781.784375,466.702799 L777.5,493 C769.140041,544.31285 724.815954,582 672.826556,582 Z" id="Path-46" fill="#FFC950"/><path d="M582.199962,238.659317 C636.743544,274.578261 664.841287,312.826868 665.964901,353.458627 C675.320645,363.064083 683.450701,374.02266 689.855439,385.987225 C715.409145,433.723598 709.3736,487.662068 667.332536,532.416245 L666.047538,533.769605 L660.275438,528.230395 C701.032443,485.75981 707.007928,434.980626 682.80241,389.762775 C660.967508,348.973426 617.839492,320.572492 576.259502,320.008553 L575,320 L575,312 C604.041113,312 633.654494,324.588759 657.300276,345.247582 C652.841604,311.064061 627.009861,278.101164 579.401525,246.401148 L577.800038,245.340683 L582.199962,238.659317 Z" id="Combined-Shape" fill="#000" fill-rule="nonzero"/><path d="M95.8378696,265.465195 L103.766043,266.534805 C82.1977024,426.403877 120.977401,515.759538 219.747505,536.466188 L222.7589,537.072651 L221.2411,544.927349 C116.290965,524.647341 74.3926441,432.51651 95.1885023,270.399259 L95.8378696,265.465195 Z" id="Path-48" fill="#000" fill-rule="nonzero"/><path d="M388.816882,88.7164168 L388.082182,88.8903133 C434.630279,77.9168697 472.804509,82.2569054 502.36871,102.095078 L503.261959,102.700979 L498.738041,109.299021 C474.166981,92.4519831 442.845332,87.2044887 404.602224,93.6901437 C424.82324,101.044193 445.025703,112.198701 465.191512,127.147547 L467.410615,128.807989 L462.589385,135.192011 C391.93485,81.8335292 321.772256,76.8222166 251.259925,120.012382 L249.12308,121.335929 L244.87692,114.555802 C292.78227,84.5543341 340.840383,75.9547289 388.816882,88.7164168 Z" id="Combined-Shape" fill="#000" fill-rule="nonzero"/></g></g></g><g id="Head" transform="translate(560.999650, 572.000000)" fill="#ff8095"><path d="M173.4931,66.499221 C182.1061,110.758221 197.9031,184.720221 112.0001,190.645221 C47.3491,195.103221 34.1221,133.336221 28.0001,98.645221 C19.0001,47.645221 36.0001,13.645221 84.0001,2.64522101 C149.3581,-12.333779 168.3391,40.016221 173.4931,66.499221"/><path d="M140,217 L140,172 L66,172 L64,214 L-6.39488462e-13,246.644721 L37.2,279.966721 C78.318,316.799721 141.503,313.346721 178.363,272.252721 L201.333,246.644721 L140,217 Z" id="Neck"/></g><g id="Hair" transform="translate(403.999650, 378.000000) scale(1 1)"><g id="Hair/Afro Bun" stroke="none" stroke-width="1" fill="none" fill-rule="evenodd"><path d="M156.413451,243.033158 C154.378451,249.690158 152.758451,256.050158 151.515451,262.130158 C113.651451,246.106158 86.4224511,214.982158 86.1464511,214.664158 C75.3874511,202.064158 56.4524511,200.572158 43.8514511,211.331158 C34.4654511,219.338158 31.2464511,231.910158 34.6724511,243.012158 C18.5444511,240.467158 3.29245108,251.305158 0.456451082,267.451158 C-1.74154892,279.973158 4.17445108,292.036158 14.4164511,298.269158 C4.54445108,304.635158 -1.06854892,316.511158 1.13645108,328.795158 C3.61245108,342.587158 15.1494511,352.471158 28.5154511,353.421158 C23.6044511,362.081158 23.1014511,372.992158 28.1524511,382.414158 C35.7714511,396.630158 53.2054511,402.208158 67.5964511,395.272158 C68.7574511,403.536158 73.3334511,411.277158 80.8624511,416.208158 C92.5644511,423.871158 107.638451,422.301158 117.513451,413.287158 C119.335451,411.624158 120.981451,409.706158 122.395451,407.547158 C133.107451,391.192158 150.134451,366.729158 165.238451,347.390158 C197.045451,390.510158 262.501451,392.829158 262.501451,392.829158 C317.591451,392.829158 297.994451,237.733158 314.163451,210.996158 C332.782451,180.211158 190.097451,132.853158 156.413451,243.033158" id="Hair" fill="#ff8095"/></g></g><g id="Face" transform="translate(592.999650, 622.000000) scale(1 1)" fill="#000"><defs><path d="M16,0.828427125 C24.836556,0.828427125 32,7.99187113 32,16.8284271 C32,25.6649831 24.836556,32.8284271 16,32.8284271 C7.163444,32.8284271 0,25.6649831 0,16.8284271 C0,7.99187113 7.163444,0.828427125 16,0.828427125 Z" id="facedark-glasses-path-1"/><path d="M16.8284271,0.828427125 C25.6649831,0.828427125 32.8284271,7.99187113 32.8284271,16.8284271 C32.8284271,25.6649831 25.6649831,32.8284271 16.8284271,32.8284271 C7.99187113,32.8284271 0.828427125,25.6649831 0.828427125,16.8284271 C0.828427125,7.99187113 7.99187113,0.828427125 16.8284271,0.828427125 Z" id="facedark-glasses-path-3"/></defs><g id="Face/Dark Glasses" stroke="none" stroke-width="1" fill="none" fill-rule="evenodd"><path d="M139.505488,21.7624637 L147.358805,20.2375363 L147.914623,23.1292784 C150.492,36.6861902 151.956285,46.6187181 152.640849,56.8252335 C153.601715,71.1512888 152.68093,83.6925106 149.422756,94.7127057 C141.400988,121.844902 119.647922,138.009871 81.4351761,140.907001 L80.2721732,140.990729 L79.7278268,133.009271 C115.453825,130.572709 134.63761,116.504402 141.751032,92.4445228 C144.707273,82.445563 145.561191,70.815079 144.658782,57.3606006 C143.998859,47.5214545 142.57044,37.8441959 140.038812,24.5363568 L139.505488,21.7624637 Z" id="Stroke-9" fill="#000" fill-rule="nonzero"/><g id="Group" transform="translate(85.000000, 41.000000) rotate(-5.000000) translate(-85.000000, -41.000000) translate(12.000000, 17.000000)"><path d="M122,0 C135.254834,0 146,10.745166 146,24 C146,37.254834 135.254834,48 122,48 C110.108321,48 100.236654,39.3512987 98.3319809,28.0008768 L96.6680191,28.0008768 C94.7633455,39.3512987 84.891679,48 73,48 C61.108321,48 51.2366545,39.3512987 49.3319809,28.0008768 L15,28 C11.2145483,28 8.13090132,31.0047834 8.00405902,34.7593502 L8,35 C8,37.209139 6.209139,39 4,39 C1.790861,39 0,37.209139 0,35 C0,26.8205929 6.54678637,20.1702698 14.6861718,20.0032178 L15,20 L49.3318133,20.000122 C51.2360754,8.64920863 61.1079722,0 73,0 C84.8920278,0 94.7639246,8.64920863 96.6681867,20.000122 L98.3318133,20.000122 C100.236075,8.64920863 110.107972,0 122,0 Z" id="Glasses" fill="#FFA896"/><g id="Path" transform="translate(106.000000, 7.171573)"><mask id="facedark-glasses-mask-2" fill="#ffffff"><use xlink:href="#facedark-glasses-path-1" fill="#ffffff"/></mask><use id="Mask" fill="#006AD6" xlink:href="#facedark-glasses-path-1"/><path d="M29.8284271,5.82842712 L35.4852814,11.4852814 L8.48528137,38.4852814 L2.82842712,32.8284271 L29.8284271,5.82842712 Z M25,-3 L30.6568542,2.65685425 L3.65685425,29.6568542 L-2,24 L25,-3 Z" id="Combined-Shape" fill-opacity=".5" fill="#FFF" fill-rule="nonzero" mask="url(#facedark-glasses-mask-2)"/></g><g id="Path" transform="translate(56.171573, 7.171573)"><mask id="facedark-glasses-mask-4" fill="#ffffff"><use xlink:href="#facedark-glasses-path-3" fill="#ffffff"/></mask><use id="Mask" fill="#006AD6" xlink:href="#facedark-glasses-path-3"/><path d="M30.8284271,5.82842712 L36.4852814,11.4852814 L9.48528137,38.4852814 L3.82842712,32.8284271 L30.8284271,5.82842712 Z M25,-2 L30.6568542,3.65685425 L3.65685425,30.6568542 L-2,25 L25,-2 Z" id="Combined-Shape" fill-opacity=".5" fill="#FFF" fill-rule="nonzero" mask="url(#facedark-glasses-mask-4)"/></g></g></g></g><g id="Torso" transform="translate(0.000000, 372.000000)"><mask id="mastercharactersitting-mask-2" fill="#ffffff"><use xlink:href="#mastercharactersitting-path-1" fill="#ffffff"/></mask><g id="Mask"/><g mask="url(#mastercharactersitting-mask-2)"><g transform="translate(100.000000, 288.000000) scale(1 1)" id="Upper Body"><g id="Upper Body/Dr 1" stroke="none" stroke-width="1" fill="none" fill-rule="evenodd"><g id="Group-36" transform="translate(279.000000, 100.000000)"><path d="M584.9268,307.8066 L488.3898,122.7726 C478.1708,103.1846 461.7518,87.5326 441.6988,78.2606 L378.5558,50.9646 L337.6078,30.4476 L303,100 L212.2858,36.8296 L181.4998,53.1726 L181.5378,52.9086 L125.8418,82.7196 C96.9688,98.1726 74.4278,123.2586 62.1388,153.6136 L14.6168,270.9916 C-8.6842,328.5456 -3.9322,393.6586 27.4778,447.2196 L113.5758,592.4786 L195,540 L431.351693,540 C440.049701,540 447.154452,533.051418 447.347742,524.355557 L452.1618,307.7776 L452.1618,307.7776 L452.2448,308.0646 L470.8838,338.5976 C500.0838,386.4316 548.0138,419.8206 603.0038,430.6336 L736.2898,456.8416 L757.2478,354.1766 L584.9268,307.8066 Z" id="Scrub-Color" fill="#52D6C0"/><polygon id="Stroke-10" fill="#000" fill-rule="nonzero" points="223.150612 43.3875516 314.233212 104.681452 309.766788 111.318548 218.684188 50.0246484"/><path d="M436.0171,535.7838 L436.0171,543.7838 L171.0171,543.7838 L171.0171,535.7838 L436.0171,535.7838 Z M446.989,502.5 L446.989,510.5 L131,510.5 L131,502.5 L446.989,502.5 Z" id="Stroke-15" fill="#000" fill-rule="nonzero"/><path d="M866.15503,457.285836 L866.15503,457.285836 C867.834485,453.505437 866.227626,449.07276 862.515489,447.248114 L825.308523,428.952892 L879.64051,437.331746 C884.099191,438.01978 888.254488,434.919832 888.864509,430.450315 C889.433356,426.285267 886.708306,422.380264 882.601768,421.478776 L829.718446,409.865617 L891.68816,406.856684 C896.765531,406.609642 900.727961,402.373082 900.637435,397.291377 C900.547013,392.44913 896.796953,388.466113 891.968791,388.086881 L830.080341,383.220796 L884.94542,371.188316 C889.53304,370.181726 892.465043,365.681871 891.529966,361.077998 C890.694573,356.967126 887.014942,354.057877 882.822806,354.195484 L825.334527,356.073223 L825.334527,356.073223 L806.143235,356.699497 C814.687867,347.948996 823.143651,338.22116 830.675193,327.720775 C833.011261,324.4648 832.574602,319.97578 829.70436,317.178134 C827.080076,314.619945 823.072139,314.12586 819.905012,315.971093 L774.496889,342.4393 C767.746565,346.373559 762.24337,351.952599 758.404462,358.532811 L727.675857,351.015355 L716.173217,414.314547 L815.368317,447.601341 L856.666652,461.460635 C860.432965,462.724018 864.542753,460.915625 866.15503,457.285836" id="Hand-color" fill="#ff8095"/><path d="M829.715992,366.329905 L830.497106,370.492347 C830.559447,370.843039 830.645655,371.362043 830.74877,372.038373 L830.906707,373.114411 C831.064049,374.227739 831.218966,375.451933 831.365701,376.777976 C832.999724,391.54466 832.644047,407.557885 828.884977,422.720759 C827.868164,426.822255 826.614651,430.761872 825.109124,434.518561 L824.692266,435.538561 L823.153705,439.230828 L815.769172,436.153705 L817.307734,432.461439 C818.839223,428.786144 820.105356,424.888633 821.120039,420.795732 C824.617322,406.688818 824.953227,391.565751 823.414234,377.657853 L823.274613,376.449139 C823.156655,375.470263 823.035117,374.56307 822.913274,373.732932 L822.800361,372.985886 L822.592628,371.738942 L821.853686,367.807789 L829.715992,366.329905 Z M802.234856,352.773018 L810.232833,352.952937 L810.142873,356.951925 C809.758295,374.047693 804.515277,387.171208 795.977034,396.704511 C792.832718,400.215271 789.454369,402.986475 786.059058,405.101003 C784.853481,405.85181 783.724164,406.469338 782.697061,406.964097 L782.099529,407.243451 C781.857747,407.352754 781.648244,407.442475 781.473266,407.513515 L781.236976,407.606177 L777.492765,409.013615 L774.677888,401.525193 L778.456163,400.103821 L778.559884,400.060304 C778.744237,399.981904 778.967095,399.881057 779.225237,399.756709 C779.998425,399.384262 780.875147,398.904857 781.829919,398.310245 C784.607034,396.580717 787.401112,394.28878 790.017727,391.367221 C797.174631,383.376241 801.659479,372.307967 802.12549,357.491843 L802.144897,356.772006 L802.234856,352.773018 Z" id="Combined-Shape" fill="#000" fill-rule="nonzero"/><path d="M452.2447,308.0644 L519,899 L388,919 L322,491 L322,6 L377.7437,48.6904 L441.6987,78.2604 C461.7517,87.5324 478.1707,103.1844 488.3907,122.7724 L584.9267,307.8064 L757.2477,354.1764 L736.2897,456.8414 L603.0037,430.6334 C548.0147,419.8204 500.0837,386.4324 470.8837,338.5974 L452.2447,308.0644 Z" id="Fill-23" fill="#EFEED8"/><path d="M95.1748,562.6557 L27.4788,447.2187 C-3.9322,393.6577 -8.6842,328.5457 14.6168,270.9917 L62.1388,153.6137 C74.4278,123.2587 96.9688,98.1727 125.8418,82.7187 L181.5378,52.9087 L247,0 L296,492 L251,930 L84.6788,914.9607 L95.1748,562.6557 Z" id="Fill-25" fill="#EFEED8"/><polygon id="Stroke-28" fill="#000" fill-rule="nonzero" points="375.452614 62.8771646 383.327186 64.2882354 370.917 133.545 396.888938 161.819987 356.791882 249.824173 349.511918 246.507227 387.41 163.326 362.342935 136.036574"/><polygon id="Stroke-30" fill="#000" fill-rule="nonzero" points="181.683403 82.9322674 188.538197 78.8077326 218.953184 129.3561 196.791 169.372 254.49603 255.427268 247.85157 259.882732 187.426153 169.769934 209.716 129.522"/><polygon id="Stroke-32" fill="#000" fill-rule="nonzero" points="113.22111 597.751812 108.41129 591.359188 189.433 530.398 121.402998 396.116243 101.073894 355.984037 108.210506 352.368963 121.612 378.824 126.782661 254.607148 134.775739 254.939852 129.01 393.431 195.926 525.512 215.634268 510.684205 220.444132 517.076795"/><polygon id="Stroke-34" fill="#000" fill-rule="nonzero" points="444.129935 200.776544 495.153935 651.691544 487.204665 652.591056 436.180665 201.676056"/></g></g></g></g></g></g></svg>