<svg viewBox="1350 1469.9248120300754 300.0000000000003 563.90977443609" xmlns="http://www.w3.org/2000/svg" xmlns:xlink="http://www.w3.org/1999/xlink" overflow="visible" width="300.0000000000003px" height="563.90977443609px"><defs><path d="M62.7244116,0.381515786 C62.7244116,11.4272108 71.6787166,20.3815158 82.7244116,20.3815158 L82.7244116,20.3815158 L142.724412,20.3815158 C153.770107,20.3815158 162.724412,11.4272108 162.724412,0.381515786 L162.724412,0.381515786 L195.224412,0.381515786 C211.792954,0.381515786 225.224412,13.8129733 225.224412,30.3815158 L225.224412,445.381516 C225.224412,461.950058 211.792954,475.381516 195.224412,475.381516 L30.2244116,475.381516 C13.6558691,475.381516 0.224411607,461.950058 0.224411607,445.381516 L0.224411607,30.3815158 C0.224411607,13.8129733 13.6558691,0.381515786 30.2244116,0.381515786 Z" id="masterstickerssmartphone-path-1"/></defs><g id="Master/Stickers/Smartphone" stroke="none" stroke-width="1" fill="none" fill-rule="evenodd"><g id="Smartphone" transform="translate(1375.000000, 1500.000000)"><rect id="Rectangle" fill="#1B3968" x="0" y="0" width="250" height="500" rx="20"/><g id="Character" transform="translate(12.275588, 12.118484)"><mask id="masterstickerssmartphone-mask-2" fill="#fff"><use xlink:href="#masterstickerssmartphone-path-1"/></mask><use id="Mask" fill="#C66" xlink:href="#masterstickerssmartphone-path-1"/><g mask="url(#masterstickerssmartphone-mask-2)"><g transform="translate(-587.275588, -1021.118484)"><g id="Head" stroke-width="1" fill-rule="evenodd" transform="translate(560.999650, 1072.000000)"><path d="M173.4931,66.499221 C182.1061,110.758221 197.9031,184.720221 112.0001,190.645221 C47.3491,195.103221 34.1221,133.336221 28.0001,98.645221 C19.0001,47.645221 36.0001,13.645221 84.0001,2.64522101 C149.3581,-12.333779 168.3391,40.016221 173.4931,66.499221" fill="#CCB2FF"/><path d="M140,217 L140,172 L66,172 L64,214 L-6.39488462e-13,246.644721 L37.2,279.966721 C78.318,316.799721 141.503,313.346721 178.363,272.252721 L201.333,246.644721 L140,217 Z" id="Neck" fill="#CCB2FF"/></g><g id="Hair" transform="translate(403.999650, 878.000000) scale(1 1)" fill-rule="evenodd"><g id="Hair/Slick" stroke="none" stroke-width="1" fill="none" fill-rule="evenodd"><path d="M162.150772,366.478192 C146.338021,357.992625 145.825925,335.511368 161.237665,326.316357 L127.592662,218.9439 C119.750159,193.916861 142.102403,169.852401 167.657187,175.812171 C167.657187,175.812171 190.329351,64.6615658 349.292215,150.599722 C393.888951,174.709702 423.015072,178.356842 441.844855,171.126957 C475.365444,158.253719 508.933799,190.63166 497.837658,224.766 C482.789162,271.063024 431.958414,299.838234 301.604022,261.814721 C199.671984,232.082141 285.911286,390 233.955643,390 C211.318548,390 187.383591,382.159397 162.150772,366.478192 Z" id="Hair" fill="#CCB2FF"/></g></g><g id="Face" transform="translate(592.999650, 1122.000000) scale(1 1)"><g id="Face/Joy" stroke="none" stroke-width="1" fill="none" fill-rule="evenodd"><path d="M138.007134,13.7702134 L145.857426,12.2297866 L147.549095,20.8795674 L148.018253,23.3396028 C150.609344,37.0644778 152.103078,47.4422921 152.719024,57.8208348 L152.76153,58.5622057 C153.98411,80.6614745 150.609705,98.5962452 141.031202,112.508343 C129.646431,129.04392 110.03365,138.785988 81.1510446,140.92809 L80.2729757,140.990675 L79.7270243,133.009325 C106.810648,131.156714 124.44055,122.497958 134.441949,107.971632 C142.846582,95.7644971 145.907418,79.4963265 144.773744,59.0041074 L144.689081,57.5786659 C144.070509,47.8319356 142.627723,37.9089558 140.153411,24.804129 L139.313239,20.428357 L138.007134,13.7702134 Z" id="Stroke" fill="#000" fill-rule="nonzero"/><path d="M69.2960622,41.3611777 C73.6428499,31.9223266 84.1941459,28.5822275 93.4636887,33.0439982 C94.4902431,33.5381165 95.718734,34.6252244 97.1491612,36.3053218 C98.0063928,37.312193 98.1679403,38.738128 97.5576764,39.9112493 C96.9815028,41.0188383 95.7339867,41.6022219 94.5145797,41.3343114 L90.0931795,40.3629051 L90.0931795,40.3629051 C84.2789536,39.3841272 79.6261768,40.6177516 76.1348493,44.0637782 C75.701543,44.4914622 74.9916259,45.055657 74.0050979,45.7563628 C72.8378417,46.585428 71.3098349,46.7072721 70.0259468,46.0736574 C68.8492633,45.4929496 68.2893558,44.1267425 68.7200906,42.8872777 C68.9800934,42.1390909 69.1720839,41.6303909 69.2960622,41.3611777 Z" id="Eye-L" fill="#000" fill-rule="nonzero" transform="translate(84.570459, 40.088476) rotate(13.000000) translate(-84.570459, -40.088476)"/><path d="M107.725603,39.3611777 C112.072391,29.9223266 122.623687,26.5822275 131.893229,31.0439982 C132.919784,31.5381165 134.148275,32.6252244 135.578702,34.3053218 C136.435933,35.312193 136.597481,36.738128 135.987217,37.9112493 C135.411043,39.0188383 134.163527,39.6022219 132.94412,39.3343114 L128.52272,38.3629051 L128.52272,38.3629051 C122.708494,37.3841272 118.055718,38.6177516 114.56439,42.0637782 C114.131084,42.4914622 113.421167,43.055657 112.434639,43.7563628 C111.267382,44.585428 109.739376,44.7072721 108.455487,44.0736574 C107.278804,43.4929496 106.718897,42.1267425 107.149631,40.8872777 C107.409634,40.1390909 107.601625,39.6303909 107.725603,39.3611777 Z" id="Eye-R" fill="#000" fill-rule="nonzero" transform="translate(123.000000, 38.088476) scale(-1, 1) rotate(16.000000) translate(-123.000000, -38.088476)"/></g></g><g id="Bust" stroke-width="1" fill-rule="evenodd" transform="translate(100.000000, 1160.000000)"><g id="Group-36" transform="translate(209.000000, 100.000000)"><path d="M511.6988,78.2606 L448.5558,50.9646 L407.6078,30.4476 L373,100 L282.2858,36.8296 L251.4998,53.1726 L251.5378,52.9086 L195.8418,82.7196 L242,540 L501.351693,540 C510.049701,540 517.154452,533.051418 517.347742,524.355557 L522.1618,307.7776 L522.1618,307.7776 L522.2448,308.0646 L511.6988,78.2606 Z" id="Scrub-Color" fill="#52D6C0"/><polygon id="Stroke-10" fill="#000" fill-rule="nonzero" points="293.150612 43.3875516 384.233212 104.681452 379.766788 111.318548 288.684188 50.0246484"/><path d="M522,262 L589,899 L458,919 L392,491 L392,6 L447.7437,48.6904 L498.205997,71.551824 C538.894043,89.9851239 572.240113,121.508857 592.928573,161.097886 L642,255 L642,255 L663,209 L740,228 L709.612845,316.301499 C695.235736,358.079684 649.712876,380.292646 607.93469,365.915538 C590.590405,359.946857 575.823961,348.199275 566.108992,332.640716 L522,262 L522,262 Z" id="Robe" fill="#EFEED8"/><path d="M851.872,92.88 C852.762,89.677 850.904,86.354 847.709,85.435 C844.635,84.551 841.404,86.209 840.328,89.221 L830.821,115.849 L836.414,85.784 C837.062,82.302 834.783,78.949 831.307,78.271 C827.741,77.575 824.303,79.959 823.706,83.543 L818.995,111.817 L820.943,83.202 C821.171,79.847 818.511,77 815.148,77 C812.268,77 809.822,79.111 809.402,81.961 L805.556,108.054 L805.978,85.935 C806.033,83.058 803.764,80.671 800.888,80.582 C798.172,80.497 795.839,82.495 795.507,85.192 L793.286,103.207 L766.177307,103.133441 C736.014086,103.051594 708.368985,119.942364 694.67707,146.819084 L663,209 L663,209 L745,236 L766,162 L826.125,146.682 C834.069,142.799 839.971,135.701 842.339,127.181 L851.872,92.88 Z" id="Glove" fill="#52D6C0"/><path d="M229.391476,58.0501478 L251.5378,52.9087 L251.5378,52.9087 L317,0 L366,492 L321,930 L154.6788,914.9607 L155,540 C87.5157538,540 32.8089632,485.293209 32.8089632,417.808963 C32.8089632,408.200625 33.9422588,398.625821 36.1853633,389.282982 L80.1466571,206.178144 C97.8301804,132.523836 155.606422,75.1799433 229.391476,58.0501478 Z" id="Robe" fill="#EFEED8"/><polygon id="Stroke-28" fill="#000" fill-rule="nonzero" points="445.452614 62.8771646 453.327186 64.2882354 440.917 133.545 466.888938 161.819987 426.791882 249.824173 419.511918 246.507227 457.41 163.326 432.342935 136.036574"/><polygon id="Stroke-30" fill="#000" fill-rule="nonzero" points="251.683403 82.9322674 258.538197 78.8077326 288.953184 129.3561 266.791 169.372 324.49603 255.427268 317.85157 259.882732 257.426153 169.769934 279.716 129.522"/><polygon id="Stroke-34" fill="#000" fill-rule="nonzero" points="514.129935 200.776544 565.153935 651.691544 557.204665 652.591056 506.180665 201.676056"/><path d="M166.012944,247.678463 L173.987056,248.321537 L159.301484,430.409463 L263.067516,459.14508 L260.932484,466.85492 L130.932484,430.85492 L133.067516,423.14508 L151.451484,428.235463 L166.012944,247.678463 Z" id="Combined-Shape" fill="#000" fill-rule="nonzero"/></g></g></g></g></g></g></g></svg>