<svg viewBox="631.1999999999998 421.0526315789473 841.5999999999996 1578.9473684210525" xmlns="http://www.w3.org/2000/svg" overflow="visible" xmlns:xlink="http://www.w3.org/1999/xlink" width="841.5999999999996px" height="1578.9473684210525px"><g id="Master/Spot Illustration/Hand" stroke="none" stroke-width="1" fill="none" fill-rule="evenodd"><rect id="Left-Background" fill="#5C9970" x="652" y="1900" width="800" height="100" rx="10"/><g id="Hand" transform="translate(552.000000, 1000.000000) scale(1 1)"><g id="Hand/Dr" stroke="none" stroke-width="1" fill="none" fill-rule="evenodd"><g id="Group-17" transform="translate(318.000000, 177.000000)"><path d="M433.0234,285.485 C414.3604,274.598 390.8884,276.267 374.0414,289.795 C352.0404,307.459 321.3754,335.82 294.7574,374.024 L303.2974,24.723 C303.5484,14.462 296.9324,5.29 287.1164,2.291 C273.2544,-1.945 259.0004,7.617 257.6594,22.048 L237.0724,243.603 C234.1754,244.09 231.3024,244.603 228.4404,245.128 C223.3954,245.558 218.4214,246.083 213.5304,246.702 L199.1604,20.609 C198.2854,6.839 185.0954,-2.733 171.7334,0.703 C162.0114,3.203 155.2164,11.966 155.2164,22.004 L155.2164,258.784 C147.7234,260.948 140.5464,263.265 133.6934,265.673 L104.4134,73.936 C102.6364,62.301 90.2804,55.543 79.5254,60.323 C72.7584,63.331 68.5514,70.206 68.9554,77.6 L80.4554,288.795 C76.4894,290.874 72.8174,292.887 69.4524,294.8 L37.6154,137.49 C35.4564,126.817 23.5924,121.271 14.0184,126.457 C8.1544,129.633 4.8364,136.079 5.6564,142.698 L27.2354,316.704 L40.5164,472.57 L27.2354,636.274 C182.9854,702.679 315.7954,636.274 315.7954,636.274 L298.0974,506.63 C317.9314,456.786 373.7384,384.027 436.2784,301.697 C440.2874,296.421 438.7474,288.824 433.0234,285.485" id="Glove" fill="#52D6C0"/><path d="M298.163172,369.507334 L299.274466,377.429772 L295.313247,377.985419 C255.172638,383.616007 223.769536,399.160863 199.963311,421.548727 C189.331393,431.547202 180.939008,442.254539 174.550747,452.947503 C172.323914,456.674877 170.509022,460.126913 169.076578,463.212052 L168.720435,463.989273 C168.493477,464.491447 168.287386,464.961436 168.101695,465.397807 L167.708716,466.345485 L167.480775,466.929916 L166.111059,470.688091 L158.594709,467.948659 L159.964425,464.190484 C160.25169,463.402296 160.807348,462.045259 161.657664,460.195612 L161.820558,459.843049 C163.366896,456.51261 165.310446,452.81586 167.683018,448.844539 C174.435914,437.541235 183.28415,426.252304 194.48273,415.720929 C219.219349,392.458103 251.729584,376.255026 292.950177,370.242069 L294.201953,370.062981 L298.163172,369.507334 Z M271.119845,239.983281 L272.951182,240.047409 L276.948373,240.197291 L276.648609,248.191673 L272.651418,248.041791 C212.887278,245.800819 156.535243,258.53179 105.508232,281.138922 C89.0440908,288.433236 74.3578276,296.245685 61.6474479,304.051397 L60.1046457,305.005016 C56.5599352,307.210412 53.4020108,309.276062 50.6446558,311.165249 L50.0599302,311.56736 C49.2040824,312.158133 48.4366586,312.697928 47.758958,313.183278 L46.1577733,314.353621 L42.9747522,316.776094 L38.1298056,310.410052 L41.6753958,307.715905 C41.8682833,307.572875 42.1133039,307.392931 42.4099393,307.177483 L43.0963382,306.682511 C43.6934383,306.25485 44.3531926,305.789497 45.0748639,305.288461 L45.5152908,304.983573 C48.9091719,302.640854 52.8990865,300.035805 57.460918,297.234288 C70.4647451,289.248364 85.4644532,281.269176 102.267689,273.824629 C153.819103,250.985164 210.720969,238.018046 271.119845,239.983281 Z" id="Combined-Shape" fill="#000" fill-rule="nonzero"/><polygon id="Sleeve" fill="#EFEED8" points="241.1621 598.9333 348.3251 620.6853 338 823 5 823 0.0001 612.1733 188.2011 592.3133 209.9531 659.5163"/><path d="M239.43813,593.545275 L246.549925,597.20893 L185.46227,715.790725 L178.350475,712.12707 L239.43813,593.545275 Z M161.1709,620.0739 C171.664039,620.0739 180.1709,628.580761 180.1709,639.0739 C180.1709,649.567039 171.664039,658.0739 161.1709,658.0739 C150.677761,658.0739 142.1709,649.567039 142.1709,639.0739 C142.1709,628.580761 150.677761,620.0739 161.1709,620.0739 Z M161.1709,628.0739 C155.096039,628.0739 150.1709,632.999039 150.1709,639.0739 C150.1709,645.148761 155.096039,650.0739 161.1709,650.0739 C167.245761,650.0739 172.1709,645.148761 172.1709,639.0739 C172.1709,632.999039 167.245761,628.0739 161.1709,628.0739 Z" id="Combined-Shape" fill="#000" fill-rule="nonzero"/></g></g></g><g id="Object" transform="translate(652.000000, 350.000000) scale(1.6 1.6)"><g id="Object/Vaccine" stroke="none" stroke-width="1" fill="none" fill-rule="evenodd"><g id="Group-18" transform="translate(190.000000, 51.000000)"><polygon id="Fill-1" fill="#DAE6EB" points="9 122 9 352.769231 55.1538462 352.769231 55.1538462 383.538462 16.6907692 383.538462 16.6907692 398.923077 109 398.923077 109 383.538462 70.5384615 383.538462 70.5384615 352.769231 116.690769 352.769231 116.690769 122"/><g id="Group-17"><path d="M49.6909231,146.919077 C59.0493846,145.960615 93.9616923,137.205231 100.923231,145.039077 L100.923231,337.462154 L24.0001538,337.462154 L24.0001538,145.879077 C27.0847692,148.736 38.554,148.059077 49.6909231,146.919077" id="Liquid-Color" fill="#EA89CF"/><polygon id="Fill-4" fill="#DAE6EB" points="57.3076923 140 67.3064425 140 67.3076923 0 57.3089422 0"/><polygon id="Stroke-7" fill="#000" fill-rule="nonzero" points="38.7689231 164.230615 38.7689231 172.230615 -0.000307692309 172.230615 -0.000307692309 164.230615"/><polygon id="Stroke-9" fill="#000" fill-rule="nonzero" points="38.7689231 198.230615 38.7689231 206.230615 -0.000307692309 206.230615 -0.000307692309 198.230615"/><polygon id="Stroke-11" fill="#000" fill-rule="nonzero" points="38.7689231 232.230615 38.7689231 240.230615 -0.000307692309 240.230615 -0.000307692309 232.230615"/><polygon id="Stroke-13" fill="#000" fill-rule="nonzero" points="38.7689231 266.230615 38.7689231 274.230615 -0.000307692309 274.230615 -0.000307692309 266.230615"/><polygon id="Stroke-15" fill="#000" fill-rule="nonzero" points="38.7689231 300.230615 38.7689231 308.230615 -0.000307692309 308.230615 -0.000307692309 300.230615"/></g></g></g></g></g></svg>