<svg viewBox="368.20000000000005 342.10526315789457 1288.7 1657.894736842105" xmlns="http://www.w3.org/2000/svg" xmlns:xlink="http://www.w3.org/1999/xlink" overflow="visible" width="1288.7px" height="1657.894736842105px"><defs><path d="M16,0.828427125 C24.836556,0.828427125 32,7.99187113 32,16.8284271 C32,25.6649831 24.836556,32.8284271 16,32.8284271 C7.163444,32.8284271 0,25.6649831 0,16.8284271 C0,7.99187113 7.163444,0.828427125 16,0.828427125 Z" id="masterspot-illustrationfamily-path-1"/><path d="M16.8284271,0.828427125 C25.6649831,0.828427125 32.8284271,7.99187113 32.8284271,16.8284271 C32.8284271,25.6649831 25.6649831,32.8284271 16.8284271,32.8284271 C7.99187113,32.8284271 0.828427125,25.6649831 0.828427125,16.8284271 C0.828427125,7.99187113 7.99187113,0.828427125 16.8284271,0.828427125 Z" id="masterspot-illustrationfamily-path-3"/><polygon id="masterspot-illustrationfamily-path-5" points="14.61 657.775 139.738 657.775 179.047 345.471 215.475 657.775 327.432 657.775 315.989 -1.70530257e-13 3.41060513e-13 -1.70530257e-13"/></defs><g id="Master/Spot Illustration/Family" stroke="none" stroke-width="1" fill="none" fill-rule="evenodd"><g transform="translate(600.000000, 200.000000) scale(1 1)" id="Master/Character/Standing"><g id="Master/Character/Standing" stroke="none" stroke-width="1" fill="none" fill-rule="evenodd"><g id="Head" transform="translate(561.000000, 338.000000)" fill="#ccb2ff"><path d="M173.4931,66.499221 C182.1061,110.758221 197.9031,184.720221 112.0001,190.645221 C47.3491,195.103221 34.1221,133.336221 28.0001,98.645221 C19.0001,47.645221 36.0001,13.645221 84.0001,2.64522101 C149.3581,-12.333779 168.3391,40.016221 173.4931,66.499221"/><path d="M140,217 L140,172 L66,172 L64,214 L-6.39488462e-13,246.644721 L37.2,279.966721 C78.318,316.799721 141.503,313.346721 178.363,272.252721 L201.333,246.644721 L140,217 Z" id="Neck"/></g><g id="Hair" transform="translate(404.000000, 144.000000) scale(1 1)"><g id="Hair/Afro" stroke="none" stroke-width="1" fill="none" fill-rule="evenodd"><path d="M220,426 L266,426 C265.875248,382.000719 265.875248,360.000719 266,360 C336.086028,359.59579 470,307.042002 470,209 C470,116 423.889301,0 279.735683,0 C193.832599,0 136.196769,33.0396476 106.828194,99.1189427 C48.9427313,118.372981 20,158.328928 20,218.986784 C20,342.570102 73.1570657,364.708416 181.930952,370.146691 C206.643651,371.38223 219.333333,390 220,426 Z" id="Oval" fill="#ccb2ff"/></g></g><g id="Face" transform="translate(593.000000, 388.000000) scale(1 1)"><defs><path d="M16,0.828427125 C24.836556,0.828427125 32,7.99187113 32,16.8284271 C32,25.6649831 24.836556,32.8284271 16,32.8284271 C7.163444,32.8284271 0,25.6649831 0,16.8284271 C0,7.99187113 7.163444,0.828427125 16,0.828427125 Z" id="facedark-glasses-path-1"/><path d="M16.8284271,0.828427125 C25.6649831,0.828427125 32.8284271,7.99187113 32.8284271,16.8284271 C32.8284271,25.6649831 25.6649831,32.8284271 16.8284271,32.8284271 C7.99187113,32.8284271 0.828427125,25.6649831 0.828427125,16.8284271 C0.828427125,7.99187113 7.99187113,0.828427125 16.8284271,0.828427125 Z" id="facedark-glasses-path-3"/></defs><g id="Face/Dark Glasses" stroke="none" stroke-width="1" fill="none" fill-rule="evenodd"><path d="M139.505488,21.7624637 L147.358805,20.2375363 L147.914623,23.1292784 C150.492,36.6861902 151.956285,46.6187181 152.640849,56.8252335 C153.601715,71.1512888 152.68093,83.6925106 149.422756,94.7127057 C141.400988,121.844902 119.647922,138.009871 81.4351761,140.907001 L80.2721732,140.990729 L79.7278268,133.009271 C115.453825,130.572709 134.63761,116.504402 141.751032,92.4445228 C144.707273,82.445563 145.561191,70.815079 144.658782,57.3606006 C143.998859,47.5214545 142.57044,37.8441959 140.038812,24.5363568 L139.505488,21.7624637 Z" id="Stroke-9" fill="#000" fill-rule="nonzero"/><g id="Group" transform="translate(85.000000, 41.000000) rotate(-5.000000) translate(-85.000000, -41.000000) translate(12.000000, 17.000000)"><path d="M122,0 C135.254834,0 146,10.745166 146,24 C146,37.254834 135.254834,48 122,48 C110.108321,48 100.236654,39.3512987 98.3319809,28.0008768 L96.6680191,28.0008768 C94.7633455,39.3512987 84.891679,48 73,48 C61.108321,48 51.2366545,39.3512987 49.3319809,28.0008768 L15,28 C11.2145483,28 8.13090132,31.0047834 8.00405902,34.7593502 L8,35 C8,37.209139 6.209139,39 4,39 C1.790861,39 0,37.209139 0,35 C0,26.8205929 6.54678637,20.1702698 14.6861718,20.0032178 L15,20 L49.3318133,20.000122 C51.2360754,8.64920863 61.1079722,0 73,0 C84.8920278,0 94.7639246,8.64920863 96.6681867,20.000122 L98.3318133,20.000122 C100.236075,8.64920863 110.107972,0 122,0 Z" id="Glasses" fill="#FFA896"/><g id="Path" transform="translate(106.000000, 7.171573)"><mask id="facedark-glasses-mask-2" fill="#ffffff"><use xlink:href="#facedark-glasses-path-1" fill="#ffffff"/></mask><use id="Mask" fill="#006AD6" xlink:href="#facedark-glasses-path-1"/><path d="M29.8284271,5.82842712 L35.4852814,11.4852814 L8.48528137,38.4852814 L2.82842712,32.8284271 L29.8284271,5.82842712 Z M25,-3 L30.6568542,2.65685425 L3.65685425,29.6568542 L-2,24 L25,-3 Z" id="Combined-Shape" fill-opacity=".5" fill="#FFF" fill-rule="nonzero" mask="url(#facedark-glasses-mask-2)"/></g><g id="Path" transform="translate(56.171573, 7.171573)"><mask id="facedark-glasses-mask-4" fill="#ffffff"><use xlink:href="#facedark-glasses-path-3" fill="#ffffff"/></mask><use id="Mask" fill="#006AD6" xlink:href="#facedark-glasses-path-3"/><path d="M30.8284271,5.82842712 L36.4852814,11.4852814 L9.48528137,38.4852814 L3.82842712,32.8284271 L30.8284271,5.82842712 Z M25,-2 L30.6568542,3.65685425 L3.65685425,30.6568542 L-2,25 L25,-2 Z" id="Combined-Shape" fill-opacity=".5" fill="#FFF" fill-rule="nonzero" mask="url(#facedark-glasses-mask-4)"/></g></g></g></g><g id="Lower Body" transform="translate(200.000000, 1068.000000) scale(1 1)"><defs><polygon id="lower-bodystripes-path-1" points="14.61 657.775 139.738 657.775 179.047 345.471 215.475 657.775 327.432 657.775 315.989 -1.70530257e-13 3.41060513e-13 -1.70530257e-13"/></defs><g id="Lower Body/Stripes" stroke="none" stroke-width="1" fill="none" fill-rule="evenodd"><g id="Group" transform="translate(303.000000, 0.000000)"><path d="M307.1759,731.1315 C245.0229,731.1315 245.0229,730.3085 245.0229,713.2265 L245.0229,650.0455 L307.1759,650.0455 C350.3259,659.0345 441.3629,690.2755 441.3629,721.9695 C441.3629,731.1315 380.0299,731.1315 307.1759,731.1315" id="R-Foot" fill="#242321"/><path d="M25.5504,731.1315 C-16.2276,731.1315 33.9884,650.0455 66.5054,650.0455 C92.8564,650.0455 109.9294,646.9585 115.0754,660.1295 C128.7444,695.1155 136.4374,731.1315 109.9294,731.1315 L25.5504,731.1315 Z" id="L-Foot" fill="#242321"/><g id="Combined-Shape" transform="translate(-0.000000, 0.000000)"><mask id="lower-bodystripes-mask-2" fill="#ffffff"><use xlink:href="#lower-bodystripes-path-1" fill="#ffffff"/></mask><use id="Mask" fill="#667E7D" xlink:href="#lower-bodystripes-path-1"/><path d="M10,0 L10,658 L6,658 L6,0 L10,0 Z M39,0 L39,658 L35,658 L35,0 L39,0 Z M68,0 L68,658 L64,658 L64,0 L68,0 Z M97,0 L97,658 L93,658 L93,0 L97,0 Z M126,0 L126,658 L122,658 L122,0 L126,0 Z M155,0 L155,658 L151,658 L151,0 L155,0 Z M184,0 L184,658 L180,658 L180,0 L184,0 Z M213,0 L213,658 L209,658 L209,0 L213,0 Z M242,0 L242,658 L238,658 L238,0 L242,0 Z M271,0 L271,658 L267,658 L267,0 L271,0 Z M300,0 L300,658 L296,658 L296,0 L300,0 Z M329,0 L329,658 L325,658 L325,0 L329,0 Z" fill="#485D5C" mask="url(#lower-bodystripes-mask-2)"/></g><polygon id="Stroke-7" fill="#000" fill-rule="nonzero" points="193.728313 196.797278 201.665687 197.796322 157.367687 549.742322 149.430313 548.743278"/></g></g></g><g id="Upper Body" transform="translate(100.000000, 428.000000) scale(1 1)"><g id="Upper Body/Long tee" stroke="none" stroke-width="1" fill="none" fill-rule="evenodd"><g id="Group-27" transform="translate(385.000000, 14.000000)"><g id="Smartphone" transform="translate(382.167712, -0.000119)"><path d="M75.6532885,207.656319 L16.5522885,197.304319 C5.67328848,195.398319 -1.60271152,185.033319 0.303288481,174.153319 L27.9092885,16.5523193 C29.8142885,5.67231931 40.1792885,-1.60268069 51.0592885,0.30331931 L110.160288,10.6553193 C121.040288,12.5613193 128.315288,22.9263193 126.409288,33.8063193 L98.8032885,191.407319 C96.8972885,202.287319 86.5332885,209.562319 75.6532885,207.656319" id="Fill-1" fill="#1B3968"/><path d="M38.9823885,69.2537193 L38.9823885,69.2537193 C33.5423885,68.3007193 29.9043885,63.1187193 30.8573885,57.6787193 L37.7583885,18.2777193 C38.7113885,12.8377193 43.8943885,9.20071931 49.3353885,10.1537193 C54.7743885,11.1067193 58.4123885,16.2887193 57.4593885,21.7287193 L50.5573885,61.1287193 C49.6043885,66.5687193 44.4213885,70.2067193 38.9823885,69.2537193" id="Fill-4" fill="#5974AA"/><path d="M46.5741885,25.9136193 L46.5741885,25.9136193 C43.3091885,25.3416193 41.1271885,22.2326193 41.6991885,18.9686193 C42.2701885,15.7046193 45.3801885,13.5216193 48.6441885,14.0936193 C51.9081885,14.6656193 54.0911885,17.7746193 53.5191885,21.0386193 C52.9471885,24.3026193 49.8381885,26.4856193 46.5741885,25.9136193" id="Fill-6" fill="#B9CCEA"/><path d="M43.1229885,45.6135193 L43.1229885,45.6135193 C39.8589885,45.0415193 37.6769885,41.9325193 38.2479885,38.6685193 C38.8199885,35.4045193 41.9299885,33.2215193 45.1929885,33.7935193 C48.4579885,34.3655193 50.6399885,37.4745193 50.0679885,40.7385193 C49.4969885,44.0025193 46.3869885,46.1855193 43.1229885,45.6135193" id="Fill-8" fill="#B9CCEA"/><path d="M39.6727885,65.3137193 L39.6727885,65.3137193 C36.4077885,64.7417193 34.2257885,61.6327193 34.7977885,58.3687193 C35.3687885,55.1047193 38.4787885,52.9217193 41.7427885,53.4937193 C45.0067885,54.0657193 47.1897885,57.1747193 46.6167885,60.4387193 C46.0457885,63.7027193 42.9367885,65.8857193 39.6727885,65.3137193" id="Fill-10" fill="#B9CCEA"/></g><path d="M352.2077,440.8144 C442.4617,462.9364 498.5037,220.3674 498.5037,220.3674 L512.6017,196.0874 C519.8137,183.6654 521.1097,168.6724 516.1357,155.1964 L484.1817,68.6304 C482.6687,64.5324 478.1257,62.4304 474.0227,63.9314 C470.1037,65.3654 467.9687,69.5924 469.1387,73.5974 L482.5287,119.4234 L461.6787,64.3864 C460.2187,60.5324 455.8647,58.6454 452.0547,60.2144 C448.5497,61.6574 446.7287,65.5384 447.8567,69.1564 L466.3907,128.5424 L443.9327,80.7614 C442.0437,76.7434 437.1577,75.1514 433.2647,77.2844 C429.8557,79.1524 428.3747,83.2674 429.8097,86.8784 L449.7297,137.0234 L430.3207,100.2484 C428.2847,96.3904 423.3697,95.1244 419.7227,97.5164 L419.7227,97.5164 C416.8967,99.3704 415.6867,102.9034 416.7827,106.0994 L428.2657,139.5894 C431.6497,149.4614 431.6717,160.1754 428.3257,170.0604 L425.2637,179.1064 C419.5837,195.8874 420.0297,214.1384 426.5237,230.6214 L354.2417,362.2734 L352.2077,440.8144 Z" id="Hand" fill="#ccb2ff"/><path d="M398.9518,254.4367 C385.3888,285.7687 372.9898,303.2587 362.5728,312.7407 L361.6578,246.8217 C360.9748,197.5467 332.4868,152.8937 288.0898,131.5057 L215.8418,96.7017 C198.7958,131.6627 139.8418,93.7017 139.8418,93.7017 L65.7008,131.3277 C18.7608,155.1497 -7.1752,206.7817 1.7408,258.6597 L19.8958,364.3077 L7.32,686 L369,686 L364.7268,468.1397 C449.1348,454.6217 501.4138,292.5547 501.4138,292.5547 L398.9518,254.4367 Z" id="Shirt" fill="#C0DB79"/><polygon id="Stroke-17" fill="#000" fill-rule="nonzero" points="366.016815 272.684933 370.667815 608.061933 362.668585 608.172867 358.017585 272.795867"/><path d="M306.3551,434.9399 L295.0101,491.5339 L343.9831,500.8729 L361.5761,511.3759 C373.2251,518.3299 386.5391,522.0019 400.1061,522.0019 L441.6751,522.0019 C449.8371,522.0019 457.4341,517.8309 461.8151,510.9429 C466.9771,502.8259 465.6291,492.1839 458.6081,485.6099 L430.8651,459.6359 C420.0461,449.5079 404.5161,446.1909 390.5041,451.0149 L306.3551,434.9399 Z" id="Hand" fill="#ccb2ff"/><path d="M407.73176,484.58666 L411.365995,486.96277 L412.346753,487.62493 C412.53087,487.750662 412.724134,487.883353 412.926228,488.022879 L413.906433,488.705161 C415.076748,489.526247 416.338884,490.434461 417.674186,491.422613 C422.578899,495.052207 427.4844,499.02316 432.076343,503.218783 C437.115225,507.82277 441.469297,512.422045 444.944206,516.961687 L445.458825,517.642179 L447.852646,520.846804 L441.443396,525.634446 L439.049575,522.429821 C435.82906,518.118495 431.626102,513.643882 426.680099,509.124759 C422.309846,505.131693 417.612994,501.329638 412.915352,497.853282 L411.837437,497.061486 C410.778053,496.289139 409.775595,495.57567 408.842024,494.925861 L407.586342,494.061966 L406.70575,493.47189 L403.35686,491.28444 L407.73176,484.58666 Z M418.293003,470.697194 L422.036366,472.737184 C422.463192,472.975582 423.102752,473.34589 423.929333,473.84501 C425.557296,474.828034 427.364737,475.98544 429.307301,477.312138 C434.84811,481.096301 440.38705,485.492765 445.569338,490.467246 C452.015732,496.655145 457.450217,503.30655 461.544576,510.404626 L461.993973,511.195139 L463.948834,514.684912 L456.969288,518.594634 L455.014427,515.104861 C451.290295,508.456626 446.181077,502.143649 440.029381,496.238631 C435.190224,491.593521 429.991902,487.467418 424.795449,483.918437 C423.181691,482.816302 421.673263,481.842731 420.301856,481.002262 L419.794063,480.693334 C419.481569,480.504639 419.191146,480.331979 418.924012,480.175524 L417.980396,479.636002 L414.467394,477.723197 L418.293003,470.697194 Z" id="Combined-Shape" fill="#000" fill-rule="nonzero"/><path d="M164.193886,364.613348 C188.419553,390.610744 255.125409,422.004459 305.486951,430.736243 L307.007995,430.993877 L311.0909,431.668938 L288.121305,546.246972 L284.075741,545.836569 L282.520813,545.654118 C282.149186,545.608492 281.753555,545.558656 281.334294,545.504479 L279.642897,545.279434 C277.274387,544.955691 274.628259,544.559229 271.722833,544.083463 L270.924029,543.951737 C260.211904,542.173026 248.285445,539.713717 235.44663,536.46474 C198.766672,527.18255 162.083204,513.430791 127.813849,494.322125 C104.614117,481.385904 83.3203561,466.38969 64.3464962,449.181287 L63.1385534,448.079872 L68.5444466,442.182728 C87.3417372,459.414142 108.540321,474.41553 131.709916,487.334946 C165.318956,506.07542 201.36234,519.587227 237.409234,528.709215 C249.557573,531.78346 260.865952,534.136398 271.062843,535.863308 L272.234459,536.059794 C275.115339,536.538154 277.739398,536.937744 280.088211,537.26506 L281.718,537.486 L301.628,438.169 L300.964323,438.046934 C249.956255,428.417593 184.721491,397.561962 159.127948,370.899074 L158.341114,370.067252 L164.193886,364.613348 Z" id="Stroke-25" fill="#000" fill-rule="nonzero"/></g></g></g></g></g><g transform="translate(300.000000, 200.000000) scale(1 1)" id="Master/Character/Standing"><g id="Master/Character/Standing" stroke="none" stroke-width="1" fill="none" fill-rule="evenodd"><g id="Head" transform="translate(561.000000, 338.000000)" fill="#ccb2ff"><path d="M173.4931,66.499221 C182.1061,110.758221 197.9031,184.720221 112.0001,190.645221 C47.3491,195.103221 34.1221,133.336221 28.0001,98.645221 C19.0001,47.645221 36.0001,13.645221 84.0001,2.64522101 C149.3581,-12.333779 168.3391,40.016221 173.4931,66.499221"/><path d="M140,217 L140,172 L66,172 L64,214 L-6.39488462e-13,246.644721 L37.2,279.966721 C78.318,316.799721 141.503,313.346721 178.363,272.252721 L201.333,246.644721 L140,217 Z" id="Neck"/></g><g id="Hair" transform="translate(404.000000, 144.000000) scale(1 1)"><g id="Hair/Slick Back" stroke="none" stroke-width="1" fill="none" fill-rule="evenodd"><path d="M282.022317,126.74402 C205.791896,108.094437 127.437327,148.29309 105.828018,180.196866 C78.7715844,220.146033 117.904332,218.819984 135.900387,220.911262 C125.707199,228.596052 111.659734,236.719014 100.897521,247.48359 C68.4379737,279.954475 48.106089,307.092863 80.5666838,339.562699 C99.3497321,358.351701 124.883528,366.245095 149.356821,363.290051 C132.622471,384.801383 133.939715,406.383997 157.895332,426.284154 C190.337065,453.235952 228.835816,440.766906 255.779074,408.314891 C277.318171,382.372566 284.927171,351.520194 270.550657,326.415429 C281.427094,310.819425 297.545263,287.266084 310.623395,267.377458 C351.116353,272.659637 376.505535,268.523205 385.093298,243.137507 C403.334568,189.225524 358.252737,145.393604 282.022317,126.74402" id="Hair" fill="#ccb2ff"/></g></g><g id="Face" transform="translate(593.000000, 388.000000) scale(1 1)"><g id="Face/Mask" stroke="none" stroke-width="1" fill="none" fill-rule="evenodd"><path d="M149.887387,62 L39.3839494,62 L23.731044,62 L5.99614639,62 C3.78827551,62 2,63.795698 2,66.0104924 C2,68.2252869 3.78827551,70.0209849 5.99614639,70.0209849 L23.9608225,70.0209849 C24.2165758,74.5438177 24.6881211,78.764861 25.3454872,82.7061724 L5.99614639,82.7061724 C3.78827551,82.7061724 2,84.5018704 2,86.7166649 C2,88.9314593 3.78827551,90.7271573 5.99614639,90.7271573 L27.0268658,90.7271573 C39.2810487,138.580353 81.5602774,138 81.5602774,138 C139.953966,133.95826 151.304021,98.3350614 149.887387,62" id="Mask" fill="#73C8FF"/><path d="M138.007134,13.7702134 L145.857426,12.2297866 L147.549095,20.8795674 L148.018253,23.3396028 C150.609344,37.0644778 152.103078,47.4422921 152.719024,57.8208348 L152.76153,58.5622057 C153.98411,80.6614745 150.609705,98.5962452 141.031202,112.508343 C129.646431,129.04392 110.03365,138.785988 81.1510446,140.92809 L80.2729757,140.990675 L79.7270243,133.009325 C106.810648,131.156714 124.44055,122.497958 134.441949,107.971632 C142.846582,95.7644971 145.907418,79.4963265 144.773744,59.0041074 L144.689081,57.5786659 C144.070509,47.8319356 142.627723,37.9089558 140.153411,24.804129 L139.313239,20.428357 L138.007134,13.7702134 Z" id="Stroke-9" fill="#000" fill-rule="nonzero"/><path d="M86.4723645,29.1098949 C87.6716409,37.3704166 86.9786165,44.3213927 82.8096565,44.9575153 C78.6406965,45.593638 76.9764547,39.0035684 75.7771783,30.7430466 C74.577902,22.4825248 74.290862,15.6807503 78.4667031,15.0436195 C82.6435272,14.4054806 85.2730881,20.8493731 86.4723645,29.1098949" id="Eye-L" fill="#000"/><path d="M119.472365,28.1097699 C120.671641,36.3702923 119.978616,43.3212689 115.809656,43.9573917 C111.640696,44.5945225 109.976455,38.0034442 108.777178,29.7429218 C107.577902,21.4823993 107.290862,14.6816324 111.466703,14.0434934 C115.643527,13.4063625 118.273088,19.8492474 119.472365,28.1097699" id="Eye-R" fill="#000"/></g></g><g id="Lower Body" transform="translate(200.000000, 1068.000000) scale(1 1)"><g id="Lower Body/Scrubs" stroke="none" stroke-width="1" fill="none" fill-rule="evenodd"><g id="Group" transform="translate(303.000000, 0.000000)"><path d="M307.1759,731.1315 C245.0229,731.1315 245.0229,730.3085 245.0229,713.2265 L245.0229,650.0455 L307.1759,650.0455 C350.3259,659.0345 441.3629,690.2755 441.3629,721.9695 C441.3629,731.1315 380.0299,731.1315 307.1759,731.1315" id="R-Foot" fill="#EFEED8"/><path d="M25.5504,731.1315 C-16.2276,731.1315 33.9884,650.0455 66.5054,650.0455 C92.8564,650.0455 109.9294,646.9585 115.0754,660.1295 C128.7444,695.1155 136.4374,731.1315 109.9294,731.1315 L25.5504,731.1315 Z" id="L-Foot" fill="#EFEED8"/><polygon id="Pants" fill="#52D6C0" points="14.61 657.775 139.738 657.775 179.047 345.471 215.475 657.775 327.432 657.775 315.989 5.68434189e-14 -5.68434189e-13 5.68434189e-14"/><polygon id="Stroke-7" fill="#000" fill-rule="nonzero" points="193.728313 196.797278 201.665687 197.796322 157.367687 549.742322 149.430313 548.743278"/></g></g></g><g id="Upper Body" transform="translate(100.000000, 428.000000) scale(1 1)"><g id="Upper Body/Scrubs 1" stroke="none" stroke-width="1" fill="none" fill-rule="evenodd"><g id="Group" transform="translate(343.000000, 124.000000)"><path d="M258,3 L246.665291,74.6827 L182,0 L87.9998915,48.06 C51.7268915,66.762 25.6102915,100.9397 16.1562915,140.6397 L7.96929145,175.0187 L65.9602915,190.4777 L42,516 L396.467,514.285 L374.183291,180.4517 L420.757291,163.3747 L414.970291,126.6547 C409.874291,94.3197 389.275291,66.5257 359.821291,52.2427 L258,3 Z" id="Scrubs" fill="#52D6C0"/><polygon id="Stroke-12" fill="#000" fill-rule="nonzero" points="210.68669 26.7774018 278.48869 105.504402 272.426893 110.724998 204.624893 31.9979982"/><g id="Clipboard" transform="translate(92.850874, 130.254935)"><path d="M108.015917,11.1813647 L102.172917,8.27936465 C94.7599173,4.59736465 85.9489173,5.13636465 79.0399173,9.69336465 L31.9629173,40.7463647 C25.0539173,45.3043647 21.0909173,53.1913647 21.5579173,61.4553647 L21.9249173,67.9693647 L108.015917,11.1813647 Z" id="Fill-14" fill="#C7CBD1"/><path d="M266.280017,219.915765 L148.611017,297.533765 C143.805017,300.703765 137.340017,299.376765 134.170017,294.571765 L1.72301731,93.7817647 C-1.44598269,88.9767647 -0.119982687,82.5107647 4.68501731,79.3417647 L122.355017,1.72376465 C127.160017,-1.44623535 133.625017,-0.120235346 136.795017,4.68476465 L269.241017,205.475765 C272.411017,210.280765 271.085017,216.745765 266.280017,219.915765" id="Fill-16" fill="#AF8358"/><path d="M93.9307322,15.6806546 L98.3357274,22.3586796 L86.9757072,29.8516546 L87.5910386,36.2552019 C88.4373529,45.0774948 84.2707667,53.6160499 76.7929955,58.4022036 L76.4344152,58.6272655 L76.0495619,58.8584032 C68.435923,63.3293651 58.9562741,63.1755848 51.4879253,58.4505906 L51.4879253,58.4505906 L47.4717072,55.9096546 L36.5537024,63.1116747 L32.1487072,56.4336497 L41.6877072,50.1406546 L86.1105677,20.8390323 L86.1097072,20.8396546 L93.9307322,15.6806546 Z M79.4167072,34.8376546 L54.7977072,51.0766546 L55.7649231,51.689874 C60.4866447,54.6771618 66.424655,54.9000409 71.3043229,52.3464759 L71.6353609,52.1680667 L71.9629586,51.981052 L72.2768381,51.7925865 C77.3448375,48.673634 80.1959117,42.9434598 79.6276356,37.01954 L79.6276356,37.01954 L79.4167072,34.8376546 Z" id="Combined-Shape" fill="#000" fill-rule="nonzero"/></g><path d="M272.884291,174.8506 C252.767291,181.2216 197.980291,217.7106 197.980291,217.7106 L234.018291,279.7426 C234.018291,279.7426 283.166291,270.1836 299.706291,248.2776 C307.138291,238.4366 305.518291,227.2966 284.954291,201.3386 C299.998291,189.7156 293.001291,168.4796 272.884291,174.8506" id="Hand" fill="#ccb2ff"/><path d="M197.980491,217.7109 L93.9664915,279.6139 L102.941491,236.7219 L94.5744915,224.0369 C91.4044915,219.2309 92.7304915,212.7659 97.5364915,209.5959 L109.089491,201.9749 L15.3054915,176.9739 C15.3054915,176.9739 -21.7935085,336.5369 19.5264915,376.3839 C73.5024915,428.4359 239.597491,303.4059 239.597491,303.4059 C239.597491,303.4059 236.168491,251.3219 197.980491,217.7109" id="Sleeve" fill="#EFEED8"/><path d="M505.217191,47.876 C511.975191,31.26 505.678191,21.022 489.539191,17.852 C475.982191,15.189 459.379191,38.358 452.188191,51.013 C451.011191,52.685 449.958191,54.592 449.050191,56.758 C449.037191,56.781 449.032191,56.793 449.032191,56.793 L449.035191,56.792 C446.334191,63.251 444.927191,72.005 445.448191,83.74 C448.131191,144.178 478.411191,145.17 478.411191,145.17 L501.991191,148.645 L504.224191,123.081 C504.224191,123.081 524.825191,110.919 534.257191,89.822 C543.688191,68.725 519.365191,54.081 505.217191,47.876 L505.217191,47.876 Z" id="Hand" fill="#ccb2ff"/><g id="Pen" transform="translate(395.975586, 5.067796)"><path d="M144.690906,107.501804 L6.98890582,24.512804 C0.157905819,20.396804 -2.04209418,11.521804 2.07490582,4.69080401 L2.07490582,4.69080401 C3.65990582,2.06080401 7.07590582,1.21380401 9.70490582,2.79880401 L155.014906,90.371804 C169.072906,98.844804 181.673906,109.528804 192.332906,122.012804 L192.352906,122.036804 C193.768906,123.695804 192.257906,126.201804 190.129906,125.724804 L190.099906,125.717804 C174.082906,122.125804 158.749906,115.974804 144.690906,107.501804" id="Fill-26" fill="#C7CBD1"/><polygon id="Fill-28" fill="#7D95B7" points="139.861306 81.240104 21.8853058 10.139104 11.5613058 27.269104 129.538306 98.370104"/><path d="M172.589406,102.728604 C167.037406,98.209604 161.165406,94.079604 155.014406,90.372604 L139.861406,81.239604 L129.537406,98.369604 L144.691406,107.501604 C150.841406,111.208604 157.236406,114.471604 163.826406,117.269604 L172.589406,102.728604 Z" id="Fill-30" fill="#406189"/><path d="M19.3909618,0.462605172 L46.8233355,16.9958304 C52.0258876,20.1321319 53.7023382,26.8918724 50.5668794,32.0956337 C47.4828595,37.2114603 40.895172,38.9168174 35.7289455,35.9911937 L35.4675051,35.8384361 L8.03450507,19.3054361 L12.1639066,12.4535719 L39.5965765,28.986373 C41.0159101,29.841574 42.8600361,29.3844864 43.7150748,27.9661333 C44.538351,26.5997837 44.1447011,24.8389652 42.8471597,23.946459 L42.6934499,23.8474028 L15.2614499,7.31440284 L19.3909618,0.462605172 Z" id="Stroke-32" fill="#000" fill-rule="nonzero"/></g><path d="M443.911691,141.4473 L448.627691,116.8753 L446.118691,90.7313 C444.786691,76.8543 452.078691,63.5753 464.502691,57.2523 L480.813691,48.9513 C484.477691,47.0863 488.939691,47.9303 491.669691,51.0043 C495.022691,54.7803 494.631691,60.5713 490.800691,63.8613 L473.295691,78.8953 C483.731691,93.3063 487.172691,111.6313 482.675691,128.8463 L478.411691,145.1703 L443.911691,141.4473 Z" id="Hand" fill="#ccb2ff"/><path d="M478.999198,45.386226 C484.285111,42.6956619 490.721945,43.9130212 494.660683,48.3480691 C499.423338,53.7115605 498.94938,61.8930815 493.658368,66.6738937 L493.406825,66.8954798 L478.613,79.6 L478.66305,79.6788974 C488.01211,94.3538498 490.955131,112.277398 486.702676,129.245058 L486.545838,129.857923 L478.805545,127.836077 C482.949192,111.972829 479.867737,95.1002785 470.409201,81.7345214 L470.055971,81.2411054 L467.896591,78.2592328 L488.194657,60.8264351 C490.329791,58.9928167 490.547892,55.764932 488.678874,53.6601265 C487.209768,52.005903 484.840471,51.5103509 482.840727,52.4137423 L482.627941,52.5158982 L466.31698,60.8168781 C455.485051,66.3296188 449.075637,77.836393 450.062485,89.9220285 L450.100391,90.3488119 L442.136992,91.1131881 C440.662858,75.7554151 448.63747,61.0526019 462.2735,53.9014837 L462.688442,53.6871018 L478.999198,45.386226 Z" id="Stroke-36" fill="#000" fill-rule="nonzero"/><path d="M439.127491,135.4312 L424.637491,226.7132 L414.841491,165.5442 L374.183491,180.4522 L391.681491,367.1022 C402.173491,375.8922 416.047491,380.4192 433.952491,382.2702 C496.567491,388.7422 496.567491,244.1022 515.714491,148.8862 C486.735491,131.2912 439.127491,135.4312 439.127491,135.4312" id="Sleeve" fill="#EFEED8"/><polygon id="Stroke-40" fill="#000" fill-rule="nonzero" points="380.989 511.5 380.989 519.5 57 519.5 57 511.5"/><polygon id="Stroke-44" fill="#000" fill-rule="nonzero" points="366.537899 137.233857 374.517434 136.662007 392.399284 386.183543 384.419749 386.755393"/><polygon id="Stroke-46" fill="#000" fill-rule="nonzero" points="199.372095 212.227686 203.463505 219.102304 85.4348876 289.346714 81.3434778 282.472096"/><polygon id="Stroke-48" fill="#000" fill-rule="nonzero" points="426.054024 192.276885 433.955107 193.531032 422.042959 268.577115 414.141876 267.322968"/></g></g></g></g></g><g id="Left-Character" transform="translate(0.000000, 200.000000)"><g id="Head" transform="translate(561.000000, 338.000000)" fill="#ccb2ff"><path d="M173.4931,66.499221 C182.1061,110.758221 197.9031,184.720221 112.0001,190.645221 C47.3491,195.103221 34.1221,133.336221 28.0001,98.645221 C19.0001,47.645221 36.0001,13.645221 84.0001,2.64522101 C149.3581,-12.333779 168.3391,40.016221 173.4931,66.499221"/><path d="M140,217 L140,172 L66,172 L64,214 L-6.39488462e-13,246.644721 L37.2,279.966721 C78.318,316.799721 141.503,313.346721 178.363,272.252721 L201.333,246.644721 L140,217 Z" id="Neck"/></g><g id="Hair" transform="translate(404.000000, 144.000000) scale(1 1)"><g id="Hair/Wavy Bob" stroke="none" stroke-width="1" fill="none" fill-rule="evenodd"><path d="M499.844552,358.16849 C495.057687,308.34065 473.359515,228.401154 393.314024,147.254685 C262.495858,14.6380252 193.126214,171.026025 193.126214,171.026025 C57.5781699,104.440741 36.6789478,266.465844 34.9967069,355.51292 C34.5465137,379.375439 60.5973137,394.33553 80.9551642,381.876006 C91.1169935,375.656501 103.98796,375.993861 113.81129,382.737641 L129.769784,393.693862 C143.804415,403.329136 161.914718,404.742401 177.272575,397.399123 L178.325685,396.895363 C202.676009,385.254164 231.271825,386.777983 254.247634,400.940263 C262.812702,406.220631 273.44524,406.887372 282.604107,402.719381 L308.511301,390.927738 C330.411206,380.959663 355.946848,383.296109 375.674428,397.072021 C386.231744,404.442652 400.301706,404.310444 410.716555,396.74036 L417.959537,391.478228 C429.176756,383.325742 443.988682,382.062921 456.424272,388.200365 C477.668832,398.684738 502.109194,381.750636 499.844552,358.16849 Z" id="Hair" fill="#ccb2ff"/></g></g><g id="Face" transform="translate(593.000000, 388.000000) scale(1 1)" fill="#000"><defs><path d="M16,0.828427125 C24.836556,0.828427125 32,7.99187113 32,16.8284271 C32,25.6649831 24.836556,32.8284271 16,32.8284271 C7.163444,32.8284271 0,25.6649831 0,16.8284271 C0,7.99187113 7.163444,0.828427125 16,0.828427125 Z" id="facedark-glasses-path-1"/><path d="M16.8284271,0.828427125 C25.6649831,0.828427125 32.8284271,7.99187113 32.8284271,16.8284271 C32.8284271,25.6649831 25.6649831,32.8284271 16.8284271,32.8284271 C7.99187113,32.8284271 0.828427125,25.6649831 0.828427125,16.8284271 C0.828427125,7.99187113 7.99187113,0.828427125 16.8284271,0.828427125 Z" id="facedark-glasses-path-3"/></defs><g id="Face/Dark Glasses" stroke="none" stroke-width="1" fill="none" fill-rule="evenodd"><path d="M139.505488,21.7624637 L147.358805,20.2375363 L147.914623,23.1292784 C150.492,36.6861902 151.956285,46.6187181 152.640849,56.8252335 C153.601715,71.1512888 152.68093,83.6925106 149.422756,94.7127057 C141.400988,121.844902 119.647922,138.009871 81.4351761,140.907001 L80.2721732,140.990729 L79.7278268,133.009271 C115.453825,130.572709 134.63761,116.504402 141.751032,92.4445228 C144.707273,82.445563 145.561191,70.815079 144.658782,57.3606006 C143.998859,47.5214545 142.57044,37.8441959 140.038812,24.5363568 L139.505488,21.7624637 Z" id="Stroke-9" fill="#000" fill-rule="nonzero"/><g id="Group" transform="translate(85.000000, 41.000000) rotate(-5.000000) translate(-85.000000, -41.000000) translate(12.000000, 17.000000)"><path d="M122,0 C135.254834,0 146,10.745166 146,24 C146,37.254834 135.254834,48 122,48 C110.108321,48 100.236654,39.3512987 98.3319809,28.0008768 L96.6680191,28.0008768 C94.7633455,39.3512987 84.891679,48 73,48 C61.108321,48 51.2366545,39.3512987 49.3319809,28.0008768 L15,28 C11.2145483,28 8.13090132,31.0047834 8.00405902,34.7593502 L8,35 C8,37.209139 6.209139,39 4,39 C1.790861,39 0,37.209139 0,35 C0,26.8205929 6.54678637,20.1702698 14.6861718,20.0032178 L15,20 L49.3318133,20.000122 C51.2360754,8.64920863 61.1079722,0 73,0 C84.8920278,0 94.7639246,8.64920863 96.6681867,20.000122 L98.3318133,20.000122 C100.236075,8.64920863 110.107972,0 122,0 Z" id="Glasses" fill="#FFA896"/><g id="Path" transform="translate(106.000000, 7.171573)"><mask id="facedark-glasses-mask-2" fill="#ffffff"><use xlink:href="#facedark-glasses-path-1" fill="#ffffff"/></mask><use id="Mask" fill="#006AD6" xlink:href="#facedark-glasses-path-1"/><path d="M29.8284271,5.82842712 L35.4852814,11.4852814 L8.48528137,38.4852814 L2.82842712,32.8284271 L29.8284271,5.82842712 Z M25,-3 L30.6568542,2.65685425 L3.65685425,29.6568542 L-2,24 L25,-3 Z" id="Combined-Shape" fill-opacity=".5" fill="#FFF" fill-rule="nonzero" mask="url(#facedark-glasses-mask-2)"/></g><g id="Path" transform="translate(56.171573, 7.171573)"><mask id="facedark-glasses-mask-4" fill="#ffffff"><use xlink:href="#facedark-glasses-path-3" fill="#ffffff"/></mask><use id="Mask" fill="#006AD6" xlink:href="#facedark-glasses-path-3"/><path d="M30.8284271,5.82842712 L36.4852814,11.4852814 L9.48528137,38.4852814 L3.82842712,32.8284271 L30.8284271,5.82842712 Z M25,-2 L30.6568542,3.65685425 L3.65685425,30.6568542 L-2,25 L25,-2 Z" id="Combined-Shape" fill-opacity=".5" fill="#FFF" fill-rule="nonzero" mask="url(#facedark-glasses-mask-4)"/></g></g></g></g><g id="Lower-Body" transform="translate(200.000000, 1068.000000)"><g id="Group" transform="translate(303.000000, 0.000000)"><path d="M307.1759,731.1315 C245.0229,731.1315 245.0229,730.3085 245.0229,713.2265 L245.0229,650.0455 L307.1759,650.0455 C350.3259,659.0345 441.3629,690.2755 441.3629,721.9695 C441.3629,731.1315 380.0299,731.1315 307.1759,731.1315" id="R-Foot" fill="#EFEED8"/><path d="M25.5504,731.1315 C-16.2276,731.1315 33.9884,650.0455 66.5054,650.0455 C92.8564,650.0455 109.9294,646.9585 115.0754,660.1295 C128.7444,695.1155 136.4374,731.1315 109.9294,731.1315 L25.5504,731.1315 Z" id="L-Foot" fill="#EFEED8"/><polygon id="Pants" fill="#52D6C0" points="14.61 657.775 139.738 657.775 179.047 345.471 215.475 657.775 327.432 657.775 315.989 5.68434189e-14 -5.68434189e-13 5.68434189e-14"/><polygon id="Stroke-7" fill="#000" fill-rule="nonzero" points="193.728313 196.797278 201.665687 197.796322 157.367687 549.742322 149.430313 548.743278"/></g></g><g id="Upper Body" transform="translate(100.000000, 428.000000) scale(1 1)"><g id="Upper Body/Dr 1" stroke="none" stroke-width="1" fill="none" fill-rule="evenodd"><g id="Group-36" transform="translate(279.000000, 100.000000)"><path d="M584.9268,307.8066 L488.3898,122.7726 C478.1708,103.1846 461.7518,87.5326 441.6988,78.2606 L378.5558,50.9646 L337.6078,30.4476 L303,100 L212.2858,36.8296 L181.4998,53.1726 L181.5378,52.9086 L125.8418,82.7196 C96.9688,98.1726 74.4278,123.2586 62.1388,153.6136 L14.6168,270.9916 C-8.6842,328.5456 -3.9322,393.6586 27.4778,447.2196 L113.5758,592.4786 L195,540 L431.351693,540 C440.049701,540 447.154452,533.051418 447.347742,524.355557 L452.1618,307.7776 L452.1618,307.7776 L452.2448,308.0646 L470.8838,338.5976 C500.0838,386.4316 548.0138,419.8206 603.0038,430.6336 L736.2898,456.8416 L757.2478,354.1766 L584.9268,307.8066 Z" id="Scrub-Color" fill="#52D6C0"/><polygon id="Stroke-10" fill="#000" fill-rule="nonzero" points="223.150612 43.3875516 314.233212 104.681452 309.766788 111.318548 218.684188 50.0246484"/><path d="M436.0171,535.7838 L436.0171,543.7838 L171.0171,543.7838 L171.0171,535.7838 L436.0171,535.7838 Z M446.989,502.5 L446.989,510.5 L131,510.5 L131,502.5 L446.989,502.5 Z" id="Stroke-15" fill="#000" fill-rule="nonzero"/><path d="M866.15503,457.285836 L866.15503,457.285836 C867.834485,453.505437 866.227626,449.07276 862.515489,447.248114 L825.308523,428.952892 L879.64051,437.331746 C884.099191,438.01978 888.254488,434.919832 888.864509,430.450315 C889.433356,426.285267 886.708306,422.380264 882.601768,421.478776 L829.718446,409.865617 L891.68816,406.856684 C896.765531,406.609642 900.727961,402.373082 900.637435,397.291377 C900.547013,392.44913 896.796953,388.466113 891.968791,388.086881 L830.080341,383.220796 L884.94542,371.188316 C889.53304,370.181726 892.465043,365.681871 891.529966,361.077998 C890.694573,356.967126 887.014942,354.057877 882.822806,354.195484 L825.334527,356.073223 L825.334527,356.073223 L806.143235,356.699497 C814.687867,347.948996 823.143651,338.22116 830.675193,327.720775 C833.011261,324.4648 832.574602,319.97578 829.70436,317.178134 C827.080076,314.619945 823.072139,314.12586 819.905012,315.971093 L774.496889,342.4393 C767.746565,346.373559 762.24337,351.952599 758.404462,358.532811 L727.675857,351.015355 L716.173217,414.314547 L815.368317,447.601341 L856.666652,461.460635 C860.432965,462.724018 864.542753,460.915625 866.15503,457.285836" id="Hand-color" fill="#ccb2ff"/><path d="M829.715992,366.329905 L830.497106,370.492347 C830.559447,370.843039 830.645655,371.362043 830.74877,372.038373 L830.906707,373.114411 C831.064049,374.227739 831.218966,375.451933 831.365701,376.777976 C832.999724,391.54466 832.644047,407.557885 828.884977,422.720759 C827.868164,426.822255 826.614651,430.761872 825.109124,434.518561 L824.692266,435.538561 L823.153705,439.230828 L815.769172,436.153705 L817.307734,432.461439 C818.839223,428.786144 820.105356,424.888633 821.120039,420.795732 C824.617322,406.688818 824.953227,391.565751 823.414234,377.657853 L823.274613,376.449139 C823.156655,375.470263 823.035117,374.56307 822.913274,373.732932 L822.800361,372.985886 L822.592628,371.738942 L821.853686,367.807789 L829.715992,366.329905 Z M802.234856,352.773018 L810.232833,352.952937 L810.142873,356.951925 C809.758295,374.047693 804.515277,387.171208 795.977034,396.704511 C792.832718,400.215271 789.454369,402.986475 786.059058,405.101003 C784.853481,405.85181 783.724164,406.469338 782.697061,406.964097 L782.099529,407.243451 C781.857747,407.352754 781.648244,407.442475 781.473266,407.513515 L781.236976,407.606177 L777.492765,409.013615 L774.677888,401.525193 L778.456163,400.103821 L778.559884,400.060304 C778.744237,399.981904 778.967095,399.881057 779.225237,399.756709 C779.998425,399.384262 780.875147,398.904857 781.829919,398.310245 C784.607034,396.580717 787.401112,394.28878 790.017727,391.367221 C797.174631,383.376241 801.659479,372.307967 802.12549,357.491843 L802.144897,356.772006 L802.234856,352.773018 Z" id="Combined-Shape" fill="#000" fill-rule="nonzero"/><path d="M452.2447,308.0644 L519,899 L388,919 L322,491 L322,6 L377.7437,48.6904 L441.6987,78.2604 C461.7517,87.5324 478.1707,103.1844 488.3907,122.7724 L584.9267,307.8064 L757.2477,354.1764 L736.2897,456.8414 L603.0037,430.6334 C548.0147,419.8204 500.0837,386.4324 470.8837,338.5974 L452.2447,308.0644 Z" id="Fill-23" fill="#EFEED8"/><path d="M95.1748,562.6557 L27.4788,447.2187 C-3.9322,393.6577 -8.6842,328.5457 14.6168,270.9917 L62.1388,153.6137 C74.4278,123.2587 96.9688,98.1727 125.8418,82.7187 L181.5378,52.9087 L247,0 L296,492 L251,930 L84.6788,914.9607 L95.1748,562.6557 Z" id="Fill-25" fill="#EFEED8"/><polygon id="Stroke-28" fill="#000" fill-rule="nonzero" points="375.452614 62.8771646 383.327186 64.2882354 370.917 133.545 396.888938 161.819987 356.791882 249.824173 349.511918 246.507227 387.41 163.326 362.342935 136.036574"/><polygon id="Stroke-30" fill="#000" fill-rule="nonzero" points="181.683403 82.9322674 188.538197 78.8077326 218.953184 129.3561 196.791 169.372 254.49603 255.427268 247.85157 259.882732 187.426153 169.769934 209.716 129.522"/><polygon id="Stroke-32" fill="#000" fill-rule="nonzero" points="113.22111 597.751812 108.41129 591.359188 189.433 530.398 121.402998 396.116243 101.073894 355.984037 108.210506 352.368963 121.612 378.824 126.782661 254.607148 134.775739 254.939852 129.01 393.431 195.926 525.512 215.634268 510.684205 220.444132 517.076795"/><polygon id="Stroke-34" fill="#000" fill-rule="nonzero" points="444.129935 200.776544 495.153935 651.691544 487.204665 652.591056 436.180665 201.676056"/></g></g></g></g></g></svg>