<svg viewBox="-213.86249999999995 123.42168674698792 1710.8999999999999 1471.566265060241" fill="none" xmlns="http://www.w3.org/2000/svg" xmlns:xlink="http://www.w3.org/1999/xlink" overflow="visible" width="1710.8999999999999px" height="1471.566265060241px"><g id="Master/Compositions/Doctor Prescription"><g id="Background Elements Medicine" transform="translate(473 214) scale(1 1)"><g id="Background Elements Medicine/Stethoscope"><g id="Stethoscope"><path id="Combined Shape" fill-rule="evenodd" clip-rule="evenodd" d="M822.459 7.95518C819.605 7.83434 816.736 7.77332 813.852 7.77332H732.028H644.166C641.018 7.77332 637.872 7.84761 634.729 7.99605V57.4582C637.87 57.2611 641.017 57.1624 644.166 57.1624H733.404H813.852C816.741 57.1624 819.61 57.2437 822.459 57.4041V7.95518ZM633.729 57.5243C631.689 57.6659 629.651 57.8492 627.617 58.0739C544.837 67.2206 485.14 141.793 494.28 224.635L532.301 569.261C540.738 645.733 605.309 703.611 682.187 703.611H732.116H775.831C852.709 703.611 917.279 645.733 925.716 569.261L963.738 224.635C964.344 219.135 964.648 213.607 964.648 208.074C964.648 127.957 902.265 62.4221 823.459 57.4637V8C929.536 13.0168 1014 100.674 1014 208.074C1014 215.417 1013.6 222.756 1012.79 230.055L974.77 574.681C963.572 676.18 877.869 753 775.831 753H729.009H682.187C580.149 753 494.446 676.18 483.248 574.681L445.226 230.055C433.096 120.101 512.33 21.1232 622.201 8.98313C626.034 8.55952 629.879 8.24698 633.729 8.04579V57.5243Z" fill="white"/><path id="Combined Shape Copy" fill-rule="evenodd" clip-rule="evenodd" d="M820.459 4.85474L823.6 5.00332C931.634 10.1125 1017 99.4283 1017 208.074C1017 214.954 1016.65 221.829 1015.95 228.686L1015.77 230.384L977.752 575.01C966.511 676.896 881.235 754.437 778.909 755.977L775.831 756H682.187C579.758 756 493.386 679.684 480.627 578.07L480.266 575.01L442.244 230.384C429.932 118.783 510.353 18.3234 621.871 6.00126C625.762 5.57135 629.664 5.25409 633.573 5.04985L636.73 4.88491L636.729 60.3232L633.937 60.5171C631.937 60.6559 629.939 60.8355 627.946 61.0558C547.719 69.9204 489.467 141.56 497.011 221.847L497.262 224.306L535.283 568.932C543.461 643.06 605.503 699.473 679.907 700.594L682.187 700.611H775.831C850.35 700.611 913.189 645.088 922.467 571.198L922.734 568.932L960.756 224.306C961.35 218.916 961.648 213.497 961.648 208.074C961.648 129.893 900.849 65.3392 823.271 60.4578L820.459 60.2809L820.459 4.85474ZM829.58 11.3917L826.458 11.169L826.459 54.674L828.471 54.8486C906.088 62.1668 966.407 127.006 967.629 205.637L967.648 208.074C967.648 213.716 967.338 219.355 966.719 224.964L928.696 569.613L928.423 571.924C918.766 648.835 853.376 706.611 775.831 706.611L682.164 706.611L679.839 706.593C602.389 705.427 537.829 646.724 529.319 569.59L491.295 224.94L491.039 222.433C483.187 138.863 543.802 64.3166 627.287 55.0921C628.324 54.9775 629.362 54.8734 630.401 54.78L630.729 54.752V11.234L630.095 11.2764C628.201 11.4121 626.309 11.5751 624.419 11.7655L622.53 11.965C514.306 23.9231 436.259 121.418 448.208 229.726L486.227 574.33L486.583 577.345C498.962 675.937 582.784 750 682.187 750L775.808 750L778.842 749.977C878.12 748.483 960.879 673.232 971.788 574.352L1009.81 229.739L1009.99 228.066C1010.66 221.424 1011 214.751 1011 208.074C1011 104.743 931.434 19.4293 829.58 11.3917Z" fill="black"/><circle id="Oval" cx="633.5" cy="36.5" r="36.5" fill="black"/><circle id="Oval Copy 24" cx="829.5" cy="36.5" r="36.5" fill="black"/><path id="Rectangle" fill-rule="evenodd" clip-rule="evenodd" d="M673 704H772L755.8 831.456C753.798 847.2 740.403 859 724.533 859V859C709.035 859 695.837 847.733 693.405 832.427L673 704Z" fill="black"/><path id="Path 9" d="M709.02 792H738.927L738.926 1246.31C738.016 1304.33 773.601 1332.14 853.167 1332.14C911.124 1332.14 940.462 1314.63 956.189 1273.79C963.73 1254.2 968.443 1228.67 971.07 1194.47L971.29 1191.52C973.458 1161.55 974.092 1128.62 974.092 1069.54C974.092 1008.72 966.541 963.926 951.99 935.502C938.865 909.865 920.656 898.272 895.39 898.939L894.622 898.963L893.545 869.125C931.187 867.771 960.224 885.98 978.621 921.914C995.724 955.321 1004 1004.42 1004 1069.54L1003.99 1083.39C1003.89 1133.53 1003.21 1163.89 1001.25 1191.81L1001.12 1193.67C998.347 1232.03 993.102 1261.14 984.106 1284.5C963.645 1337.64 922.828 1362 853.167 1362C759.312 1362 708.835 1323.28 709.001 1248.13L709.02 1246.08V792Z" fill="black"/><rect id="Rectangle_2" x="852" y="835" width="49" height="102" fill="black"/><path id="Rectangle_3" fill-rule="evenodd" clip-rule="evenodd" d="M812 770L853 837.473V939.527L812 1007V770Z" fill="white"/><path id="Rectangle Copy 3" fill-rule="evenodd" clip-rule="evenodd" d="M809 1007V770C809 766.966 812.988 765.849 814.564 768.442L855.564 835.915C855.849 836.385 856 836.924 856 837.473V939.527C856 940.076 855.849 940.615 855.564 941.084L814.564 1008.56C812.988 1011.15 809 1010.03 809 1007ZM850 838.313L815 780.714V996.285L850 938.686V838.313Z" fill="black"/></g><g id="Group-Copy"><g id="Medicine-1"><g id="Rectangle_4"><path id="Vector" d="M625.5 1015H402.5V1073H625.5V1015Z" fill="white"/></g><g id="Rectangle-Copy-5"><path id="Vector_2" d="M628.5 1012H399.5V1076H628.5V1012ZM622.5 1018V1070H405.5V1018H622.5Z" fill="black"/></g><g id="Rectangle_5"><path id="Vector_3" d="M608 1050.5H419C395.804 1050.5 377 1069.3 377 1092.5V1320.5C377 1343.7 395.804 1362.5 419 1362.5H608C631.196 1362.5 650 1343.7 650 1320.5V1092.5C650 1069.3 631.196 1050.5 608 1050.5Z" fill="white"/><path id="Vector_4" d="M608 1364H419C407.466 1363.99 396.408 1359.4 388.253 1351.25C380.097 1343.09 375.511 1332.03 375.5 1320.5V1092.5C375.511 1080.97 380.097 1069.91 388.253 1061.75C396.408 1053.6 407.466 1049.01 419 1049H608C619.534 1049.01 630.592 1053.6 638.747 1061.75C646.903 1069.91 651.489 1080.97 651.5 1092.5V1320.5C651.489 1332.03 646.903 1343.09 638.747 1351.25C630.592 1359.4 619.534 1363.99 608 1364ZM419 1052C408.263 1052.01 397.969 1056.28 390.377 1063.88C382.784 1071.47 378.513 1081.76 378.5 1092.5V1320.5C378.513 1331.24 382.784 1341.53 390.377 1349.12C397.969 1356.72 408.263 1360.99 419 1361H608C618.737 1360.99 629.031 1356.72 636.623 1349.12C644.216 1341.53 648.487 1331.24 648.5 1320.5V1092.5C648.487 1081.76 644.216 1071.47 636.623 1063.88C629.031 1056.28 618.737 1052.01 608 1052H419Z" fill="black"/></g><g id="Rectangle-Copy-6"><path id="Vector_5" d="M609.5 1049C620.639 1049 631.322 1053.42 639.198 1061.3C647.075 1069.18 651.5 1079.86 651.5 1091V1322C651.5 1333.14 647.075 1343.82 639.198 1351.7C631.322 1359.58 620.639 1364 609.5 1364H417.5C411.984 1364 406.523 1362.91 401.427 1360.8C396.332 1358.69 391.702 1355.6 387.802 1351.7C383.901 1347.8 380.808 1343.17 378.697 1338.07C376.586 1332.98 375.5 1327.52 375.5 1322V1091C375.5 1079.86 379.925 1069.18 387.802 1061.3C395.678 1053.42 406.361 1049 417.5 1049H609.5ZM609.5 1055H417.5C408.055 1055 398.988 1058.71 392.254 1065.33C385.52 1071.95 381.657 1080.96 381.5 1090.4V1322C381.499 1331.44 385.209 1340.51 391.831 1347.25C398.453 1353.98 407.457 1357.84 416.9 1358H609.5C618.945 1358 628.012 1354.29 634.746 1347.67C641.48 1341.05 645.343 1332.04 645.5 1322.6V1091C645.501 1081.56 641.791 1072.49 635.169 1065.75C628.547 1059.02 619.543 1055.16 610.1 1055H609.5Z" fill="black"/></g><g id="Rectangle_6"><path id="Vector_6" d="M651.5 945H375.5V1032H651.5V945Z" fill="white"/></g><g id="Rectangle-Copy-4"><path id="Vector_7" d="M654.5 942H372.5V1035H654.5V942ZM648.5 948V1029H378.5V948H648.5Z" fill="black"/></g><g id="Rectangle_7"><path id="Vector_8" d="M649.5 1133H378.5V1300H649.5V1133Z" fill="white"/></g><g id="Rectangle-Copy"><path id="Vector_9" d="M652.5 1130H375.5V1303H652.5V1130ZM646.5 1136V1297H381.5V1136H646.5Z" fill="black"/></g><g id="Rectangle-Copy-2"><path id="Vector_10" d="M651 1131.5H377V1301.5H651V1131.5ZM648 1134.5V1298.5H380V1134.5H648Z" fill="black"/></g></g><g id="Pill"><g id="Rectangle_8"><path id="Vector_11" fill-rule="evenodd" clip-rule="evenodd" d="M663.5 1277H742.5C754.036 1277 765.099 1281.59 773.256 1289.74C781.413 1297.9 785.997 1308.96 786 1320.5V1320.5C785.997 1332.04 781.413 1343.1 773.256 1351.26C765.099 1359.41 754.036 1364 742.5 1364H663.5C651.964 1364 640.901 1359.41 632.744 1351.26C624.587 1343.1 620.003 1332.04 620 1320.5V1320.5C620.003 1308.96 624.587 1297.9 632.744 1289.74C640.901 1281.59 651.964 1277 663.5 1277V1277Z" fill="white"/><path id="Vector_12" d="M742.5 1367H663.5C651.167 1367 639.34 1362.1 630.62 1353.38C621.899 1344.66 617 1332.83 617 1320.5C617 1308.17 621.899 1296.34 630.62 1287.62C639.34 1278.9 651.167 1274 663.5 1274H742.5C754.833 1274 766.66 1278.9 775.38 1287.62C784.101 1296.34 789 1308.17 789 1320.5C789 1332.83 784.101 1344.66 775.38 1353.38C766.66 1362.1 754.833 1367 742.5 1367V1367ZM663.5 1280C652.759 1280 642.457 1284.27 634.862 1291.86C627.267 1299.46 623 1309.76 623 1320.5C623 1331.24 627.267 1341.54 634.862 1349.14C642.457 1356.73 652.759 1361 663.5 1361H742.5C753.241 1361 763.543 1356.73 771.138 1349.14C778.733 1341.54 783 1331.24 783 1320.5C783 1309.76 778.733 1299.46 771.138 1291.86C763.543 1284.27 753.241 1280 742.5 1280H663.5Z" fill="black"/></g><g id="Rectangle-Copy-7"><path id="Vector_13" fill-rule="evenodd" clip-rule="evenodd" d="M663.5 1277H742.5C754.036 1277 765.099 1281.59 773.256 1289.74C781.413 1297.9 785.997 1308.96 786 1320.5V1320.5C785.997 1332.04 781.413 1343.1 773.256 1351.26C765.099 1359.41 754.036 1364 742.5 1364H663.5C651.964 1364 640.901 1359.41 632.744 1351.26C624.587 1343.1 620.003 1332.04 620 1320.5V1320.5C620.003 1308.96 624.587 1297.9 632.744 1289.74C640.901 1281.59 651.964 1277 663.5 1277V1277Z" fill="white"/><path id="Vector_14" d="M742.5 1367H663.5C651.167 1367 639.34 1362.1 630.62 1353.38C621.899 1344.66 617 1332.83 617 1320.5C617 1308.17 621.899 1296.34 630.62 1287.62C639.34 1278.9 651.167 1274 663.5 1274H742.5C754.833 1274 766.66 1278.9 775.38 1287.62C784.101 1296.34 789 1308.17 789 1320.5C789 1332.83 784.101 1344.66 775.38 1353.38C766.66 1362.1 754.833 1367 742.5 1367V1367ZM663.5 1280C652.759 1280 642.457 1284.27 634.862 1291.86C627.267 1299.46 623 1309.76 623 1320.5C623 1331.24 627.267 1341.54 634.862 1349.14C642.457 1356.73 652.759 1361 663.5 1361H742.5C753.241 1361 763.543 1356.73 771.138 1349.14C778.733 1341.54 783 1331.24 783 1320.5C783 1309.76 778.733 1299.46 771.138 1291.86C763.543 1284.27 753.241 1280 742.5 1280H663.5Z" fill="black"/></g><g id="Rectangle-Copy-9"><path id="Vector_15" d="M742.5 1274H663.5C651.167 1274 639.34 1278.9 630.62 1287.62C621.899 1296.34 617 1308.17 617 1320.5C617 1332.83 621.899 1344.66 630.62 1353.38C639.34 1362.1 651.167 1367 663.5 1367H742.5C754.833 1367 766.66 1362.1 775.38 1353.38C784.101 1344.66 789 1332.83 789 1320.5C789 1308.17 784.101 1296.34 775.38 1287.62C766.66 1278.9 754.833 1274 742.5 1274ZM663.5 1280H742.5C753.241 1280 763.543 1284.27 771.138 1291.86C778.733 1299.46 783 1309.76 783 1320.5C783 1331.24 778.733 1341.54 771.138 1349.14C763.543 1356.73 753.241 1361 742.5 1361H663.5C652.759 1361 642.457 1356.73 634.862 1349.14C627.267 1341.54 623 1331.24 623 1320.5C623 1309.76 627.267 1299.46 634.862 1291.86C642.457 1284.27 652.759 1280 663.5 1280V1280Z" fill="black"/></g><g id="Combined-Shape"><path id="Vector_16" fill-rule="evenodd" clip-rule="evenodd" d="M703 1277V1364H663.5C651.963 1364 640.899 1359.42 632.741 1351.26C624.583 1343.1 620 1332.04 620 1320.5C620 1308.96 624.583 1297.9 632.741 1289.74C640.899 1281.58 651.963 1277 663.5 1277H703Z" fill="black"/></g></g><g id="Pill-2"><g id="Rectangle_9"><path id="Vector_17" fill-rule="evenodd" clip-rule="evenodd" d="M545.5 1277H624.5C636.036 1277 647.099 1281.59 655.256 1289.74C663.413 1297.9 667.997 1308.96 668 1320.5V1320.5C667.997 1332.04 663.413 1343.1 655.256 1351.26C647.099 1359.41 636.036 1364 624.5 1364H545.5C533.964 1364 522.901 1359.41 514.744 1351.26C506.587 1343.1 502.003 1332.04 502 1320.5V1320.5C502.003 1308.96 506.587 1297.9 514.744 1289.74C522.901 1281.59 533.964 1277 545.5 1277V1277Z" fill="white"/><path id="Vector_18" d="M624.5 1367H545.5C533.167 1367 521.34 1362.1 512.62 1353.38C503.899 1344.66 499 1332.83 499 1320.5C499 1308.17 503.899 1296.34 512.62 1287.62C521.34 1278.9 533.167 1274 545.5 1274H624.5C636.833 1274 648.66 1278.9 657.38 1287.62C666.101 1296.34 671 1308.17 671 1320.5C671 1332.83 666.101 1344.66 657.38 1353.38C648.66 1362.1 636.833 1367 624.5 1367V1367ZM545.5 1280C534.759 1280 524.457 1284.27 516.862 1291.86C509.267 1299.46 505 1309.76 505 1320.5C505 1331.24 509.267 1341.54 516.862 1349.14C524.457 1356.73 534.759 1361 545.5 1361H624.5C635.241 1361 645.543 1356.73 653.138 1349.14C660.733 1341.54 665 1331.24 665 1320.5C665 1309.76 660.733 1299.46 653.138 1291.86C645.543 1284.27 635.241 1280 624.5 1280H545.5Z" fill="black"/></g><g id="Rectangle-Copy-8"><path id="Vector_19" fill-rule="evenodd" clip-rule="evenodd" d="M545.5 1277H624.5C636.036 1277 647.099 1281.59 655.256 1289.74C663.413 1297.9 667.997 1308.96 668 1320.5V1320.5C667.997 1332.04 663.413 1343.1 655.256 1351.26C647.099 1359.41 636.036 1364 624.5 1364H545.5C533.964 1364 522.901 1359.41 514.744 1351.26C506.587 1343.1 502.003 1332.04 502 1320.5V1320.5C502.003 1308.96 506.587 1297.9 514.744 1289.74C522.901 1281.59 533.964 1277 545.5 1277V1277Z" fill="white"/><path id="Vector_20" d="M624.5 1367H545.5C533.167 1367 521.34 1362.1 512.62 1353.38C503.899 1344.66 499 1332.83 499 1320.5C499 1308.17 503.899 1296.34 512.62 1287.62C521.34 1278.9 533.167 1274 545.5 1274H624.5C636.833 1274 648.66 1278.9 657.38 1287.62C666.101 1296.34 671 1308.17 671 1320.5C671 1332.83 666.101 1344.66 657.38 1353.38C648.66 1362.1 636.833 1367 624.5 1367V1367ZM545.5 1280C534.759 1280 524.457 1284.27 516.862 1291.86C509.267 1299.46 505 1309.76 505 1320.5C505 1331.24 509.267 1341.54 516.862 1349.14C524.457 1356.73 534.759 1361 545.5 1361H624.5C635.241 1361 645.543 1356.73 653.138 1349.14C660.733 1341.54 665 1331.24 665 1320.5C665 1309.76 660.733 1299.46 653.138 1291.86C645.543 1284.27 635.241 1280 624.5 1280H545.5Z" fill="black"/></g><g id="Rectangle-Copy-10"><path id="Vector_21" d="M624.5 1274H545.5C533.167 1274 521.34 1278.9 512.62 1287.62C503.899 1296.34 499 1308.17 499 1320.5C499 1332.83 503.899 1344.66 512.62 1353.38C521.34 1362.1 533.167 1367 545.5 1367H624.5C636.833 1367 648.66 1362.1 657.38 1353.38C666.101 1344.66 671 1332.83 671 1320.5C671 1308.17 666.101 1296.34 657.38 1287.62C648.66 1278.9 636.833 1274 624.5 1274ZM545.5 1280H624.5C635.241 1280 645.543 1284.27 653.138 1291.86C660.733 1299.46 665 1309.76 665 1320.5C665 1331.24 660.733 1341.54 653.138 1349.14C645.543 1356.73 635.241 1361 624.5 1361H545.5C534.759 1361 524.457 1356.73 516.862 1349.14C509.267 1341.54 505 1331.24 505 1320.5C505 1309.76 509.267 1299.46 516.862 1291.86C524.457 1284.27 534.759 1280 545.5 1280V1280Z" fill="black"/></g><g id="Combined-Shape_2"><path id="Vector_22" fill-rule="evenodd" clip-rule="evenodd" d="M585 1277V1364H545.5C533.963 1364 522.899 1359.42 514.741 1351.26C506.583 1343.1 502 1332.04 502 1320.5C502 1308.96 506.583 1297.9 514.741 1289.74C522.899 1281.58 533.963 1277 545.5 1277H585Z" fill="black"/></g></g><g id="Pill-3"><g id="Rectangle_10"><path id="Vector_23" fill-rule="evenodd" clip-rule="evenodd" d="M278.5 1277H199.5C187.964 1277 176.901 1281.59 168.744 1289.74C160.587 1297.9 156.003 1308.96 156 1320.5V1320.5C156.003 1332.04 160.587 1343.1 168.744 1351.26C176.901 1359.41 187.964 1364 199.5 1364H278.5C290.036 1364 301.099 1359.41 309.256 1351.26C317.413 1343.1 321.997 1332.04 322 1320.5V1320.5C321.997 1308.96 317.413 1297.9 309.256 1289.74C301.099 1281.59 290.036 1277 278.5 1277V1277Z" fill="white"/><path id="Vector_24" d="M278.5 1367H199.5C187.167 1367 175.34 1362.1 166.62 1353.38C157.899 1344.66 153 1332.83 153 1320.5C153 1308.17 157.899 1296.34 166.62 1287.62C175.34 1278.9 187.167 1274 199.5 1274H278.5C290.833 1274 302.66 1278.9 311.38 1287.62C320.101 1296.34 325 1308.17 325 1320.5C325 1332.83 320.101 1344.66 311.38 1353.38C302.66 1362.1 290.833 1367 278.5 1367V1367ZM199.5 1280C188.759 1280 178.457 1284.27 170.862 1291.86C163.267 1299.46 159 1309.76 159 1320.5C159 1331.24 163.267 1341.54 170.862 1349.14C178.457 1356.73 188.759 1361 199.5 1361H278.5C289.241 1361 299.543 1356.73 307.138 1349.14C314.733 1341.54 319 1331.24 319 1320.5C319 1309.76 314.733 1299.46 307.138 1291.86C299.543 1284.27 289.241 1280 278.5 1280H199.5Z" fill="black"/></g><g id="Rectangle-Copy-11"><path id="Vector_25" d="M199.5 1274H278.5C290.833 1274 302.66 1278.9 311.38 1287.62C320.101 1296.34 325 1308.17 325 1320.5C325 1332.83 320.101 1344.66 311.38 1353.38C302.66 1362.1 290.833 1367 278.5 1367H199.5C187.167 1367 175.34 1362.1 166.62 1353.38C157.899 1344.66 153 1332.83 153 1320.5C153 1308.17 157.899 1296.34 166.62 1287.62C175.34 1278.9 187.167 1274 199.5 1274V1274ZM278.5 1280H199.5C188.759 1280 178.457 1284.27 170.862 1291.86C163.267 1299.46 159 1309.76 159 1320.5C159 1331.24 163.267 1341.54 170.862 1349.14C178.457 1356.73 188.759 1361 199.5 1361H278.5C289.241 1361 299.543 1356.73 307.138 1349.14C314.733 1341.54 319 1331.24 319 1320.5C319 1309.76 314.733 1299.46 307.138 1291.86C299.543 1284.27 289.241 1280 278.5 1280V1280Z" fill="black"/></g><g id="Combined-Shape_3"><path id="Vector_26" fill-rule="evenodd" clip-rule="evenodd" d="M239 1277V1364H278.5C290.037 1364 301.101 1359.42 309.259 1351.26C317.417 1343.1 322 1332.04 322 1320.5C322 1308.96 317.417 1297.9 309.259 1289.74C301.101 1281.58 290.037 1277 278.5 1277H239Z" fill="black"/></g></g><g id="Medicine-2"><g id="Rectangle-Copy-62"><path id="Vector_27" d="M404.5 1070H310.5V1119H404.5V1070Z" fill="white"/><path id="Vector_28" d="M407.5 1122H307.5V1067H407.5V1122ZM313.5 1116H401.5V1073H313.5V1116Z" fill="black"/></g><g id="Rectangle-Copy-64"><path id="Vector_29" d="M404.5 1070H310.5V1119H404.5V1070Z" fill="white"/></g><g id="Rectangle-Copy-65"><path id="Vector_30" d="M407.5 1067H307.5V1122H407.5V1067ZM401.5 1073V1116H313.5V1073H401.5Z" fill="black"/></g><g id="Rectangle-Copy-63"><path id="Vector_31" d="M387 1099.5H328C304.804 1099.5 286 1118.3 286 1141.5V1320.5C286 1343.7 304.804 1362.5 328 1362.5H387C410.196 1362.5 429 1343.7 429 1320.5V1141.5C429 1118.3 410.196 1099.5 387 1099.5Z" fill="white"/><path id="Vector_32" d="M387 1364H328C316.466 1363.99 305.408 1359.4 297.253 1351.25C289.097 1343.09 284.511 1332.03 284.5 1320.5V1141.5C284.511 1129.97 289.097 1118.91 297.253 1110.75C305.408 1102.6 316.466 1098.01 328 1098H387C398.534 1098.01 409.592 1102.6 417.747 1110.75C425.903 1118.91 430.489 1129.97 430.5 1141.5V1320.5C430.489 1332.03 425.903 1343.09 417.747 1351.25C409.592 1359.4 398.534 1363.99 387 1364V1364ZM328 1101C317.263 1101.01 306.969 1105.28 299.377 1112.88C291.784 1120.47 287.513 1130.76 287.5 1141.5V1320.5C287.513 1331.24 291.784 1341.53 299.377 1349.12C306.969 1356.72 317.263 1360.99 328 1361H387C397.737 1360.99 408.031 1356.72 415.623 1349.12C423.216 1341.53 427.487 1331.24 427.5 1320.5V1141.5C427.487 1130.76 423.216 1120.47 415.623 1112.88C408.031 1105.28 397.737 1101.01 387 1101H328Z" fill="black"/></g><g id="Rectangle-Copy-71"><path id="Vector_33" d="M388.5 1098C399.639 1098 410.322 1102.42 418.198 1110.3C426.075 1118.18 430.5 1128.86 430.5 1140V1322C430.5 1327.52 429.414 1332.98 427.303 1338.07C425.192 1343.17 422.099 1347.8 418.198 1351.7C414.298 1355.6 409.668 1358.69 404.573 1360.8C399.477 1362.91 394.016 1364 388.5 1364H326.5C320.984 1364 315.523 1362.91 310.427 1360.8C305.332 1358.69 300.702 1355.6 296.802 1351.7C292.901 1347.8 289.808 1343.17 287.697 1338.07C285.586 1332.98 284.5 1327.52 284.5 1322V1140C284.5 1128.86 288.925 1118.18 296.802 1110.3C304.678 1102.42 315.361 1098 326.5 1098H388.5ZM388.5 1104H326.5C317.055 1104 307.988 1107.71 301.254 1114.33C294.52 1120.95 290.657 1129.96 290.5 1139.4V1322C290.499 1331.44 294.209 1340.51 300.831 1347.25C307.453 1353.98 316.457 1357.84 325.9 1358H388.5C397.945 1358 407.012 1354.29 413.746 1347.67C420.48 1341.05 424.343 1332.04 424.5 1322.6V1140C424.501 1130.56 420.791 1121.49 414.169 1114.75C407.547 1108.02 398.543 1104.16 389.1 1104H388.5Z" fill="black"/></g><g id="Rectangle-Copy-66"><path id="Vector_34" d="M430.5 1043H284.5V1083H430.5V1043Z" fill="white"/><path id="Vector_35" d="M433.5 1086H281.5V1040H433.5V1086ZM287.5 1080H427.5V1046H287.5V1080Z" fill="black"/></g><g id="Rectangle-Copy-70"><path id="Vector_36" d="M433.5 1040H281.5V1086H433.5V1040ZM427.5 1046V1080H287.5V1046H427.5Z" fill="black"/></g><g id="Rectangle-Copy-67"><path id="Vector_37" d="M428.5 1169H286.5V1311H428.5V1169Z" fill="white"/></g><g id="Rectangle-Copy-72"><path id="Vector_38" d="M431.5 1166H283.5V1314H431.5V1166ZM425.5 1172V1308H289.5V1172H425.5Z" fill="black"/></g><g id="Rectangle-Copy-69"><path id="Vector_39" d="M430 1167.5H285V1312.5H430V1167.5ZM427 1170.5V1309.5H288V1170.5H427Z" fill="black"/></g></g></g><path id="Path" fill-rule="evenodd" clip-rule="evenodd" d="M794 272.001L805.346 272.07C836.924 272.26 862.484 297.658 862.992 329.117L863 330.072V341.22C863 370.413 850.244 398.133 828.107 417.121L827.434 417.694L726 503.157V504L725.5 503.579L725 504V503.157L623.566 417.694C601.015 398.693 588 370.708 588 341.22V330.072C588 298.174 613.757 272.262 645.654 272.07L657 272.001C692.204 271.789 721.374 298.138 725.5 332.269C729.585 298.48 758.215 272.317 792.946 272.003L794 272.001Z" fill="black"/></g></g><g id="Master/Character/Standing" transform="translate(-84 0) scale(1 1)"><g id="Master/Character/Standing"><g id="Lower Body" transform="translate(-104 695) scale(1 1)"><g id="Lower Body/Striped Pants"><g id="shoe"><path id="Fill 37" fill-rule="evenodd" clip-rule="evenodd" d="M152.397 287.658C196.206 329.731 249.966 361.914 307.537 381.222L280 464.523C225.141 446.375 173.803 418.179 128.241 382.764C124.548 381.05 124.346 385.762 118.933 389.687C100.175 408.196 70.7091 404.709 53.1621 385.51L152.397 287.658Z" fill="white"/><path id="Fill 39" fill-rule="evenodd" clip-rule="evenodd" d="M281.585 467.137C225.681 448.983 173.354 420.355 127.01 384.342C107.742 409.351 73.179 411.812 49 384.128C72.21 362.297 129.615 308.303 153.45 285.884C197.503 328.329 251.842 360.752 309.94 379.895L281.585 467.137ZM278.433 461.915L305.113 382.545C248.344 363.16 195.399 331.393 151.942 290.029C130.252 311.883 77.712 364.819 56.649 386.04C76.82 406.471 107.2 403.156 123.635 381.762C124.975 379.978 127.752 379.777 129.47 381.188C137.838 387.664 146.321 393.97 155.063 399.893C181.218 417.856 208.95 433.368 238.023 446.207C250.925 451.96 265.055 457.413 278.433 461.915V461.915Z" fill="black"/><path id="Fill 41" fill-rule="evenodd" clip-rule="evenodd" d="M64.7775 395.471L61.8555 392.74L156.475 291.532L159.397 294.263L64.7775 395.471Z" fill="black"/><path id="Fill 45" fill-rule="evenodd" clip-rule="evenodd" d="M131.205 385.077C119.681 376.192 108.658 367.019 97.9629 357.044Z" fill="white"/><path id="Fill 47" fill-rule="evenodd" clip-rule="evenodd" d="M131.204 387.078C130.778 387.078 130.348 386.942 129.984 386.662C117.575 377.094 106.654 367.885 96.5989 358.508C95.7909 357.754 95.7469 356.489 96.5009 355.681C97.2539 354.872 98.5189 354.828 99.3269 355.582C109.29 364.873 120.117 374.003 132.427 383.494C133.301 384.168 133.464 385.424 132.789 386.299C132.395 386.81 131.803 387.078 131.204 387.078" fill="black"/><path id="Fill 49" fill-rule="evenodd" clip-rule="evenodd" d="M111.384 394.927C102.107 387.501 93.0304 379.783 84.3184 371.638Z" fill="white"/></g><g id="blue"><g id="shoe_2"><path id="Fill 5" fill-rule="evenodd" clip-rule="evenodd" d="M626.654 877.551C627.897 806.854 631.731 736.358 637.534 665.912L724.964 673.219C720.584 726.012 717.462 778.961 715.589 831.893C715.531 833.033 716.566 834.012 717.698 833.946C739.03 834.008 767.391 850.414 766.008 879.361L626.654 877.551Z" fill="white"/><path id="Fill 7" fill-rule="evenodd" clip-rule="evenodd" d="M727.116 671.412C722.678 724.748 719.472 778.51 717.589 831.961C740.687 832.073 770.063 849.72 768.016 881.062C736.154 880.776 657.349 880.069 624.629 879.776C625.798 807.722 629.772 735.539 635.705 663.714L727.116 671.412ZM722.814 675.027L639.366 668.107C633.699 737.098 629.98 806.249 628.688 875.469C659.475 875.926 734.05 877.032 763.947 877.474C764.399 850.528 736.84 835.912 717.633 835.926C715.435 835.982 713.475 834.029 713.591 831.823C715.448 779.518 718.502 727.197 722.814 675.027V675.027Z" fill="black"/><path id="Fill 22" fill-rule="evenodd" clip-rule="evenodd" d="M715.714 828.369C715.254 841.858 714.824 855.364 714.562 868.796Z" fill="white"/><path id="Fill 24" fill-rule="evenodd" clip-rule="evenodd" d="M714.563 870.796C714.55 870.796 714.537 870.796 714.523 870.796C713.419 870.774 712.541 869.861 712.563 868.757C712.828 855.121 713.274 841.254 713.716 828.3C713.753 827.196 714.673 826.35 715.783 826.37C716.887 826.408 717.751 827.333 717.713 828.437C717.272 841.375 716.827 855.224 716.562 868.835C716.541 869.926 715.649 870.796 714.563 870.796" fill="black"/><path id="Fill 26" fill-rule="evenodd" clip-rule="evenodd" d="M735.39 837.778C735.108 847.022 734.695 860.103 734.535 869.195Z" fill="white"/><path id="Fill 28" fill-rule="evenodd" clip-rule="evenodd" d="M734.537 871.196C734.525 871.196 734.513 871.196 734.501 871.196C733.397 871.176 732.517 870.265 732.537 869.161C732.683 860.858 733.033 849.432 733.315 840.251L733.393 837.718C733.426 836.613 734.35 835.748 735.453 835.78C736.557 835.814 737.424 836.736 737.391 837.84L737.313 840.373C737.032 849.543 736.682 860.954 736.536 869.231C736.517 870.323 735.625 871.196 734.537 871.196" fill="black"/></g><path id="Fill 12" fill-rule="evenodd" clip-rule="evenodd" d="M746.672 791.351L609.451 784.804C615.07 658.843 628.816 532.842 650.413 408.476C665.964 312.909 682.059 217.628 698.466 122.375C704.913 84.9426 740.517 59.8616 777.884 66.4086C815.248 72.9626 840.267 108.431 833.848 145.709C813.455 264.293 793.405 382.913 774.611 501.647C759.822 597.176 751.356 694.73 746.672 791.351" fill="#ff830f"/><path id="Fill 14" fill-rule="evenodd" clip-rule="evenodd" d="M627.246 787.653C627.22 787.653 627.194 787.653 627.168 787.652C626.064 787.609 625.204 786.68 625.246 785.576C632.605 594.91 665.913 403.605 698.124 218.597C706.203 172.199 714.556 124.221 722.357 77.0608C722.537 75.9708 723.566 75.2318 724.657 75.4138C725.746 75.5938 726.484 76.6238 726.303 77.7138C718.5 124.891 710.145 172.877 702.065 219.284C669.876 404.161 636.591 595.332 629.243 785.73C629.202 786.808 628.315 787.653 627.246 787.653" fill="black"/><path id="Fill 16" fill-rule="evenodd" clip-rule="evenodd" d="M661.125 789.269C661.098 789.269 661.072 789.269 661.045 789.268C659.941 789.224 659.082 788.294 659.125 787.19C666.705 595.052 700.449 402.069 733.083 215.441C741.813 165.512 750.84 113.884 759.208 63.16C759.388 62.071 760.419 61.329 761.507 61.513C762.596 61.692 763.334 62.722 763.155 63.811C754.784 114.554 745.755 166.192 737.023 216.13C704.412 402.629 670.692 595.477 663.122 787.348C663.08 788.425 662.193 789.269 661.125 789.269" fill="black"/><path id="Fill 18" fill-rule="evenodd" clip-rule="evenodd" d="M695.002 790.885C694.975 790.885 694.948 790.885 694.921 790.884C693.818 790.84 692.958 789.909 693.002 788.806C700.546 598.28 734.002 407.033 766.356 222.083C775.135 171.897 784.213 120.002 792.616 69.0052C792.795 67.9152 793.826 67.1752 794.915 67.3572C796.004 67.5362 796.742 68.5662 796.563 69.6562C788.157 120.672 779.077 172.576 770.296 222.772C737.965 407.593 704.533 598.705 696.999 788.964C696.956 790.041 696.07 790.885 695.002 790.885" fill="black"/><path id="Fill 20" fill-rule="evenodd" clip-rule="evenodd" d="M728.878 792.502C728.852 792.502 728.825 792.502 728.799 792.501C727.695 792.458 726.835 791.528 726.878 790.424C734.122 604.655 766.543 418.677 797.897 238.825C806.143 191.525 814.67 142.614 822.6 94.4905C822.78 93.4005 823.808 92.6625 824.899 92.8425C825.989 93.0225 826.728 94.0515 826.548 95.1415C818.614 143.282 810.086 192.202 801.839 239.511C770.507 419.235 738.109 605.078 730.875 790.58C730.833 791.657 729.947 792.502 728.878 792.502" fill="black"/><path id="Fill 10" fill-rule="evenodd" clip-rule="evenodd" d="M765.246 871.812L626.725 869.038L626.805 865.039L765.326 867.813L765.246 871.812Z" fill="black"/></g><g id="black"><path id="Fill 30" fill-rule="evenodd" clip-rule="evenodd" d="M576.623 111.038C577.081 -37.0219 842.204 -37.0069 842.635 111.046C842.178 259.098 577.054 259.083 576.623 111.038" fill="black"/><path id="Fill 43" fill-rule="evenodd" clip-rule="evenodd" d="M148.586 433.294L223.499 318.139C281.034 355.77 349.197 379.388 418.254 378.937C446.736 378.656 477.17 376.26 499.626 356.84C544.17 317.646 558.659 254.727 568.397 196.636C571.814 173.721 573.961 150.112 574.976 126.34C576.684 89.1509 605.74 58.5279 643.21 55.8639C684.484 52.7499 714.343 91.1699 712.229 132.179C707.808 220.018 693.865 308.135 649.899 386.813C617.304 446.042 560.058 494.71 492.76 508.963C373.97 532.379 248.756 498.708 148.586 433.294" fill="black"/></g></g></g><g id="Upper Body" transform="translate(-53 129) scale(1 1)"><g id="Upper Body/Holding Phone"><g id="left"><g id="Group 3"><path id="Fill 1" fill-rule="evenodd" clip-rule="evenodd" d="M1155.49 401.869C1151.78 402.957 1148.47 405.068 1147.14 408.646C1143.45 418.645 1139.24 428.03 1134.68 436.745C1119.47 467.551 1098.36 483.761 1074.19 489.985C1007.64 507.121 917.85 448.56 863.872 410.545L794.328 505.916C964.214 634.512 1182.71 680.023 1263.64 432.917C1253.9 431.188 1163.34 396.374 1155.49 401.869Z" fill="white"/><path id="Fill 3" fill-rule="evenodd" clip-rule="evenodd" d="M797.104 505.505C850.34 545.569 906.023 575.602 958.252 592.411C1016.97 611.31 1070.01 613.615 1115.89 599.263C1182.78 578.34 1231.61 522.862 1261.07 434.346C1256.52 433.081 1247.5 429.975 1235.78 425.942C1220.72 420.761 1201.98 414.312 1186.34 409.621C1161.7 402.232 1157.37 403.079 1156.62 403.515C1156.45 403.639 1156.26 403.727 1156.05 403.788C1153.5 404.536 1150.21 406.107 1149.01 409.342C1145.43 419.059 1141.2 428.592 1136.45 437.672C1122.02 466.897 1101.15 485.184 1074.45 491.983C1044.88 499.512 1007.5 493.025 963.349 472.702C926.497 455.739 891.239 432.215 864.33 413.313L797.104 505.505ZM1052.68 612.543C1022.8 612.543 990.833 607.099 957.026 596.219C903.862 579.109 847.185 548.434 793.122 507.511C792.252 506.853 792.07 505.619 792.713 504.738L862.257 409.367C862.9 408.485 864.132 408.282 865.024 408.91C891.99 427.901 927.725 451.901 965.022 469.068C1008.32 488.998 1044.8 495.403 1073.46 488.107C1098.98 481.609 1118.98 464.03 1132.88 435.859C1137.58 426.889 1141.74 417.515 1145.26 407.954C1146.65 404.22 1149.9 401.482 1154.69 400.022C1160.72 396.855 1187.38 405.056 1237.08 422.16C1249.99 426.604 1261.15 430.443 1263.99 430.948C1264.56 431.049 1265.06 431.393 1265.36 431.89C1265.66 432.387 1265.72 432.989 1265.54 433.54C1235.74 524.547 1185.79 581.588 1117.09 603.08C1096.92 609.39 1075.4 612.543 1052.68 612.543V612.543Z" fill="black"/></g><g id="Group 2"><path id="Fill 5" fill-rule="evenodd" clip-rule="evenodd" d="M1194.51 416.331C1197.75 402.626 1210.03 377.314 1204.98 364.525C1199.67 354.447 1185.38 358.56 1183.24 369.504C1179.45 385.944 1174.8 401.959 1169.14 417.209" fill="white"/><path id="Fill 7" fill-rule="evenodd" clip-rule="evenodd" d="M1169.14 419.209C1168.91 419.209 1168.68 419.169 1168.45 419.084C1167.41 418.699 1166.89 417.548 1167.27 416.513C1172.68 401.947 1177.39 385.98 1181.29 369.054C1182.53 362.737 1187.57 357.833 1193.82 356.914C1199.29 356.11 1204.12 358.607 1206.75 363.591C1206.79 363.656 1206.82 363.722 1206.84 363.79C1210.74 373.677 1205.39 389.385 1200.68 403.244C1198.96 408.282 1197.34 413.042 1196.46 416.79C1196.2 417.865 1195.12 418.531 1194.05 418.276C1192.98 418.022 1192.31 416.945 1192.56 415.87C1193.49 411.935 1195.14 407.087 1196.89 401.955C1201.15 389.451 1206.44 373.903 1203.16 365.36C1201.33 361.958 1198.14 360.321 1194.41 360.871C1190.59 361.431 1186.27 364.436 1185.2 369.888C1181.25 387.045 1176.48 403.178 1171.02 417.904C1170.72 418.71 1169.96 419.209 1169.14 419.209" fill="black"/><path id="Fill 9" fill-rule="evenodd" clip-rule="evenodd" d="M1194.51 416.331C1199.13 402.781 1203.01 388.905 1206.24 374.831C1207.1 371.098 1209.15 368.001 1211.74 365.957C1216.97 361.549 1225.12 363.131 1228.07 369.418C1232.98 383.172 1220.41 409.152 1216.85 423.962" fill="white"/><path id="Fill 11" fill-rule="evenodd" clip-rule="evenodd" d="M1216.85 425.962C1216.69 425.962 1216.54 425.944 1216.38 425.906C1215.3 425.647 1214.64 424.567 1214.9 423.493C1215.93 419.243 1217.66 414.127 1219.5 408.709C1223.93 395.66 1229.44 379.431 1226.22 370.182C1225.1 367.861 1223.01 366.215 1220.47 365.658C1217.81 365.076 1215.1 365.742 1213.03 367.486C1210.61 369.401 1208.91 372.155 1208.19 375.28C1204.85 389.791 1200.89 403.82 1196.4 416.976C1196.04 418.021 1194.91 418.579 1193.86 418.223C1192.82 417.866 1192.26 416.73 1192.62 415.684C1197.06 402.658 1200.99 388.762 1204.29 374.383C1205.21 370.374 1207.42 366.825 1210.5 364.388C1213.48 361.876 1217.44 360.9 1221.32 361.751C1225.12 362.583 1228.24 365.068 1229.88 368.567C1229.91 368.626 1229.93 368.685 1229.96 368.746C1233.72 379.291 1228.18 395.603 1223.29 409.995C1221.48 415.324 1219.77 420.357 1218.79 424.43C1218.57 425.346 1217.75 425.962 1216.85 425.962" fill="black"/><path id="Fill 13" fill-rule="evenodd" clip-rule="evenodd" d="M1216.85 423.962C1221.77 409.522 1225.85 394.887 1229.24 380.159C1230.14 376.251 1232.23 372.998 1234.84 370.851C1244.36 363.049 1255.43 373.29 1252.23 385.487C1248.7 400.87 1244.42 416.263 1239.19 431.594" fill="white"/><path id="Fill 15" fill-rule="evenodd" clip-rule="evenodd" d="M1239.19 433.594C1238.97 433.594 1238.76 433.559 1238.54 433.486C1237.5 433.13 1236.94 431.993 1237.29 430.948C1242.25 416.408 1246.62 400.962 1250.28 385.038C1251.96 378.626 1249.2 373.472 1245.92 371.373C1242.87 369.414 1239.29 369.788 1236.1 372.398C1233.7 374.38 1231.95 377.297 1231.18 380.607C1227.67 395.892 1223.49 410.696 1218.74 424.607C1218.38 425.653 1217.25 426.211 1216.2 425.854C1215.16 425.498 1214.6 424.361 1214.96 423.316C1219.66 409.534 1223.81 394.863 1227.29 379.711C1228.25 375.544 1230.48 371.849 1233.57 369.306C1238.12 365.579 1243.54 365.094 1248.08 368.006C1253.52 371.496 1256.03 378.893 1254.17 385.993C1250.49 401.991 1246.08 417.57 1241.08 432.239C1240.8 433.071 1240.02 433.594 1239.19 433.594" fill="black"/><path id="Fill 23" fill-rule="evenodd" clip-rule="evenodd" d="M1164.37 429.172C1167.2 419.798 1175.41 409.183 1171.66 399.145C1168.39 391.409 1157.1 390.636 1152.16 397.084C1144.89 411.56 1140.4 428.345 1132.35 440.987" fill="white"/><path id="Fill 25" fill-rule="evenodd" clip-rule="evenodd" d="M1132.35 442.987C1131.98 442.987 1131.61 442.886 1131.27 442.674C1130.34 442.08 1130.07 440.844 1130.66 439.912C1135.27 432.678 1138.65 424.142 1142.23 415.105C1144.73 408.797 1147.31 402.274 1150.37 396.186C1150.43 396.073 1150.49 395.966 1150.57 395.866C1153.43 392.144 1158.28 390.227 1163.23 390.86C1167.93 391.461 1171.77 394.268 1173.5 398.367C1176.48 406.325 1172.83 414.396 1169.61 421.516C1168.31 424.408 1167.07 427.14 1166.28 429.749C1165.96 430.807 1164.85 431.405 1163.79 431.087C1162.73 430.768 1162.14 429.652 1162.45 428.594C1163.32 425.732 1164.66 422.751 1165.97 419.869C1169.01 413.14 1172.15 406.181 1169.78 399.846C1168.62 397.11 1166.04 395.252 1162.72 394.828C1159.24 394.382 1155.86 395.656 1153.86 398.159C1150.92 404.039 1148.39 410.413 1145.95 416.578C1142.46 425.392 1138.85 434.506 1134.03 442.061C1133.65 442.66 1133.01 442.987 1132.35 442.987" fill="black"/><path id="Fill 27" fill-rule="evenodd" clip-rule="evenodd" d="M1239.19 431.594C1245.95 418.911 1246.73 380.483 1264.75 383.695C1283.7 389.973 1264.35 425.154 1261.53 439.225" fill="white"/><path id="Fill 29" fill-rule="evenodd" clip-rule="evenodd" d="M1261.53 441.226C1261.4 441.226 1261.27 441.213 1261.13 441.186C1260.05 440.97 1259.35 439.916 1259.57 438.833C1260.28 435.265 1261.94 430.621 1263.85 425.243C1268.16 413.159 1273.52 398.119 1269.67 390.236C1268.59 388.023 1266.82 386.519 1264.26 385.64C1254.54 384.042 1250.56 397.367 1246.37 414.942C1244.72 421.86 1243.16 428.394 1240.95 432.535C1240.43 433.51 1239.22 433.879 1238.25 433.359C1237.27 432.839 1236.9 431.628 1237.42 430.653C1239.39 426.966 1240.89 420.675 1242.48 414.014C1246.18 398.492 1250.79 379.175 1265.1 381.726C1265.19 381.743 1265.29 381.766 1265.38 381.796C1269.03 383.007 1271.69 385.257 1273.26 388.481C1277.85 397.876 1272.18 413.795 1267.62 426.586C1265.83 431.599 1264.15 436.334 1263.49 439.618C1263.3 440.569 1262.46 441.226 1261.53 441.226" fill="black"/></g><path id="Fill 31" fill-rule="evenodd" clip-rule="evenodd" d="M879.455 406.524C863.157 394.972 847.134 382.639 831.522 369.765C803.428 347.201 775.739 345.585 754.828 345.585C718.153 345.585 711.531 453.583 741.822 478.493C759.935 493.429 778.57 507.784 797.935 521.513L879.455 406.524Z" fill="black"/><g id="Group"><path id="Fill 42" fill-rule="evenodd" clip-rule="evenodd" d="M1227.53 457.722L1178.94 445.239C1170.07 442.958 1164.72 433.911 1167 425.032L1192.83 324.476C1195.12 315.597 1204.16 310.249 1213.04 312.53L1261.63 325.014C1270.5 327.295 1275.85 336.341 1273.57 345.22L1247.74 445.776C1245.45 454.655 1236.41 460.003 1227.53 457.722" fill="white"/><path id="Fill 43" fill-rule="evenodd" clip-rule="evenodd" d="M1208.89 314.002C1206.31 314.002 1203.76 314.692 1201.48 316.04C1198.13 318.024 1195.74 321.197 1194.77 324.974L1168.94 425.53C1166.93 433.326 1171.65 441.299 1179.44 443.302L1228.03 455.785C1231.8 456.755 1235.73 456.196 1239.09 454.212C1242.45 452.228 1244.83 449.055 1245.8 445.278L1271.64 344.722C1273.64 336.926 1268.93 328.953 1261.13 326.95L1212.55 314.467C1211.33 314.156 1210.11 314.002 1208.89 314.002M1231.66 460.246C1230.13 460.246 1228.58 460.056 1227.03 459.659L1178.45 447.176C1168.52 444.624 1162.51 434.467 1165.06 424.534L1190.9 323.978C1192.14 319.167 1195.17 315.125 1199.45 312.596C1203.72 310.068 1208.73 309.357 1213.54 310.593L1262.13 323.076C1272.06 325.628 1278.06 335.785 1275.51 345.718L1249.67 446.274C1247.52 454.66 1239.94 460.246 1231.66 460.246" fill="black"/><path id="Fill 44" fill-rule="evenodd" clip-rule="evenodd" d="M1234.39 438.696L1182.11 425.265C1179.17 424.508 1177.39 421.51 1178.15 418.568L1201.99 325.78C1202.75 322.838 1205.74 321.065 1208.69 321.821L1260.96 335.253C1263.91 336.009 1265.68 339.007 1264.92 341.95L1241.08 434.737C1240.33 437.68 1237.33 439.452 1234.39 438.696" fill="#ff830f"/><path id="Fill 45" fill-rule="evenodd" clip-rule="evenodd" d="M1208 435.353C1212.42 440.16 1204.77 446.99 1200.49 442.055C1196.08 437.249 1203.73 430.419 1208 435.353" fill="#ff830f"/></g></g><g id="torso"><path id="Fill 33" fill-rule="evenodd" clip-rule="evenodd" d="M828.395 670.717C829.415 681.64 820.821 691.074 809.85 691.074H514.111C504.448 691.074 496.277 683.92 495 674.341L510.307 406.596C506.03 374.515 530.989 346.008 563.354 346.008H756.779C798.71 346.32 831.762 383.845 828.304 425.569L828.395 670.717" fill="#ff830f"/><path id="Fill 35" fill-rule="evenodd" clip-rule="evenodd" d="M741.335 346.008C717.12 244.035 537.081 316.125 653.996 401.243C656.095 402.948 659.142 402.783 661.055 400.869L674.921 387.003L688.741 373.183C695.36 379.615 708.968 392.829 715.631 399.304C725.825 409.815 742.156 358.983 741.335 346.008" fill="#ff830f"/><path id="Fill 38" fill-rule="evenodd" clip-rule="evenodd" d="M658.323 403.351C656.558 403.351 654.459 402.709 652.034 401.431C636.906 393.459 611.333 361.749 613.75 345.784C613.874 344.965 614.639 344.403 615.458 344.525C616.277 344.649 616.84 345.414 616.716 346.233C615.75 352.613 620.288 363.372 628.856 375.013C636.632 385.578 646.508 395.128 653.432 398.777C655.263 399.741 658.555 401.154 660.033 399.774C663.802 396 669.743 390.059 675.462 384.342L687.681 372.123C688.261 371.542 689.199 371.535 689.788 372.107L716.677 398.228C717.677 399.258 718.581 399.466 719.734 398.957C728.404 395.12 740.568 357.625 739.839 346.103C739.787 345.276 740.414 344.564 741.241 344.511C742.069 344.461 742.781 345.087 742.833 345.913C743.573 357.605 731.372 397.087 720.948 401.7C718.655 402.716 716.384 402.235 714.555 400.348L688.758 375.289L677.583 386.463C671.865 392.18 665.924 398.12 662.118 401.931C661.103 402.879 659.836 403.351 658.323 403.351" fill="black"/></g><g id="right"><path id="Fill 46" fill-rule="evenodd" clip-rule="evenodd" d="M965.098 602.412C910.876 491.335 951.472 499.175 841.191 539.516C781.56 559.109 689.148 592.021 630.739 563.869C605.654 547.572 606.723 513.557 608.427 485.486L513.974 477.036C508.697 476.53 503.927 481.366 503.565 487.961C499.883 541.711 513.888 603.67 558.271 640.028C661.748 722.911 833.845 655.331 942.144 612.232C936.386 614.643 924.758 619.402 918.963 621.721C928.789 647.328 976.48 627.412 965.098 602.412" fill="white"/><path id="Fill 47" fill-rule="evenodd" clip-rule="evenodd" d="M508.935 480.685C506.955 482.387 505.726 485.079 505.562 488.07C503.601 516.691 506.795 544.98 514.797 569.905C524.025 598.648 539.078 621.72 559.538 638.48C662.848 721.23 837.22 651.835 941.405 610.373C942.424 609.968 943.581 610.459 943.996 611.475C944.411 612.491 943.929 613.652 942.917 614.076C937.782 616.227 927.797 620.318 921.629 622.804C924.72 628.869 930.141 630.861 934.323 631.438C943.911 632.76 955.496 627.91 961.269 620.16C964.016 616.473 966.594 610.549 963.288 603.264C950.799 577.677 943.341 558.418 937.894 544.353C935.584 538.388 933.632 533.349 931.823 529.205C928.405 521.378 928.618 515.175 924.743 513.5C918.34 510.735 906.212 516.492 883.167 525.314C872.085 529.556 858.953 535.148 841.878 541.394C838.985 542.345 836.08 543.306 833.109 544.288C803.491 554.078 766.631 566.261 730.457 572.545C687.759 579.962 654.857 577.713 629.87 565.67C629.794 565.634 629.72 565.592 629.649 565.546C603.32 548.441 604.819 512.22 606.313 487.304L513.796 479.028C513.609 479.01 513.422 479.001 513.235 479.001C511.715 479.001 510.21 479.588 508.935 480.685ZM557.021 641.589C535.938 624.318 520.456 600.616 510.989 571.128C502.834 545.724 499.576 516.919 501.57 487.824C501.791 483.779 503.526 480.061 506.327 477.652C508.593 475.704 511.377 474.778 514.165 475.045L608.605 483.493C609.683 483.59 610.488 484.526 610.423 485.606C608.574 516.072 608.698 547.07 631.722 562.122C686.636 588.494 774.016 559.608 831.853 540.49C834.827 539.507 837.734 538.546 840.567 537.615C857.513 531.415 870.903 525.977 881.662 521.608C904.732 512.239 918.388 506.398 926.329 509.828C931.459 512.044 931.666 518.766 935.616 527.886C937.415 532.04 939.342 537.015 941.624 542.908C947.047 556.911 954.474 576.088 966.895 601.534C966.903 601.55 966.911 601.567 966.918 601.583C970.141 608.663 969.274 616.109 964.477 622.55C957.791 631.525 944.881 636.928 933.777 635.4C926.404 634.384 920.783 630.369 917.775 624.027C850.954 650.196 763.846 681.194 684.239 681.198C637.331 681.201 593.042 670.441 557.021 641.589Z" fill="black"/><path id="Fill 48" fill-rule="evenodd" clip-rule="evenodd" d="M924.457 532.305C937.733 526.554 950.955 520.613 964.137 514.55C971.132 511.287 974.544 503.858 971.762 497.964H971.761C968.978 492.068 961.133 489.903 954.236 493.119C938.281 500.482 922.27 507.605 906.211 514.43" fill="white"/><path id="Fill 49" fill-rule="evenodd" clip-rule="evenodd" d="M924.458 534.305C923.685 534.305 922.949 533.854 922.622 533.099C922.183 532.086 922.649 530.908 923.662 530.469C936.09 525.086 949.056 519.284 963.301 512.732C966.549 511.218 969.046 508.604 970.144 505.565C970.981 503.248 970.913 500.852 969.953 498.817C967.644 493.927 960.973 492.184 955.082 494.931C938.683 502.499 922.506 509.677 906.994 516.27C905.977 516.703 904.803 516.229 904.371 515.212C903.939 514.195 904.413 513.021 905.429 512.589C920.904 506.012 937.043 498.85 953.398 491.303C961.272 487.63 970.324 490.234 973.57 497.11C974.988 500.114 975.107 503.599 973.906 506.924C972.449 510.956 969.197 514.396 964.982 516.362C950.7 522.93 937.708 528.744 925.252 534.14C924.993 534.252 924.723 534.305 924.458 534.305" fill="black"/><path id="Fill 50" fill-rule="evenodd" clip-rule="evenodd" d="M624.03 496.233C624.03 496.233 624.801 474.816 627.447 436.306C630.093 397.797 622.358 366.064 588.781 350.95C561.402 338.356 529.129 349.488 511.306 373.286C488.94 406.82 487.336 448.568 483.211 490.062L624.03 496.233Z" fill="black"/></g></g></g><g id="Hairstyle" transform="translate(569 275) scale(1 1)"><g id="Hairstyle/Low Bun Fringe"><g id="hair"><g id="Group 3"><path id="Fill 1" fill-rule="evenodd" clip-rule="evenodd" d="M51.873 144.675C51.873 159.275 40.037 171.111 25.437 171.111C10.836 171.111 -1 159.275 -1 144.675C-1 130.075 10.836 118.239 25.437 118.239C40.037 118.239 51.873 130.075 51.873 144.675" fill="black"/></g><g id="Group 6"><path id="Fill 4" fill-rule="evenodd" clip-rule="evenodd" d="M129.421 97.1319C129.421 127.58 102.304 152.264 68.8522 152.264C35.4012 152.264 8.28418 127.58 8.28418 97.1319C8.28418 66.6839 35.4012 41.9999 68.8522 41.9999C102.304 41.9999 129.421 66.6839 129.421 97.1319" fill="black"/></g></g><g id="head"><path id="Fill 7" fill-rule="evenodd" clip-rule="evenodd" d="M65.4174 206.168V206.168C46.4604 206.168 28.9834 191.63 28.9834 174.273L45.0934 114.61C45.0934 97.253 40.4604 83.182 59.4174 83.182H79.4174C98.3744 83.182 93.7414 97.253 93.7414 114.61V174.74C93.7414 192.097 84.3744 206.168 65.4174 206.168" fill="white"/><path id="Fill 9" fill-rule="evenodd" clip-rule="evenodd" d="M30.9854 174.533C31.1584 190.35 47.1744 204.168 65.4184 204.168C84.8274 204.168 91.7424 188.967 91.7424 174.74V114.61C91.7424 111.562 91.8804 108.666 92.0144 105.865C92.3814 98.158 92.6994 91.503 89.5194 88.168C87.6034 86.159 84.2994 85.182 79.4184 85.182H59.4184C54.5374 85.182 51.2334 86.159 49.3174 88.168C46.1374 91.503 46.4544 98.158 46.8224 105.865C46.9554 108.666 47.0944 111.562 47.0944 114.61V114.876L30.9854 174.533ZM65.4184 208.168C44.9434 208.168 26.9844 192.329 26.9844 174.273V174.008L43.0934 114.346C43.0864 111.488 42.9544 108.727 42.8274 106.055C42.4154 97.431 42.0604 89.983 46.4224 85.408C49.1334 82.564 53.3844 81.182 59.4184 81.182H79.4184C85.4524 81.182 89.7034 82.564 92.4144 85.408C96.7764 89.983 96.4214 97.431 96.0094 106.055C95.8784 108.81 95.7424 111.658 95.7424 114.61V174.74C95.7424 195.047 83.8394 208.168 65.4184 208.168V208.168Z" fill="black"/><path id="Fill 11" fill-rule="evenodd" clip-rule="evenodd" d="M131.754 106.673C131.754 115.086 124.934 121.906 116.521 121.906C108.108 121.906 101.288 115.086 101.288 106.673C101.288 98.2599 108.108 91.4399 116.521 91.4399C124.934 91.4399 131.754 98.2599 131.754 106.673" fill="white"/><path id="Fill 13" fill-rule="evenodd" clip-rule="evenodd" d="M116.521 93.44C109.224 93.44 103.288 99.376 103.288 106.673C103.288 113.97 109.224 119.906 116.521 119.906C123.818 119.906 129.754 113.97 129.754 106.673C129.754 99.376 123.818 93.44 116.521 93.44M116.521 123.906C107.019 123.906 99.2881 116.175 99.2881 106.673C99.2881 97.171 107.019 89.44 116.521 89.44C126.023 89.44 133.754 97.171 133.754 106.673C133.754 116.175 126.023 123.906 116.521 123.906" fill="black"/><path id="Fill 15" fill-rule="evenodd" clip-rule="evenodd" d="M77.0169 154.1C59.5499 154.1 43.7879 143.74 36.8609 127.708L36.2099 126.203C26.6489 104.072 36.8749 78.2879 59.0059 68.7259C64.5289 66.3399 70.3569 65.1299 76.3259 65.1299C93.7929 65.1299 109.556 75.4899 116.482 91.5219L117.133 93.0269C121.765 103.748 121.944 115.631 117.639 126.486C113.333 137.342 105.058 145.872 94.3369 150.504C88.8139 152.89 82.9859 154.1 77.0169 154.1" fill="white"/><path id="Fill 17" fill-rule="evenodd" clip-rule="evenodd" d="M76.3274 63.1299H76.3264C70.0824 63.1299 63.9884 64.3959 58.2124 66.8909C47.0014 71.7339 38.3484 80.6539 33.8454 92.0059C29.3424 103.359 29.5304 115.785 34.3744 126.996L35.0244 128.501C42.2684 145.267 58.7514 156.1 77.0174 156.1C83.2604 156.1 89.3544 154.835 95.1304 152.339C106.341 147.496 114.995 138.576 119.497 127.224C124 115.871 123.812 103.445 118.968 92.2339L118.318 90.7289C111.075 73.9629 94.5924 63.1299 76.3274 63.1299M76.3264 67.1299C92.4694 67.1299 107.837 76.5539 114.646 92.3159L115.296 93.8199C124.435 114.973 114.696 139.529 93.5444 148.668C88.1524 150.997 82.5394 152.1 77.0174 152.1C60.8744 152.1 45.5064 142.676 38.6964 126.915L38.0464 125.41C28.9074 104.257 38.6464 79.7009 59.7994 70.5629C65.1904 68.2329 70.8044 67.1299 76.3264 67.1299" fill="black"/><path id="Fill 19" fill-rule="evenodd" clip-rule="evenodd" d="M36.065 121.906C27.652 121.906 20.832 115.086 20.832 106.673C20.832 98.2598 27.652 91.4398 36.065 91.4398C37.117 91.4398 38.143 91.5468 39.135 91.7498" fill="white"/><path id="Fill 21" fill-rule="evenodd" clip-rule="evenodd" d="M36.065 123.906C26.563 123.906 18.832 116.175 18.832 106.673C18.832 97.1708 26.563 89.4398 36.065 89.4398C37.232 89.4398 38.4 89.5578 39.536 89.7898C40.618 90.0118 41.316 91.0678 41.094 92.1508C40.873 93.2318 39.815 93.9298 38.734 93.7088C37.861 93.5308 36.963 93.4398 36.065 93.4398C28.768 93.4398 22.832 99.3758 22.832 106.673C22.832 113.97 28.768 119.906 36.065 119.906C37.169 119.906 38.065 120.802 38.065 121.906C38.065 123.01 37.169 123.906 36.065 123.906" fill="black"/></g><g id="hair_2"><path id="Fill 23" fill-rule="evenodd" clip-rule="evenodd" d="M131.621 83.1824H80.2206C61.4906 83.1824 46.3066 67.9984 46.3066 49.2674C46.3066 45.2544 61.2796 42.0004 65.2936 42.0004H97.7056C116.437 42.0004 131.621 57.1844 131.621 75.9154V83.1824Z" fill="black"/></g><circle id="Oval" cx="46" cy="82" r="14" fill="black"/><path id="Fill 9" fill-rule="evenodd" clip-rule="evenodd" d="M83.1474 123.992H90.7084C92.7934 123.992 94.3374 120.961 93.8714 117.782L90.6874 96.0426C89.9484 90.9976 85.4234 90.7156 84.4294 95.6516L80.0524 117.391C79.3944 120.662 80.9554 123.992 83.1474 123.992" fill="#ff830f"/></g></g><g id="Face" transform="translate(589 365) scale(122 129)"><g id="Face/None" stroke="none" stroke-width="1" fill="none" fill-rule="evenodd" fill-opacity="0"/></g><g id="Expression" transform="translate(617 356) scale(1 1)"><g id="Expression/Blowing Kiss"><path id="Fill 1" fill-rule="evenodd" clip-rule="evenodd" d="M50.8508 19.4841C48.2768 19.7321 45.9898 17.8471 45.7418 15.2741C45.4928 12.7001 47.3778 10.4131 49.9518 10.1641C52.5258 9.9161 54.8128 11.8011 55.0608 14.3751C55.3088 16.9481 53.4238 19.2361 50.8508 19.4841" fill="black"/><path id="Fill 4" fill-rule="evenodd" clip-rule="evenodd" d="M30.965 19.6486C29.86 19.6486 28.965 18.7536 28.965 17.6486C28.965 16.2136 27.255 13.9996 24.983 13.9996C22.71 13.9996 21.001 16.2136 21.001 17.6486C21.001 18.7536 20.105 19.6486 19.001 19.6486C17.896 19.6486 17.001 18.7536 17.001 17.6486C17.001 14.1116 20.487 9.9996 24.983 9.9996C29.478 9.9996 32.965 14.1116 32.965 17.6486C32.965 18.7536 32.07 19.6486 30.965 19.6486" fill="black"/><path id="Fill 6" fill-rule="evenodd" clip-rule="evenodd" d="M43.4033 56.746C42.2983 56.746 41.4033 55.851 41.4033 54.746C41.4033 53.641 42.2983 52.746 43.4033 52.746C44.5763 52.746 45.9343 51.778 45.9343 51.147C45.9343 50.516 44.5763 49.548 43.4033 49.548C42.2983 49.548 41.4033 48.653 41.4033 47.548C41.4033 46.444 42.2983 45.548 43.4033 45.548C46.4863 45.548 49.9343 47.943 49.9343 51.147C49.9343 54.352 46.4863 56.746 43.4033 56.746" fill="black"/><path id="Fill 8" fill-rule="evenodd" clip-rule="evenodd" d="M43.4033 63.9436C42.2983 63.9436 41.4033 63.0486 41.4033 61.9436C41.4033 60.8386 42.2983 59.9436 43.4033 59.9436C44.5763 59.9436 45.9343 58.9756 45.9343 58.3446C45.9343 57.7136 44.5763 56.7456 43.4033 56.7456C42.2983 56.7456 41.4033 55.8506 41.4033 54.7456C41.4033 53.6416 42.2983 52.7456 43.4033 52.7456C46.4863 52.7456 49.9343 55.1406 49.9343 58.3446C49.9343 61.5496 46.4863 63.9436 43.4033 63.9436" fill="black"/></g></g><g id="Glasses" transform="translate(598 343) scale(1 1)"><g id="Glasses/Squared Glasses"><path id="Shape" fill-rule="evenodd" clip-rule="evenodd" d="M53.3679 15C54.4729 15 55.3679 15.895 55.3679 17L55.367 22.5848C55.9811 22.2769 56.6711 22.0474 57.4386 21.9512C58.8569 21.7735 59.9981 22.0814 61.1493 22.8695L61.1494 17C61.1494 15.895 62.0444 15 63.1494 15H87.7664C88.8704 15 89.7664 15.895 89.7664 17V27.658C89.7664 33.476 85.0324 38.21 79.2134 38.21H69.0344C64.6864 38.21 61.1494 34.673 61.1494 30.325L61.1495 27.3952C60.1609 26.498 59.0178 25.7906 57.9496 25.9182C56.7124 26.0652 55.767 27.3073 55.3668 27.9285L55.3679 30.325C55.3679 34.673 51.8309 38.21 47.4829 38.21H36.2519C30.4329 38.21 25.6989 33.476 25.6989 27.658L25.698 24.532L12.4394 27.5185C12.2914 27.5515 12.1444 27.5675 11.9984 27.5675C11.0834 27.5675 10.2584 26.9365 10.0494 26.0065C9.80641 24.9285 10.4834 23.8585 11.5604 23.6155L25.698 20.431L25.6989 17C25.6989 15.895 26.5939 15 27.6989 15H53.3679ZM51.3679 19H29.6989V27.658C29.6989 31.271 32.6379 34.21 36.2519 34.21H47.4829C49.6249 34.21 51.3679 32.467 51.3679 30.325V19ZM85.7664 19H65.1494V30.325C65.1494 32.467 66.8924 34.21 69.0344 34.21H79.2134C82.8264 34.21 85.7664 31.271 85.7664 27.658V19Z" fill="black"/></g></g></g></g></g></svg>